<svg viewBox="0 0 187 187" fill="none" xmlns="http://www.w3.org/2000/svg" class="contact__Details-sc-nauuem-5 dVmDbA"><path d="M166.341 98.1542L177.777 103.233L165.466 105.442L165.299 106.832L178.682 112.81L178.847 111.439L167.413 106.34L179.731 104.072L179.876 102.861L168.445 97.742L180.758 95.5138L180.925 94.1237L166.503 96.8039L166.341 98.1542Z" fill="#F9EBBB"></path><path d="M161.422 120.037L162.6 120.424L164.917 113.375L170.047 115.062L168.205 120.667L169.383 121.054L171.225 115.449L175.861 116.973L173.613 123.813L174.791 124.2L177.457 116.087L164.158 111.715L161.422 120.037Z" fill="#F9EBBB"></path><path d="M154.4 133.491L155.474 134.11L159.058 127.888L170.115 134.256L170.784 133.095L158.652 126.108L154.4 133.491Z" fill="#F9EBBB"></path><path d="M152.527 135.929L163.909 144.081L164.689 142.992L153.308 134.839L152.527 135.929Z" fill="#F9EBBB"></path><path d="M147.309 142.323L154.106 155.684L155.031 154.66L148.89 142.781L161.318 147.699L162.243 146.674L148.26 141.269L147.309 142.323Z" fill="#F9EBBB"></path><path d="M136.122 152.45L136.905 153.412L142.658 148.725L146.068 152.912L141.494 156.638L142.277 157.6L146.852 153.873L149.934 157.657L144.351 162.204L145.135 163.166L151.756 157.772L142.914 146.918L136.122 152.45Z" fill="#F9EBBB"></path><path d="M129.09 156.787L136.033 168.944L137.196 168.28L130.254 156.122L129.09 156.787Z" fill="#F9EBBB"></path><path d="M125.534 158.778L130.193 169.793L118.479 161.762L117.005 162.385L122.459 175.279L123.693 174.757L119.019 163.705L130.748 171.773L132.222 171.15L126.768 158.256L125.534 158.778Z" fill="#F9EBBB"></path><path d="M105.958 165.013L108.301 177.556L103.818 178.393L104.046 179.612L114.348 177.688L114.12 176.469L109.618 177.31L107.275 164.767L105.958 165.013Z" fill="#F9EBBB"></path><path d="M91.9277 174.023L99.8039 173.779L99.9935 179.916L101.333 179.875L100.901 165.882L99.5613 165.923L99.7657 172.54L91.8894 172.783L91.685 166.166L90.3457 166.208L90.7779 180.201L92.1172 180.16L91.9277 174.023Z" fill="#F9EBBB"></path><path d="M79.2192 164.83L79.0525 166.059L86.4052 167.056L85.6792 172.407L79.8328 171.614L79.6661 172.843L85.5125 173.636L84.8565 178.472L77.7219 177.504L77.5552 178.732L86.0177 179.88L87.8997 166.007L79.2192 164.83Z" fill="#F9EBBB"></path><path d="M69.1924 161.974C65.4984 160.604 61.7932 162.024 60.2699 166.131C58.7466 170.237 60.6293 173.73 64.3234 175.101L68.0361 176.478L72.9052 163.352L69.1924 161.974ZM67.2111 174.849L64.7171 173.924C62.0544 172.936 60.2031 170.394 61.6012 166.625C62.9994 162.856 66.0609 162.135 68.7237 163.123L71.2176 164.048L67.2111 174.849Z" fill="#F9EBBB"></path><path d="M53.4791 154.351L52.8642 155.428L59.3077 159.107L56.6299 163.796L51.5064 160.871L50.8915 161.948L56.015 164.873L53.5951 169.111L47.3427 165.541L46.7278 166.617L54.1439 170.852L61.0862 158.695L53.4791 154.351Z" fill="#F9EBBB"></path><path d="M48.0574 150.282L40.2166 160.349L36.6191 157.547L35.8571 158.525L44.1251 164.965L44.887 163.987L41.2738 161.172L49.1146 151.106L48.0574 150.282Z" fill="#F9EBBB"></path><path d="M36.3682 139.049L30.1555 152.804L30.9715 153.656L44.9846 148.049L44.0303 147.052L40.0766 148.678L35.5263 143.925L37.3363 140.06L36.3682 139.049ZM31.6979 152.13L34.9625 145.129L38.8489 149.188L31.6979 152.13Z" fill="#F9EBBB"></path><path d="M35.1411 137.052L24.0336 145.574L24.8493 146.637L35.9568 138.115L35.1411 137.052Z" fill="#F9EBBB"></path><path d="M28.8851 127.554L27.8317 128.208L31.6191 134.308L20.7787 141.039L21.4855 142.178L33.3793 134.793L28.8851 127.554Z" fill="#F9EBBB"></path><path d="M26.5871 122.1C25.4355 119.461 23.283 117.978 20.9732 118.985C16.2253 121.056 21.6221 127.976 18.1574 129.487C16.8008 130.079 15.4618 129.31 14.6221 127.385C13.8145 125.534 14.3052 123.858 15.7915 123.013L15.2557 121.785C13.0968 122.988 12.398 125.388 13.4856 127.881C14.6051 130.447 16.711 131.624 18.7092 130.752C23.1821 128.801 18.003 121.83 21.541 120.287C23.2642 119.535 24.6028 120.653 25.4505 122.596C26.3941 124.759 25.6994 126.568 23.8545 127.591L24.3903 128.819C26.9134 127.5 27.8346 124.96 26.5871 122.1Z" fill="#F9EBBB"></path><path d="M20.7291 85.2748L9.49628 79.7604L21.8829 78.026L22.103 76.6434L8.95929 70.1566L8.74236 71.5194L19.972 77.0536L7.57596 78.8472L7.38418 80.052L18.6107 85.6059L6.22093 87.36L6.00085 88.7426L20.5153 86.6179L20.7291 85.2748Z" fill="#F9EBBB"></path><path d="M26.5416 63.4512L25.3806 63.0156L22.7739 69.9626L17.7181 68.0656L19.7908 62.5416L18.6299 62.106L16.5572 67.6299L11.9882 65.9156L14.5176 59.1745L13.3567 58.7389L10.3565 66.7345L23.4642 71.6528L26.5416 63.4512Z" fill="#F9EBBB"></path><path d="M34.0292 50.3821L32.9806 49.7203L29.1485 55.7922L18.3579 48.982L17.6427 50.1151L29.482 57.5872L34.0292 50.3821Z" fill="#F9EBBB"></path><path d="M35.9791 48.0187L24.9341 39.4159L24.1107 40.4731L35.1557 49.0759L35.9791 48.0187Z" fill="#F9EBBB"></path><path d="M41.2622 42L34.9545 28.4006L33.993 29.3905L39.6989 41.4852L27.4574 36.1188L26.4959 37.1087L40.2728 43.0185L41.2622 42Z" fill="#F9EBBB"></path><path d="M52.7082 32.3364L51.9606 31.3471L46.0408 35.8207L42.7851 31.5125L47.4922 27.9554L46.7446 26.9661L42.0375 30.5232L39.0953 26.6299L44.8395 22.289L44.0919 21.2997L37.2786 26.4486L45.7194 37.6179L52.7082 32.3364Z" fill="#F9EBBB"></path><path d="M60.1498 28.0789L53.7071 15.6494L52.5174 16.2661L58.9601 28.6955L60.1498 28.0789Z" fill="#F9EBBB"></path><path d="M63.4314 26.3539L59.1878 15.172L70.593 23.636L72.0889 23.0683L67.1215 9.97917L65.8687 10.4546L70.1265 21.6738L58.707 13.1725L57.2111 13.7402L62.1786 26.8293L63.4314 26.3539Z" fill="#F9EBBB"></path><path d="M83.5937 20.729L81.7814 8.09841L86.2952 7.45074L86.1191 6.22331L75.7453 7.71181L75.9214 8.93924L80.455 8.28873L82.2673 20.9194L83.5937 20.729Z" fill="#F9EBBB"></path><path d="M97.8696 12.2636L89.9901 12.1723L90.0612 6.03272L88.7213 6.0172L88.5592 20.0163L89.8991 20.0318L89.9757 13.4122L97.8552 13.5035L97.7786 20.123L99.1185 20.1385L99.2806 6.13948L97.9407 6.12397L97.8696 12.2636Z" fill="#F9EBBB"></path><path d="M110.233 21.898L110.447 20.6765L103.138 19.398L104.068 14.0788L109.88 15.0954L110.094 13.8739L104.282 12.8573L105.123 8.0503L112.215 9.29092L112.429 8.06947L104.016 6.59795L101.604 20.3886L110.233 21.898Z" fill="#F9EBBB"></path><path d="M120.076 25.0767C123.711 26.5979 127.471 25.3317 129.162 21.2914C130.853 17.251 129.116 13.6836 125.482 12.1623L121.829 10.6333L116.423 23.5477L120.076 25.0767ZM122.586 12.2946L125.04 13.3216C127.66 14.4182 129.405 17.0348 127.852 20.7431C126.3 24.4513 123.212 25.0448 120.592 23.9483L118.138 22.9212L122.586 12.2946Z" fill="#F9EBBB"></path><path d="M135.312 33.1501L135.966 32.0967L129.662 28.1827L132.511 23.5951L137.523 26.7073L138.177 25.6538L133.165 22.5416L135.739 18.3958L141.856 22.1937L142.51 21.1403L135.255 16.6355L127.87 28.5293L135.312 33.1501Z" fill="#F9EBBB"></path><path d="M140.725 37.4758L148.927 27.7012L152.42 30.6324L153.217 29.6825L145.189 22.9459L144.392 23.8958L147.9 26.8399L139.698 36.6144L140.725 37.4758Z" fill="#F9EBBB"></path><path d="M152.181 49.3334L158.939 35.8373L158.157 34.953L143.931 39.9957L144.845 41.0299L148.86 39.5638L153.217 44.495L151.254 48.2842L152.181 49.3334ZM157.37 36.4488L153.829 43.3142L150.108 39.1025L157.37 36.4488Z" fill="#F9EBBB"></path><path d="M153.279 51.2825L164.719 43.2133L163.947 42.1183L152.506 50.1874L153.279 51.2825Z" fill="#F9EBBB"></path><path d="M159.203 61.0749L160.282 60.4639L156.745 54.2158L167.848 47.9292L167.188 46.7632L155.005 53.6606L159.203 61.0749Z" fill="#F9EBBB"></path><path d="M161.237 66.4422C162.289 69.1232 164.384 70.6856 166.73 69.7651C171.552 67.8728 166.418 60.7566 169.937 59.3757C171.314 58.8351 172.624 59.6533 173.391 61.6082C174.129 63.4886 173.576 65.1451 172.059 65.9337L172.548 67.1811C174.751 66.059 175.539 63.6872 174.545 61.1552C173.522 58.5487 171.462 57.2947 169.432 58.0911C164.89 59.8738 169.805 67.0331 166.212 68.4432C164.462 69.13 163.166 67.9627 162.391 65.9893C161.529 63.7924 162.291 62.0109 164.173 61.0576L163.683 59.8102C161.112 61.0339 160.097 63.5379 161.237 66.4422Z" fill="#F9EBBB"></path><path fill-rule="evenodd" clip-rule="evenodd" d="M93.5 48H92.5V91.1346L70.9329 53.7793L70.0669 54.2793L91.6332 91.6333L54.2788 70.0666L53.7788 70.9326L91.1345 92.5H48V93.5H91.1349L53.7788 115.068L54.2788 115.934L91.6333 94.367L70.0671 131.721L70.9331 132.221L92.5 94.8657V138H93.5V94.8666L115.067 132.222L115.933 131.722L94.3653 94.3653L131.721 115.933L132.221 115.067L94.8665 93.5H138V92.5H94.867L132.221 70.9336L131.721 70.0676L94.3653 91.6349L115.933 54.2784L115.067 53.7784L93.5 91.1337V48Z" fill="#F9EBBB"></path></svg>