<?xml version="1.0" encoding="utf-8"?>
<!-- Generator: Adobe Illustrator 27.6.1, SVG Export Plug-In . SVG Version: 6.00 Build 0)  -->
<svg version="1.1" id="Capa_1" xmlns="http://www.w3.org/2000/svg" xmlns:xlink="http://www.w3.org/1999/xlink" x="0px" y="0px"
	 viewBox="0 0 1920 1080" style="enable-background:new 0 0 1920 1080;" xml:space="preserve">
<style type="text/css">
	.st0{opacity:0.3;fill:#4D4D4D;enable-background:new    ;}
	.st1{opacity:0.35;fill:#4D4D4D;enable-background:new    ;}
	.st2{opacity:0.45;fill:#4D4D4D;enable-background:new    ;}
	.st3{opacity:0.8;fill:#333333;enable-background:new    ;}
	.st4{opacity:0.3;fill:#333333;enable-background:new    ;}
	.st5{opacity:0.5;fill:#4D4D4D;enable-background:new    ;}
	.st6{opacity:0.8;fill:#4D4D4D;enable-background:new    ;}
	.st7{fill:#333333;}
</style>
<g id="Diseño">
	<g>
		<g>
			<path d="M694.31,560.02v63.59h-22.09v-63.59c0-20.75-15.4-27.44-24.32-27.44c-16.06,0-31.01,7.59-31.01,29.67v61.36h-22.54V458.5
				l22.54-6.69v70.51c5.58-7.59,15.62-12.49,31.01-12.49c20.53,0,46.41,10.71,46.41,50.2L694.31,560.02z"/>
			<path d="M775.97,624.95c-31.68,0-57.34-25.66-57.34-57.34s25.66-57.12,57.34-57.12s57.12,25.44,57.12,57.12
				S807.65,624.95,775.97,624.95z M775.52,605.54c18.97,0,34.36-16.73,34.36-37.48s-15.39-37.48-34.36-37.48
				s-34.36,16.96-34.36,37.48S756.33,605.54,775.52,605.54z"/>
			<path d="M953.58,621.38h-22.09v-10.26c-5.58,7.59-15.62,12.49-31.01,12.49c-20.53,0-46.41-10.71-46.41-50.2v-63.59h22.09v63.59
				c0,20.75,15.39,27.44,24.32,27.44c16.06,0,31.01-7.59,31.01-29.67v-61.36h22.09L953.58,621.38L953.58,621.38z"/>
			<path d="M1060,590.59c0,20.53-18.3,35.03-41.28,35.03s-44.18-14.95-44.18-35.48h23.2c0,7.81,8.48,16.06,20.97,16.06
				s19.41-7.59,19.41-15.4c0-6.47-4.46-13.83-13.83-15.84l-14.95-3.57c-16.73-4.46-28.34-15.17-28.34-30.57
				c0-17.63,13.16-31.24,34.81-31.24c22.76,0,35.48,11.83,37.71,27.22h-22.31c0-5.35-7.59-8.7-15.4-8.7
				c-9.59,0-13.83,5.58-13.83,12.49c0,5.13,1.12,9.59,7.36,11.6c4.24,1.34,8.7,2.45,14.95,3.79c20.08,4.02,35.7,15.84,35.7,34.58
				L1060,590.59z"/>
			<path d="M1158.4,594.83h26.33c-9.15,18.52-27.67,31.01-49.76,31.01c-32.13,0-57.12-26.1-57.12-57.79s24.99-58.01,57.12-58.01
				s56.23,26.1,56.23,58.01c0,2.9-0.22,5.8-0.67,8.48h-89.25c3.35,16.96,16.73,29.45,33.24,29.45c9.59,0,17.85-4.02,23.87-11.16
				L1158.4,594.83z M1101.73,558.46h64.93c-3.57-16.06-16.06-27.89-32.13-27.89S1105.52,542.4,1101.73,558.46z"/>
			<path d="M1238.05,618.36c-8.48-4.98-15.21-11.83-20.19-20.53c-4.99-8.7-7.47-18.33-7.47-28.89s2.49-20.19,7.47-28.89
				s11.71-15.54,20.19-20.53c8.48-4.98,17.77-7.47,27.89-7.47c11.45,0,21.83,3.09,31.13,9.26c9.29,6.17,15.95,14.61,19.97,25.32
				h-13.83c-3.57-6.99-8.74-12.49-15.51-16.51s-14.02-6.02-21.75-6.02s-14.84,1.93-21.31,5.8c-6.47,3.87-11.6,9.22-15.39,16.06
				s-5.69,14.5-5.69,22.98s1.9,16.14,5.69,22.98c3.79,6.84,8.92,12.2,15.39,16.06c6.47,3.87,13.57,5.8,21.31,5.8
				s14.98-2.01,21.75-6.02c6.77-4.02,11.94-9.52,15.51-16.51h13.83c-4.02,10.71-10.67,19.15-19.97,25.32
				c-9.3,6.17-19.67,9.26-31.13,9.26C1255.82,625.83,1246.53,623.34,1238.05,618.36L1238.05,618.36z"/>
			<path d="M1360.99,618.36c-8.63-4.98-15.43-11.83-20.42-20.53s-7.47-18.33-7.47-28.89s2.49-20.19,7.47-28.89
				s11.79-15.54,20.42-20.53c8.62-4.98,18.15-7.47,28.56-7.47s19.71,2.49,28.34,7.47c8.62,4.99,15.47,11.83,20.53,20.53
				s7.59,18.33,7.59,28.89s-2.53,20.19-7.59,28.89c-5.06,8.7-11.9,15.54-20.53,20.53c-8.63,4.99-18.07,7.47-28.34,7.47
				S1369.62,623.34,1360.99,618.36z M1411.3,607.98c6.62-3.87,11.86-9.22,15.73-16.06s5.8-14.5,5.8-22.98s-1.93-16.14-5.8-22.98
				c-3.87-6.84-9.11-12.19-15.73-16.06s-13.87-5.8-21.75-5.8s-15.14,1.93-21.75,5.8c-6.62,3.87-11.86,9.22-15.73,16.06
				s-5.8,14.5-5.8,22.98s1.93,16.14,5.8,22.98c3.87,6.84,9.11,12.2,15.73,16.06c6.62,3.87,13.87,5.8,21.75,5.8
				S1404.68,611.85,1411.3,607.98z"/>
			<path d="M1541.05,618.36c-8.63-4.98-15.43-11.83-20.42-20.53s-7.47-18.33-7.47-28.89s2.49-20.19,7.47-28.89
				s11.79-15.54,20.42-20.53c8.62-4.98,18.15-7.47,28.56-7.47s19.71,2.49,28.34,7.47c8.62,4.99,15.47,11.83,20.53,20.53
				s7.59,18.33,7.59,28.89s-2.53,20.19-7.59,28.89c-5.06,8.7-11.9,15.54-20.53,20.53c-8.63,4.99-18.07,7.47-28.34,7.47
				S1549.68,623.34,1541.05,618.36z M1591.36,607.98c6.62-3.87,11.86-9.22,15.73-16.06s5.8-14.5,5.8-22.98s-1.93-16.14-5.8-22.98
				c-3.87-6.84-9.11-12.19-15.73-16.06s-13.87-5.8-21.75-5.8s-15.14,1.93-21.75,5.8c-6.62,3.87-11.86,9.22-15.73,16.06
				s-5.8,14.5-5.8,22.98s1.93,16.14,5.8,22.98c3.87,6.84,9.11,12.2,15.73,16.06c6.62,3.87,13.87,5.8,21.75,5.8
				S1584.74,611.85,1591.36,607.98z"/>
			<path d="M1708.83,513.16v12.05h-10.71c-5.95,0-11.49,1.56-16.62,4.69c-5.13,3.12-9.19,7.33-12.16,12.61
				c-2.98,5.28-4.46,11.04-4.46,17.29v63.81h-12.72V514.28h12.72v17.85c3.87-5.95,8.89-10.6,15.06-13.95
				c6.17-3.35,12.83-5.02,19.97-5.02L1708.83,513.16L1708.83,513.16z"/>
			<path d="M1499.35,628.19c-19.53-1.34-28.27-10.71-28.27-30.12V465.23l12.54-3.17v136.02c0,11.16,5.43,18.02,15.73,19.96v10.16
				V628.19z"/>
		</g>
		<g>
			<g>
				<path class="st0" d="M508.61,460.1c-79.99-137.05-297.46-80.51-295.87,80.2c-3.21,103.2,103.48,181.19,201.11,152.48
					c25.2-4.7,48.71-29.64,62.43-46.52c52.47-54.16,72.2-117.99,32.32-186.17L508.61,460.1z M492.34,563.4
					c0,0-8.14,28.6-39.05,35.39c-57.22,21.18-46.84,65.86-80.31,77.5l0,0c-3.43,0.88-7.29,1.03-11.25-0.32
					c-23.28-13.13-44.54-29.83-73.22-29.68c-70.61-55.71-62.13-179.51,16.63-223.83c9.79-5.92,20.15-10.41,31.01-13.44
					c93.28,7.93,176.62,58.49,156.2,154.38H492.34z"/>
				<path class="st1" d="M508.61,460.1c-14.18-24.04-33.56-43.22-57.6-56.99c-24.04-13.76-50.84-20.74-79.67-20.74
					s-55.63,6.98-79.67,20.74c-24.05,13.78-43.43,32.95-57.6,56.99c-14.15,23.99-21.33,50.98-21.33,80.2s7.18,56.21,21.33,80.2
					c14.19,24.06,33.56,43.23,57.6,56.99c24.02,13.76,50.82,20.74,79.67,20.74c13.7,0,26.93-1.57,39.63-4.7
					c14.04-3.46,27.87-9.75,38.88-19.24c11.04-9.52,14.96-15.48,20.86-21.77c4.77-5.07,8.76-9.84,13.6-15.26
					c3.28-3.67,6.75-7.98,10.69-12.87c17.5-21.67,34.93-54.87,34.93-84.1s-7.18-56.21-21.33-80.2L508.61,460.1z M500.5,565.95
					c-0.18,0.61-0.36,1.22-0.55,1.84c0,0-5.01,24.76-35.58,38.43c-32.66,14.6-71.35,62.58-71.35,62.58s-2.74,3.22-7.17,6.74h-0.02
					v0.02c-8.02,6.35-21.57,13.64-34.52,4.62c-3.53-2.46-6.7-4.87-9.65-7.19l0,0c-13.91-10.87-23.23-19.46-44.37-19.97
					c-16.19-11.38-29.49-26.07-39.6-43.76c-11.72-20.52-17.67-43.72-17.67-68.96s5.94-48.44,17.67-68.95
					c11.69-20.46,27.65-36.91,47.44-48.89c9.79-5.92,20.15-10.41,31.01-13.44c96.28-11.6,154.01,72.55,154.34,73.03l0,0l0,0
					C490.48,482.05,515.84,513.57,500.5,565.95L500.5,565.95z"/>
				<path class="st0" d="M508.61,460.1c-14.18-24.04-33.56-43.22-57.6-56.99c-24.04-13.76-50.84-20.74-79.67-20.74
					s-55.63,6.98-79.67,20.74c-24.05,13.78-43.43,32.95-57.6,56.99c-14.15,23.99-21.33,50.98-21.33,80.2s7.18,56.21,21.33,80.2
					c14.19,24.06,33.56,43.23,57.6,56.99c24.02,13.76,50.82,20.74,79.67,20.74c22.34,0,44.3-2.44,63.01-12.47
					c1.22-0.65,2.04-1.23,3.07-1.86c1.25-0.76,2.46-1.65,3.67-2.51c1.02-0.74,2.06-1.45,3.01-2.27c1.19-1.04,2.4-1.93,3.51-2.89
					c0.75-0.65,1.58-1.36,2.25-1.94c2.69-2.37,5.91-5.68,8.78-8.73c5.57-5.9,10.85-11.96,15.36-16.74c3.07-3.26,5.98-6.66,8.64-9.63
					c4.43-4.95,8.34-9.36,12.38-14.8c1.5-2.01,3.06-3.93,4.65-6.04c0.86-1.15,1.76-2.28,2.57-3.67c14.15-24,27.71-45.17,27.71-74.39
					s-7.18-56.21-21.33-80.2L508.61,460.1z M502.67,540.3L502.67,540.3c-46.96,23.97-49.02,56.01-49.02,56.01
					s-11.23,52.08-16.08,61.83l0,0c-4.85,9.75-15.8,17.27-15.8,17.27s-43.87,24.71-70,8.82c-8.96-5.45-16.93-11.19-24.52-15.5l0,0
					c-4.68-2.66-9.21-4.77-13.75-5.95c-2.83-1.43-5.62-2.98-8.36-4.64c-19.78-11.96-35.74-28.41-47.45-48.89
					c-11.72-20.52-17.67-43.72-17.67-68.96s5.94-48.44,17.67-68.95c11.69-20.46,27.65-36.91,47.44-48.89
					c9.96-6.02,20.51-10.56,31.57-13.6c43.82-5.63,68.27,3.66,98.9,16.93c10.7,4.64,22.86,13.52,34.34,24.1
					c0.05,0.06,0.1,0.13,0.16,0.19l0.03-0.02c21.3,19.69,40.21,45.24,43.08,60.48c4.42,23.49-10.54,29.76-10.54,29.76L502.67,540.3z
					"/>
				<path class="st2" d="M508.59,460.09c-1.25-2.12-3.26-4.15-4.93-6.06c-2.59-2.97-5.02-5.69-7.6-8.32
					c-5.62-5.7-10.64-10.81-16.44-16.41c-6.8-6.57-12.85-14.05-20.11-20.16c-2.65-2.23-5.46-4.28-8.53-6.04
					c-24.04-13.76-50.84-20.74-79.67-20.74s-55.63,6.98-79.67,20.74c-24.05,13.78-43.43,32.95-57.6,56.99
					c-14.15,23.99-21.33,50.98-21.33,80.2c0,29.22,7.18,56.21,21.33,80.2c9.36,15.88,20.99,29.63,34.72,41.1
					c7.07,5.91,18.08,9.28,26.95,12.43c12.12,4.3,21.18,8.03,31.41,12.12c14.02,5.6,27.51,12.08,44.19,12.08
					c22.34,0,43.46-4.19,63.01-12.47c0.46-0.2,1.07-0.62,1.5-0.88c1.21-0.75,1.76-1.08,2.7-1.7c4.07-2.66,7.86-6.33,11.3-8.89
					c2.78-2.07,5.24-5.17,7.63-7.5c6.95-6.79,12.65-13.55,18.81-20.52c5.84-6.6,11.97-13.47,17.65-20.53
					c2.03-2.52,3.9-4.84,5.77-7.46c0.49-0.69,1.05-1.39,1.57-2.12c0.14-0.19,0.29-0.34,0.42-0.55c14.15-24,28.24-46.09,28.24-75.31
					S522.73,484.08,508.59,460.09L508.59,460.09z M492.13,594.71L492.13,594.71L492.13,594.71c-5.55,6.21-12.95,12.46-22.58,17.02
					c-26.33,12.45-50.92,43.96-74.86,62.54l0,0c-1.2,0.93-2.39,1.83-3.59,2.69c-25.08,18.07-43.94,8.72-50.15,5.51
					c-2.28-1.18-7.33-4.97-12.43-8.88c-0.31-0.25-1.06-0.82-1.96-1.51c-2.09-1.61-4.14-3.18-5.94-4.54c-1.24-1.06-2.64-2.04-3.8-2.8
					c-0.73-0.52-1.34-0.93-1.79-1.19c-0.47-0.27-0.79-0.39-0.79-0.39c-3.09-1.54-6.13-3.21-9.12-5.02
					c-3.63-2.2-7.14-4.55-10.51-7.04c-1.79-1.33-3.26-2.49-4.21-3.25c-0.34-0.27-0.67-0.54-1.01-0.81
					c-0.03-0.03-0.06-0.05-0.08-0.07c-12.63-10.38-23.23-23.01-31.63-37.71c-11.72-20.52-17.67-43.72-17.67-68.96
					s5.94-48.44,17.67-68.95c11.69-20.46,27.65-36.91,47.44-48.89c9.96-6.02,20.51-10.56,31.57-13.6
					c51.89-9.34,87.92,12.27,101.46,18.11c5.09,2.19,13.71,6.94,23.3,13.91l0,0c15.94,11.58,34.55,29.27,43.97,51.49
					c15.08,35.59,1,79.3,1,79.3s-3.91,11.46-14.28,23.06L492.13,594.71z"/>
				<path class="st3" d="M476.27,622.72L476.27,622.72L476.27,622.72c-30.87,11.49-62.23,46.52-62.23,46.52
					c-2.81,3-5.87,6.26-9.22,9.8c0,0-20.32,18.76-54.26,13.59c-10.32-4.32-21.92-18.95-21.92-18.95
					c-7.65-6.22-14.39-10.52-14.39-10.52c-1.55-0.78-3.13-1.59-5.12-2.7c-3.74-2.09-8.29-4.87-11.96-7.5
					c-4.53-3.24-7.97-6.1-7.97-6.1v0.02c0,0,0-0.01,0-0.02l0,0c-12.58-10.36-23.14-22.95-31.51-37.61
					c-11.72-20.52-17.67-43.72-17.67-68.96s5.94-48.44,17.67-68.95c11.69-20.46,27.65-36.91,47.44-48.89
					c19.92-12.05,42.2-18.16,66.21-18.16s46.29,6.11,66.22,18.16c9.47,5.73,18.06,12.49,25.73,20.22l0,0
					c0,0,44.75,23.31,54.82,69.71c10.07,46.39-5.25,96.7-41.85,110.33L476.27,622.72z M508.61,460.11
					c-0.31-0.53-0.76-1.06-1.14-1.55c-0.64-0.81-1.26-1.54-1.9-2.3c-1.78-2.12-3.52-4.1-5.33-6.09c-5.75-6.28-11.75-11.98-18-18.24
					c-2.8-2.8-5.63-5.73-8.41-8.72c-6.95-7.47-14.04-15.07-22.81-20.1c-24.04-13.76-50.84-20.74-79.67-20.74
					s-55.63,6.98-79.67,20.74c-24.05,13.78-43.43,32.95-57.6,56.99c-14.15,23.99-21.33,50.98-21.33,80.2s7.18,56.21,21.33,80.2
					c11.51,19.51,26.42,35.81,44.48,48.61c0.01,0,0.03,0.02,0.04,0.02c0.02,0.01,0.05,0.03,0.08,0.05c0.06,0.04,0.12,0.07,0.18,0.11
					c0.16,0.1,0.32,0.2,0.49,0.29c0.05,0.03,0.11,0.06,0.16,0.09c0.69,0.4,1.37,0.79,2.1,1.21c3.41,1.96,6.96,3.86,10.62,5.52
					c2.36,1.07,4.42,2.04,6.64,3c3.83,1.67,7.68,3.26,11.7,4.9c0.91,0.37,1.93,0.77,2.85,1.14c18.21,7.23,37.36,12.77,57.96,12.77
					c22.34,0,43.46-4.19,63.01-12.47c0.02,0,0.04-0.02,0.06-0.03c0.04-0.02,0.08-0.05,0.12-0.07c0.14-0.08,0.27-0.15,0.4-0.23
					c0.6-0.34,1.15-0.73,1.77-1.08c0.21-0.12,0.41-0.25,0.61-0.37c0.44-0.27,0.85-0.53,1.24-0.79c0.75-0.5,1.47-1.02,2.3-1.62
					c0.84-0.61,1.8-1.3,2.5-1.86c2.11-1.67,3.9-3.15,5.83-4.83c1.25-1.08,2.44-2.07,3.49-3.08c1.35-1.29,2.71-2.5,3.94-3.73
					c2.14-2.13,3.97-4.25,5.89-6.22c1.07-1.1,2.17-2.5,3.21-3.65c1.78-1.98,3.26-3.7,4.98-5.67c3.78-4.32,7.56-8.41,11.32-12.66
					c4.44-5.01,8.74-10.13,12.98-15.47c1.48-1.86,2.93-3.76,4.38-5.69c0.53-0.7,1.05-1.4,1.57-2.11c0.16-0.23,0.33-0.45,0.5-0.68
					c0.05-0.06,0.09-0.12,0.13-0.18c0.02-0.03,0.04-0.06,0.06-0.09c0-0.01,0.04-0.05,0.05-0.06c14.15-24,28.23-46.05,28.23-75.27
					S522.77,484.09,508.61,460.11L508.61,460.11z"/>
				<path d="M305.12,422.46c48.71-30.41,118.03-21.64,157.72,19.77c8.02-0.23,11.83,3.85,22.77,4.01
					c-8.56-6.7-11.96-11.04-16.53-17.43c-55.9-78.06-190.54-50.72-235.02,31.3C196,522.16,210.49,612.74,265.84,659.3
					c5.2,4.37,10.68,7.21,16.59,10.74c3.13,1.87,6.96,3.12,10.29,4.73c2.02,0.91,3.59,1.5,5.54,2.27c3.18,1.26,6.21,2.57,9.33,3.64
					c6.94,2.38,13.96,6.2,20.95,8.46c-1.52-4.36,5.07-10.77,0.09-15.46c-4.97-4.67-14.39-10.52-14.39-10.52
					c-6.69-2.92-20.84-12.48-25.05-16.3v0.02c0,0,0-0.01,0-0.02l0,0c-71.29-55.45-63.14-179.92,15.93-224.41V422.46z"/>
			</g>
			<g>
				<path class="st4" d="M534.88,537.09v-0.03c-0.16-6.5-0.67-13.06-1.54-19.55c-0.93-6.36-2.22-12.77-3.83-19.05l-0.06-0.24
					c-1.47-5.44-3.23-10.87-5.24-16.16l-1-2.56l-2.23-5.28l-0.29-0.62c-1.07-2.34-2.19-4.75-3.41-7.1
					c-2.03-4.05-4.27-7.87-6.21-11.1c-0.36-0.58-0.73-1.16-1.1-1.73c-0.2-0.31-0.4-0.62-0.6-0.94l-0.84-1.32l-2.69-3.97
					c-0.1-0.15-0.2-0.29-0.3-0.44c-0.2-0.3-0.41-0.6-0.63-0.91l-0.92-1.25c-4.96-6.8-10.51-13.29-16.47-19.29l0,0
					c0,0-0.01-0.01-0.02-0.02l-0.03-0.03c-7.04-7.03-14.73-13.43-22.86-19.02c-8.18-5.63-16.93-10.52-25.97-14.52l-0.07-0.03
					c-10.25-4.51-20.97-7.97-31.87-10.29c-10.93-2.29-22.14-3.48-33.32-3.52h-0.02l-4.71,0.06l-4.71,0.2h-0.17
					c-5.35,0.32-10.75,0.9-16.04,1.73c-16.79,2.64-32.95,7.87-48.03,15.54l-0.23,0.12c-15.05,7.68-28.79,17.68-40.85,29.74
					l-0.05,0.05c-12.07,12.06-22.08,25.84-29.77,40.94c-2.04,4.01-3.78,7.79-5.32,11.55c-1.65,4.01-3.13,8.02-4.4,11.93
					c-1.29,4.02-2.44,8.13-3.44,12.25l-0.67,2.91l-0.67,3.24c-0.12,0.58-0.23,1.15-0.31,1.62l-0.38,2.08
					c-0.06,0.35-0.13,0.7-0.19,1.06l-0.24,1.53c-1.29,8.06-1.96,16.58-1.99,25.33c0,10.59,1.05,21.21,3.1,31.58
					c2.06,10.39,5.15,20.61,9.19,30.38c4.04,9.78,9.08,19.19,14.97,27.98c5.85,8.74,12.62,16.98,20.13,24.5l2.68,2.61
					c0.41,0.4,0.82,0.78,1.21,1.14l1.59,1.46c7.74,7.05,16,13.26,24.52,18.45c8.71,5.33,17.95,9.85,27.49,13.44l0.19,0.07
					c15.71,5.88,32.21,9.27,49.04,10.07l4.33,0.15l4.41,0.03c11.47-0.07,22.96-1.36,34.14-3.84c4.53-1.02,8.92-2.18,13.07-3.47
					c4.25-1.34,8.51-2.86,12.7-4.53l0,0l3.73-1.57l0.38-0.17c2.4-1.07,6.02-2.69,10.61-5.12l1.82-0.98c0.19-0.1,0.38-0.21,0.57-0.31
					c0.45-0.24,0.92-0.49,1.38-0.76l2.35-1.35c0.25-0.14,0.49-0.28,0.74-0.43l3.22-1.96l2.71-1.74c0.26-0.17,0.52-0.34,0.81-0.53
					l2.69-1.82c0.33-0.22,0.65-0.44,0.95-0.66l2.48-1.78c0.57-0.41,1.14-0.84,1.69-1.26c0.29-0.22,0.59-0.45,0.91-0.69
					c0.14-0.11,0.29-0.22,0.43-0.33c0.31-0.23,0.61-0.46,0.9-0.69l2.62-2.08c0.31-0.25,0.62-0.5,0.93-0.76
					c0.15-0.13,0.3-0.25,0.45-0.38c3.88-3.22,7.66-6.65,11.21-10.21c3.54-3.54,6.96-7.3,10.18-11.18c0.12-0.15,0.25-0.3,0.37-0.45
					c0.26-0.31,0.52-0.61,0.76-0.92l2.07-2.61c0.24-0.3,0.47-0.61,0.7-0.91c0.11-0.15,0.22-0.29,0.35-0.46
					c0.22-0.3,0.45-0.6,0.67-0.89c0.41-0.54,0.84-1.11,1.25-1.68l1.75-2.44c0.24-0.32,0.46-0.65,0.68-0.98l1.83-2.7
					c0.17-0.26,0.34-0.52,0.51-0.79l1.7-2.64l1.99-3.27c0.15-0.24,0.29-0.49,0.43-0.74l1.33-2.31c0.28-0.48,0.53-0.94,0.78-1.39
					c0.1-0.19,0.21-0.39,0.32-0.59l0.99-1.82c2.41-4.55,4.03-8.16,5.1-10.55l1.68-3.95l0.06-0.14c4.06-10.09,7.15-20.64,9.19-31.39
					c1.95-10.67,2.86-21.64,2.7-32.59L534.88,537.09z M264.76,431.72L264.76,431.72c1.96-1.95,4.11-3.91,6.55-5.99
					c2.18-1.85,4.52-3.75,6.97-5.63c4.82-3.71,9.75-7.18,14.67-10.32c5.55-3.54,10.63-6.42,15.54-8.81
					c2.87-1.39,5.52-2.54,8.12-3.52c3-1.13,5.72-1.95,8.33-2.52c4.45-0.93,9.24-1.84,14.09-2.14h0.1c0.15-0.02,0.36-0.03,0.56-0.03
					l2.24-0.05l2.11,0.08h0.07c0.16,0,0.37,0.03,0.6,0.05l1.89,0.18c0.07,0,0.14,0.02,0.21,0.03l1.26,0.19
					c0.14,0.02,0.28,0.04,0.43,0.06c0.18,0.03,0.37,0.05,0.58,0.09l1.07,0.2c1.63,0.31,3.29,0.66,4.89,1.01
					c1.2,0.26,2.4,0.52,3.58,0.75c5.34,1.12,11.04,1.99,17.41,2.66l2.23,0.18l2.23,0.09h0.06c2.77,0.05,5.69-0.12,8.67-0.52
					c3.09-0.41,6.11-1.03,8.39-1.53c0.65-0.14,1.31-0.29,1.96-0.43c2-0.45,4.06-0.91,6.09-1.28c2.91-0.53,5.47-0.79,7.81-0.8
					c1.67,0,3.36,0.15,5.02,0.42l1.27,0.24c0.26,0.06,0.51,0.12,0.77,0.19l0.45,0.11c0.09,0.02,0.18,0.05,0.27,0.07
					c0.08,0.02,0.17,0.04,0.26,0.07l1.44,0.44c0.11,0.03,0.22,0.06,0.32,0.1l0.1,0.04c3.01,1.06,6.1,2.6,9.19,4.59l0.05,0.03
					c2.27,1.47,4.28,3.42,5.98,5.82c1.53,2.15,2.86,4.67,4.04,7.7c0.96,2.47,1.82,5.21,2.69,8.61c0.76,2.97,1.4,5.95,2.04,9
					l0.26,1.25c0.55,2.6,1.11,5.29,1.74,7.93c0.86,3.63,1.68,6.56,2.59,9.22c1.18,3.45,2.49,6.38,4,8.96
					c1.81,3.09,3.97,5.72,6.42,7.82l0.1,0.09c2.6,2.2,5.64,4.12,9.29,5.87c3.57,1.72,7.22,3.05,9.99,4.02
					c1.94,0.68,3.92,1.33,5.83,1.97c2.45,0.81,4.99,1.66,7.45,2.55c3.78,1.37,8.21,3.11,12.31,5.61c0.94,0.58,1.87,1.2,2.74,1.84
					c0.85,0.63,1.69,1.33,2.51,2.06c1.62,1.49,3.01,3.13,4.13,4.84l0.88,1.45c0.11,0.18,0.2,0.36,0.29,0.55l0.03,0.05
					c0.06,0.11,0.11,0.22,0.17,0.33s0.12,0.23,0.17,0.34l0.4,0.85c0.06,0.13,0.11,0.26,0.17,0.39c0.05,0.11,0.09,0.22,0.15,0.36
					c0.13,0.3,0.25,0.64,0.38,1c0.06,0.16,0.11,0.32,0.17,0.47c0.65,1.95,1.13,4.08,1.43,6.33v0.02c0.41,3.19,0.59,6.27,0.54,9.15
					c-0.06,2.93-0.35,5.77-0.89,8.44c-0.55,2.77-1.39,5.48-2.47,8.05c-1.07,2.53-2.43,5.03-4.04,7.41
					c-1.55,2.29-3.34,4.53-5.34,6.64c-1.88,1.99-3.94,3.92-6.3,5.88l-3.39,2.69l-0.73,0.54c-0.96,0.71-1.87,1.37-2.82,2.01
					l-0.05,0.04c-0.83,0.59-1.69,1.15-2.59,1.73c-0.34,0.22-0.69,0.45-1.03,0.67l-2.21,1.37c-0.19,0.12-0.38,0.24-0.56,0.34
					l-0.98,0.58c-2.48,1.49-5.04,2.88-7.67,4.29l-1.15,0.59c-0.48,0.25-1.12,0.58-1.93,0.99c-1.63,0.83-4.57,2.3-9.34,4.57
					l-1.02,0.49c-1.81,0.87-3.87,1.86-6.07,2.99c-2.7,1.39-5.6,2.96-8.54,4.99c-1.6,1.11-3.12,2.3-4.51,3.53
					c-1.49,1.32-2.96,2.8-4.35,4.38c-2.54,2.88-5.12,6.46-7.87,10.95c-1.53,2.52-2.86,5.4-4.05,8.79c-0.89,2.53-1.67,5.23-2.44,8.51
					c-1.3,5.56-2.14,10.83-2.82,15.35c-0.37,2.49-0.71,4.86-1.03,7.15c-0.28,2-0.56,3.92-0.83,5.75c-0.63,4.25-1.19,7.55-1.76,10.39
					c-0.6,2.98-1.25,5.6-1.94,7.8c-0.61,1.97-1.28,3.71-2,5.17c-0.5,1.03-1.03,1.95-1.58,2.73l-0.03,0.05
					c-0.13,0.19-0.24,0.34-0.33,0.45l-0.26,0.34c-1.07,1.31-2.27,2.58-3.56,3.78c-1.27,1.14-2.66,2.25-4.12,3.28
					c-4.57,3.15-9.92,5.67-15.93,7.48c-1.21,0.37-2.53,0.73-4.28,1.15c-1.38,0.31-2.86,0.63-4.37,0.87
					c-2.89,0.49-5.85,0.77-8.79,0.85c-1.27,0.01-2.62,0-3.98-0.09c-1.43-0.11-2.68-0.26-3.81-0.49h-0.07
					c-3.72-0.77-7.56-2.25-11.72-4.54c-4.05-2.22-7.79-4.86-10.91-7.14c-1.66-1.21-3.33-2.47-4.95-3.69
					c-1.89-1.42-3.84-2.89-5.79-4.31c-3.33-2.4-7.32-5.14-11.62-7.23l-1.77-0.8c-0.19-0.09-0.38-0.17-0.57-0.25l-0.73-0.29
					c-0.15-0.06-0.3-0.12-0.46-0.18c-0.33-0.13-0.66-0.27-1.03-0.39l-1.4-0.48c-0.3-0.11-0.59-0.19-0.84-0.27l-1.42-0.43
					c-0.2-0.06-0.39-0.11-0.59-0.16l-1.7-0.44l-1.57-0.36c-3.52-0.77-7.29-1.31-12.23-1.77c-1.78-0.17-3.58-0.31-5.33-0.45
					c-2.19-0.17-4.46-0.35-6.67-0.58c-2.23-0.23-4.08-0.48-5.81-0.77c-2.04-0.35-3.86-0.78-5.57-1.3c-2.04-0.63-3.91-1.41-5.54-2.34
					c-1.72-0.97-3.29-2.15-4.66-3.51l-0.07-0.07c-7.09-7.1-13.49-14.89-19.01-23.15c-5.57-8.32-10.33-17.22-14.16-26.47
					c-3.82-9.23-6.75-18.9-8.69-28.73c-1.94-9.81-2.93-19.86-2.93-29.88c0-5.41,0.3-10.87,0.87-16.24c0.46-4.37,1.11-8.7,1.91-12.85
					c0.82-4.24,1.83-8.49,3.01-12.65c1.18-4.19,2.55-8.34,4.05-12.35c1.53-4.04,3.25-8.06,5.11-11.96
					c7.39-15.54,17.46-29.75,29.91-42.23L264.76,431.72z"/>
				<path class="st5" d="M529.21,499.27l-0.06-0.24c-1.51-5.88-3.5-11.73-5.93-17.38c-2.36-5.49-5.21-11-8.47-16.37
					c-3.86-6.3-8.45-12.68-13.64-18.96c-4.66-5.64-9.8-11.22-15.72-17.07l-0.82-0.8c-6.7-6.58-13.63-13.37-20.99-19.54
					c-4.18-3.5-8.12-6.47-12.03-9.09c-4.34-2.9-8.75-5.41-13.11-7.44l-0.13-0.06c-9.9-4.55-20.42-7.88-31.27-9.91
					c-10.06-1.87-20.72-2.77-32.57-2.78l-4.63,0.05l-4.68,0.14h-0.12c-6.68,0.28-13.19,0.88-19.35,1.8
					c-4.23,0.65-7.92,1.35-11.27,2.13l-1.38,0.31c-0.32,0.07-0.64,0.15-0.96,0.24l-3.21,0.82l-0.08,0.02
					c-0.49,0.14-0.98,0.28-1.47,0.42c-1.31,0.37-2.67,0.75-4.01,1.19c-6.79,2.09-13.73,4.81-21.21,8.31l-0.13,0.06
					c-7.65,3.6-15.34,8.15-22.88,13.53c-7.26,5.2-14.07,10.95-20.24,17.11l-0.05,0.05c-12.15,12.14-22.21,26.02-29.91,41.24
					l-0.44,0.86l-0.99,2.04c-0.14,0.3-0.28,0.6-0.43,0.89c-0.31,0.65-0.64,1.33-0.93,2l-1.28,2.87l-1.25,2.99
					c-1.6,3.93-3.07,7.97-4.37,12.02c-1.24,3.87-2.36,7.91-3.4,12.35l-0.19,0.84l-1.14,5.38l-0.57,3.13
					c-0.08,0.42-0.15,0.85-0.21,1.27l-0.3,1.95c-0.03,0.17-0.05,0.34-0.08,0.5c-0.06,0.35-0.11,0.69-0.15,1.03l-0.3,2.24
					c-0.1,0.76-0.21,1.54-0.28,2.31l-0.11,1.06c-0.07,0.65-0.14,1.3-0.21,1.96l-0.26,3.07c-0.3,4.05-0.45,8.16-0.47,12.23
					c0,10.57,1.04,21.17,3.09,31.52c2.05,10.37,5.14,20.57,9.17,30.32c4.04,9.76,9.06,19.15,14.94,27.93
					c5.84,8.72,12.59,16.94,20.08,24.44l2.82,2.72c0.15,0.15,0.31,0.3,0.49,0.46l1.98,1.77c7.36,6.52,15.77,12.4,24.96,17.45
					c8.01,4.43,16.98,8.54,27.43,12.58l0.08,0.03c8.67,3.33,16.49,5.87,23.89,7.77c8.78,2.24,16.91,3.57,24.87,4.06l4.29,0.19
					l4.22,0.06h0.04c11.22-0.01,22.48-1.34,33.5-3.96c4.6-1.12,8.8-2.32,12.85-3.7c4.2-1.45,8.34-3.09,12.32-4.88l3.72-1.79
					l0.08-0.04c2.18-1.14,5.84-3.06,10.46-6.08c5.19-3.4,10.57-7.49,15.97-12.14c6-5.16,12.74-11.67,20.04-19.34
					c6.53-6.87,12.49-13.93,17.74-20.99c3.98-5.38,7.56-10.72,10.94-16.34c2.52-4.2,4.32-7.57,5.51-9.8l1.97-3.83l0.11-0.23
					c2.34-4.73,4.45-9.62,6.26-14.56c1.78-4.87,3.32-10,4.59-15.24c1.2-5.03,2.15-10.29,2.82-15.67c0.62-5.16,0.97-10.5,1.03-15.88
					c0.11-12.47-1.42-25.11-4.55-37.57L529.21,499.27z M339.25,676.02c-1.77-1.24-3.6-2.52-5.43-3.76
					c-3.35-2.26-7.33-4.84-11.59-6.85l-0.14-0.07c-2-0.92-4.03-1.72-6.05-2.4c-2.03-0.67-4.11-1.25-6.21-1.75
					c-1.99-0.46-4.03-0.87-6.26-1.24c-1.87-0.31-3.91-0.61-6.24-0.92c-1.17-0.16-2.34-0.31-3.51-0.45
					c-2.88-0.37-5.86-0.75-8.75-1.23c-4.69-0.78-8.34-1.73-11.52-3.01c-3.38-1.33-6.51-3.35-9.01-5.81l-0.09-0.09
					c-7.09-7.11-13.49-14.91-19.03-23.17c-5.58-8.33-10.36-17.26-14.19-26.52c-3.83-9.25-6.76-18.94-8.71-28.79
					c-1.95-9.83-2.94-19.91-2.94-29.94c0-5.59,0.32-11.23,0.93-16.78c0.47-4.28,1.12-8.59,1.94-12.82c0.79-4.08,1.81-8.32,3.03-12.6
					c1.18-4.14,2.55-8.28,4.07-12.31c1.48-3.9,3.2-7.91,5.11-11.9c1.89-3.94,3.94-7.79,6.09-11.44c2.19-3.7,4.56-7.36,7.05-10.87
					l0.71-0.99l3.15-4.22l2.05-2.58c0.21-0.28,0.44-0.54,0.67-0.81l1.37-1.63c2.77-3.26,5.71-6.47,8.75-9.53l0.13-0.13v-0.02
					c3.61-3.55,7.73-7.11,12.95-11.17c4.6-3.57,9.37-6.95,14.16-10.04c5.34-3.44,10.25-6.25,15-8.6c2.76-1.36,5.32-2.5,7.84-3.47
					c2.87-1.11,5.49-1.95,8.03-2.55l4.03-0.91c0.86-0.18,1.73-0.35,2.59-0.52c0.47-0.09,0.93-0.18,1.4-0.27l3.22-0.52
					c0.08-0.01,0.16-0.03,0.24-0.04l2.56-0.3l1.95-0.15h0.06c0.88-0.08,1.79-0.09,2.75-0.1c0.34,0,0.68,0,1.01-0.01
					c2.36,0.04,4.86,0.26,7.83,0.66l2.01,0.29l6.1,0.96c5.48,0.85,11.03,1.53,16.5,2.01l2.19,0.15l2.24,0.08h0.05
					c2.7,0.04,5.53-0.09,8.42-0.4c2.97-0.31,5.82-0.78,8.21-1.19c0.77-0.13,1.54-0.27,2.31-0.41c1.85-0.33,3.77-0.67,5.65-0.94
					c2.99-0.44,5.45-0.65,7.75-0.68c1.91-0.01,3.79,0.11,5.59,0.38h0.04c0.81,0.11,1.65,0.29,2.53,0.47l1.57,0.39h0.06
					c0.14,0.05,0.27,0.09,0.41,0.13l1.5,0.47l0.62,0.23c0.18,0.07,0.36,0.13,0.53,0.2c0.27,0.1,0.53,0.19,0.77,0.29l0.57,0.24
					c0.72,0.3,1.39,0.59,2.02,0.91l0.08,0.04c1.72,0.8,3.38,1.78,4.93,2.72l0.08,0.05c2.21,1.4,4.21,3.23,5.94,5.46
					c1.58,2.03,2.98,4.4,4.27,7.24c1.07,2.35,2.03,4.94,3.04,8.16c0.9,2.87,1.69,5.81,2.43,8.58l0.45,1.7
					c1.39,5.23,2.83,10.64,4.87,15.83c1.28,3.26,2.65,6.03,4.2,8.49c1.82,2.91,3.93,5.41,6.28,7.44c1.43,1.24,3.03,2.45,4.75,3.58
					c1.52,1,3.17,1.97,5.05,2.97c3.5,1.85,7.08,3.4,10.43,4.79c1.24,0.52,2.49,1.02,3.74,1.53c2.89,1.18,5.88,2.39,8.75,3.69
					c4.84,2.19,8.37,4.15,11.42,6.37c1.8,1.31,3.42,2.71,4.79,4.16c1.48,1.55,2.75,3.22,3.79,4.95l0.04,0.06
					c0.17,0.26,0.33,0.56,0.5,0.88c0.08,0.14,0.16,0.28,0.23,0.42c0.08,0.15,0.15,0.3,0.23,0.45c0.16,0.32,0.31,0.61,0.43,0.89
					l0.04,0.09c0.45,0.96,0.83,2,1.15,2.9c0.64,1.94,1.13,4.02,1.44,6.17c0.47,3.29,0.71,6.5,0.73,9.51
					c0.02,2.97-0.19,5.86-0.6,8.61l0,0c-0.43,2.86-1.11,5.66-2.02,8.33c-0.91,2.67-2.08,5.3-3.48,7.82
					c-1.35,2.43-2.96,4.84-4.79,7.16c-1.7,2.17-3.66,4.35-5.82,6.48c-1.85,1.83-4,3.73-6.57,5.8c-4.14,3.34-8.77,6.52-14.56,10.02
					l-3,1.77c-1.84,1.09-4.64,2.69-9.05,5.19c-1.02,0.58-2.1,1.19-3.25,1.85l-0.61,0.35c-0.38,0.22-0.77,0.44-1.17,0.68l-1.8,1.07
					c-0.59,0.34-1.16,0.71-1.72,1.06l-1.41,0.89c-0.13,0.08-0.25,0.16-0.4,0.26l-1.2,0.81c-0.44,0.3-0.89,0.6-1.34,0.91l-2.12,1.57
					l-0.04,0.03c-3.1,2.39-5.99,5.12-8.6,8.1c-2.63,3-5.26,6.54-8.02,10.81c-1.54,2.41-2.91,5.12-4.2,8.31
					c-0.97,2.42-1.85,4.98-2.75,8.08c-1.53,5.27-2.61,10.31-3.52,14.62c-0.43,2.05-0.82,4.02-1.21,5.92
					c-0.45,2.25-0.88,4.37-1.31,6.39c-0.83,3.94-1.59,7.16-2.33,9.86c-0.78,2.85-1.58,5.32-2.38,7.34c-0.39,0.99-0.79,1.91-1.17,2.7
					c-0.45,0.92-0.79,1.57-1.12,2.12c-0.55,0.95-1.12,1.8-1.7,2.52l-0.04,0.06c-0.12,0.16-0.23,0.28-0.32,0.38
					c-0.05,0.06-0.1,0.12-0.15,0.17l-0.16,0.19c-2.68,2.96-6.06,5.65-10.02,7.99c-2.33,1.36-4.87,2.61-7.56,3.7l-1.96,0.76
					c-0.43,0.16-0.85,0.31-1.28,0.46c-0.24,0.08-0.47,0.16-0.71,0.25l-0.67,0.21c-0.45,0.14-0.89,0.29-1.32,0.42l-1.07,0.31
					c-0.32,0.09-0.63,0.18-0.95,0.27h-0.04c-2.72,0.74-5.51,1.33-8.3,1.75c-2.82,0.42-5.66,0.67-8.39,0.73
					c-1.18,0.01-2.72,0.01-4.23-0.09c-1.51-0.1-2.85-0.26-4.08-0.48l-0.11-0.02c-3.7-0.68-7.52-2.04-11.67-4.13
					c-4.14-2.09-8.07-4.66-11.03-6.66c-1.82-1.23-3.66-2.52-5.43-3.76L339.25,676.02z"/>
				<path class="st6" d="M532.71,530.51c-0.07-5.12-0.43-10.29-1.07-15.38l0,0c-0.64-4.99-1.57-10.04-2.74-15.05l-0.02-0.09
					c0,0,0-0.01,0-0.02l-0.03-0.13c-1.53-6.36-3.78-12.63-6.69-18.62c-2.73-5.63-6.18-11.32-10.28-16.93
					c-3.81-5.21-8.3-10.58-13.74-16.39c-4.88-5.22-10.04-10.29-14.9-15l-0.05-0.05c-3.69-3.58-7.26-7.37-10.31-10.65l-1.56-1.68
					c-2.85-3.06-5.79-6.22-8.8-9.26c-4.16-4.2-7.77-7.47-11.36-10.29c-4.28-3.37-8.67-6.16-13.06-8.29l-0.11-0.05
					c-4.88-2.34-9.92-4.32-14.96-5.89c-2.64-0.84-5.3-1.51-7.77-2.11l-3.91-0.84l-3.97-0.7h-0.04c-9.06-1.46-18.85-2.08-31.77-2.01
					l-9.14,0.14l-4.23,0.13l-4.22,0.21l-4.23,0.3l-1.45,0.13c-0.32,0.03-0.65,0.06-0.97,0.09c-0.61,0.05-1.23,0.11-1.85,0.18
					l-2.77,0.32l-2.82,0.38c-6.56,0.91-13.35,2.39-20.2,4.4c-6.18,1.85-12.49,4.18-19.31,7.13c-4.08,1.78-8.14,3.84-12.42,6.31
					c-3.91,2.26-7.84,4.77-11.68,7.47c-3.76,2.64-7.46,5.47-10.99,8.41c-3.63,3.02-7.05,6.13-10.18,9.25l-0.08,0.08
					c0,0-0.01,0.01-0.02,0.02l0,0c-12.23,12.23-22.34,26.22-30.06,41.58c-1.92,3.83-3.71,7.78-5.33,11.74
					c-1.6,3.97-3.06,8.04-4.36,12.15c-0.11,0.35-0.22,0.71-0.33,1.06c-0.21,0.67-0.42,1.34-0.61,2.02l-0.86,3.05l-0.07,0.26
					c-0.51,1.97-1.05,4-1.5,6.03c-0.99,4.33-1.79,8.59-2.38,12.67c-0.56,3.96-1,7.89-1.28,11.7c-0.27,3.89-0.41,7.84-0.43,11.75
					c0,10.54,1.04,21.13,3.09,31.46c2.05,10.35,5.13,20.53,9.16,30.26c4.03,9.74,9.05,19.12,14.91,27.87
					c5.82,8.69,12.55,16.89,20.01,24.36l2.82,2.7c0.16,0.16,0.32,0.31,0.51,0.48l1.97,1.72c7.1,6.09,15.39,11.43,25.33,16.33
					c9.05,4.47,18.33,8.14,27.3,11.69h0.03c8.29,3.28,15.79,6.18,23.61,8.57c9.11,2.79,17.25,4.43,24.9,4.99l4.11,0.23l4.06,0.09
					h0.05c0.16,0,0.31,0,0.47,0c10.95,0,21.95-1.4,32.7-4.17c4.4-1.16,8.59-2.47,12.48-3.91c4.11-1.55,8.11-3.31,11.89-5.21
					l0.98-0.52c0.62-0.32,1.51-0.81,2.71-1.51l0.94-0.56l0.5-0.32l1.65-1.01l1.26-0.84c1.91-1.3,3.8-2.74,5.68-4.25
					c2.21-1.77,4.51-3.77,6.85-5.95c2.54-2.38,5.16-4.99,7.78-7.75c3.04-3.19,6.25-6.75,8.7-9.49c1.01-1.13,2.04-2.29,3.09-3.47
					c2.15-2.42,4.37-4.91,6.73-7.51c6.6-7.3,12.44-14.18,17.36-20.44c4.1-5.22,7.81-10.29,11.35-15.5c2.64-3.89,4.53-6.91,5.91-9.11
					l2.36-3.86c5.97-10,10.47-20.5,13.36-31.19c2.95-10.85,4.39-22.18,4.28-33.68L532.71,530.51z M338.3,677.41
					c-1.61-1.05-3.28-2.13-4.94-3.17c-3.54-2.23-7.4-4.56-11.6-6.5l-0.1-0.05l0,0h-0.03c-1.97-0.9-4.04-1.72-6.17-2.45
					c-1.96-0.66-4.03-1.27-6.34-1.87c-4-1.02-8-1.78-12.76-2.62l-1.49-0.26c-3.63-0.64-7.37-1.3-10.99-2.14
					c-4.67-1.09-8.35-2.35-11.58-3.94c-1.39-0.69-2.82-1.54-4.24-2.52c-1.25-0.89-2.48-1.92-3.77-3.17
					c-7.13-7.14-13.57-14.97-19.12-23.28c-5.59-8.35-10.38-17.29-14.22-26.58c-3.84-9.27-6.78-18.98-8.73-28.85
					c-1.95-9.85-2.94-19.95-2.95-30c0.01-5.81,0.35-11.68,0.99-17.44c1.95-17.26,6.75-33.87,14.25-49.39
					c1.86-3.86,3.91-7.69,6.09-11.38c2.16-3.64,4.53-7.28,7.05-10.83c4.76-6.72,10.35-13.35,16.64-19.68l0,0
					c3.57-3.55,7.58-7.04,12.61-10.97c4.39-3.43,8.99-6.71,13.66-9.76c5.13-3.33,9.86-6.08,14.47-8.4c2.65-1.33,5.12-2.46,7.55-3.44
					c2.77-1.11,5.3-1.97,7.72-2.61l0,0c0.55-0.14,1.09-0.27,1.64-0.41c0.98-0.24,1.95-0.49,2.93-0.72l2.31-0.51l4.54-0.9l2.27-0.35
					c0.16-0.02,0.31-0.05,0.47-0.07c0.19-0.03,0.39-0.06,0.58-0.08l1.72-0.19c0.6-0.07,1.17-0.13,1.71-0.15l1.57-0.1
					c0.24-0.02,0.48-0.03,0.66-0.03h0.03l2.35-0.04c4.52,0.04,9.14,0.55,13.61,1.04l1.48,0.16c5.65,0.63,10.71,1.1,15.47,1.45
					l2.21,0.13l2.25,0.06h0.04c2.62,0.03,5.29-0.07,8.16-0.31c2.89-0.24,5.67-0.59,8.01-0.91c0.67-0.09,1.34-0.18,2.01-0.27
					c4.42-0.6,9-1.23,13.46-1.27c2.14-0.02,4.22,0.11,6.19,0.37c2.01,0.27,4.04,0.7,6.03,1.28c1.78,0.52,3.66,1.23,5.77,2.19
					l1.43,0.68c0.29,0.15,0.58,0.3,0.87,0.45l1.07,0.56l2.19,1.27c2.18,1.33,4.19,3.06,5.97,5.14c1.64,1.91,3.11,4.13,4.51,6.78
					c1.17,2.22,2.25,4.67,3.4,7.7c1.05,2.77,2.02,5.65,2.84,8.14l0.63,1.9c1.6,4.88,3.26,9.92,5.42,14.75
					c1.37,3.06,2.8,5.69,4.37,8.03c1.82,2.73,3.88,5.12,6.12,7.1l0,0c2.88,2.54,6.27,4.91,10.35,7.27c3.55,2.05,7.21,3.87,10.96,5.7
					l1.31,0.64c3.41,1.66,6.93,3.38,10.28,5.24c4.32,2.4,7.63,4.64,10.44,7.05c0.85,0.73,1.59,1.42,2.25,2.09l0.03,0.03
					c0.26,0.25,0.52,0.53,0.79,0.82l0.76,0.84l0.49,0.58c1.28,1.52,2.44,3.21,3.43,4.99c1,1.83,1.82,3.7,2.43,5.58
					c0.62,1.9,1.1,3.91,1.42,5.96l0.02,0.1c0.64,4.18,0.96,8.27,0.96,12.14c-0.03,5.88-0.86,11.49-2.46,16.69l0,0
					c-1.64,5.34-4.12,10.44-7.37,15.15c-1.54,2.25-3.31,4.51-5.23,6.7l-1.45,1.61l-1.51,1.56l-2.29,2.25
					c-0.16,0.15-0.32,0.3-0.48,0.44l-0.3,0.28c-3.81,3.54-8.24,7.04-13.57,10.72l-2.89,1.96c-1.97,1.33-5,3.33-8.77,5.82
					c-0.45,0.3-0.92,0.61-1.4,0.93c-3.64,2.42-8.18,5.43-13.07,9.5c-2.98,2.53-5.8,5.31-8.38,8.27c-2.69,3.08-5.36,6.58-8.17,10.73
					c-1.57,2.34-2.99,4.91-4.33,7.84c-1.04,2.28-2.04,4.78-3.04,7.63c-0.37,1.03-0.71,2.06-1.03,3.04l-0.46,1.42
					c-0.28,0.91-0.58,1.85-0.84,2.75c-0.71,2.38-1.36,4.72-1.9,6.7c-0.42,1.55-0.83,3.05-1.22,4.51c-0.69,2.54-1.33,4.95-1.97,7.19
					c-1.06,3.73-2.01,6.78-2.91,9.33c-0.92,2.6-1.87,4.91-2.83,6.87l-0.02,0.04c-0.35,0.74-0.73,1.43-1.1,2.1l-0.21,0.37
					c-0.12,0.19-0.23,0.38-0.34,0.56c-0.32,0.52-0.59,0.97-0.84,1.31l-0.59,0.84l-0.95,1.19c-0.06,0.07-0.12,0.13-0.18,0.19
					l-0.86,0.93c-3.33,3.29-7.49,6.2-12.36,8.65c-4.6,2.31-9.7,4.16-15.17,5.49c-2.59,0.63-5.26,1.14-7.96,1.5
					c-2.73,0.37-5.44,0.59-8.03,0.65c-1.79,0.02-3.17,0-4.46-0.08c-1.6-0.1-3.03-0.25-4.38-0.47h-0.01h-0.03
					c-3.71-0.61-7.54-1.84-11.71-3.76c-4.22-1.94-8.17-4.31-11.14-6.16c-2.02-1.26-4.07-2.58-6.04-3.86L338.3,677.41z"/>
				<path class="st7" d="M528.57,500.79l-0.02-0.09c-0.78-3.46-1.81-6.88-3.06-10.16c-1.24-3.25-2.75-6.51-4.51-9.69
					c-3.17-5.74-7.19-11.37-12.3-17.21c-4.65-5.32-9.72-10.26-13.61-13.96c-2.22-2.11-4.5-4.24-6.7-6.29
					c-2.39-2.23-4.87-4.54-7.27-6.83l-0.06-0.05c-3.09-2.96-6.28-6.45-10.03-10.99c-1.6-1.94-3.21-3.94-4.76-5.88
					c-1.57-1.96-3.2-3.99-4.83-5.97c-2.73-3.3-6.4-7.58-10.63-11.46c-4.19-3.86-8.59-6.97-13.07-9.23l-0.05-0.03
					c-4.18-2.1-8.36-3.84-12.43-5.18c-2.3-0.76-4.43-1.38-6.5-1.89c-2.34-0.59-4.51-1.05-6.6-1.41c-4.11-0.74-8.47-1.25-13.34-1.58
					c-2.16-0.14-4.39-0.24-6.65-0.31c-2.08-0.06-4.25-0.09-6.62-0.1c-3.63-0.01-7.32,0.03-10.88,0.07
					c-2.32,0.03-4.64,0.05-6.97,0.07c-4.74,0.04-8.88,0.15-12.67,0.34c-4.56,0.25-8.72,0.62-12.73,1.15l-2.24,0.3l-2.31,0.38
					l-4.55,0.84c-0.49,0.1-0.99,0.21-1.48,0.32c-0.26,0.06-0.51,0.12-0.79,0.18c-0.2,0.05-0.41,0.09-0.61,0.14
					c-0.55,0.12-1.11,0.25-1.66,0.39l-0.86,0.22c-1.18,0.3-2.4,0.61-3.58,0.96c-5.41,1.53-11.03,3.47-17.19,5.94l-0.18,0.07
					c-4.22,1.7-8.5,3.78-13.08,6.35c-4.05,2.27-8.16,4.85-12.24,7.67c-3.94,2.73-7.81,5.65-11.5,8.68
					c-3.87,3.18-7.47,6.43-10.7,9.64l-0.06,0.06c-12.31,12.31-22.47,26.41-30.21,41.9c-1.92,3.86-3.71,7.84-5.33,11.85l-1.16,2.97
					l-1.12,3.06l-1.23,3.61c-0.12,0.34-0.23,0.68-0.35,1.05l-0.47,1.51c-2.51,8.04-4.42,16.56-5.67,25.33l-0.36,2.75
					c-0.08,0.61-0.15,1.23-0.21,1.85c-0.03,0.32-0.07,0.64-0.1,0.97l-0.15,1.38l-0.12,1.46c-0.03,0.32-0.05,0.64-0.08,0.96
					c-0.05,0.61-0.1,1.22-0.15,1.83c-0.25,3.59-0.38,7.27-0.4,11.27c0,10.52,1.04,21.09,3.08,31.39
					c2.05,10.33,5.12,20.49,9.14,30.19c4.02,9.72,9.03,19.08,14.88,27.82c5.81,8.69,12.54,16.88,20,24.35l0.03,0.03
					c1.71,1.7,3.53,3.35,5.42,4.9c1.89,1.56,3.92,3.07,6.02,4.51c1.97,1.34,4.1,2.67,6.35,3.95c3.94,2.25,8.28,4.41,13.27,6.59
					c5.49,2.4,11.14,4.58,16.6,6.68c3.42,1.32,6.95,2.68,10.37,4.07l0.07,0.03c2.34,0.95,4.73,1.94,7.03,2.9
					c5.29,2.2,10.77,4.48,16.29,6.45c4.42,1.58,8.42,2.81,12.23,3.76c4.39,1.09,8.66,1.82,12.69,2.18l3.94,0.26l3.91,0.11h0.05
					c0.32,0,0.63,0,0.95,0c5.18,0,10.48-0.36,15.78-1.08c5.56-0.75,11.08-1.89,16.42-3.39c3.99-1.14,8-2.51,11.92-4.08l0.04-0.02
					c3.97-1.65,7.79-3.51,11.36-5.51l0.91-0.54c0.65-0.37,1.54-0.94,2.65-1.69l0.05-0.04c0.14-0.1,0.29-0.2,0.45-0.31
					c0.44-0.3,0.93-0.64,1.44-1.04c0.11-0.08,0.22-0.16,0.33-0.25c0.25-0.18,0.5-0.37,0.76-0.57l1.15-0.91
					c1.78-1.46,3.58-3.07,5.34-4.8c2.06-2.01,4.16-4.26,6.24-6.66c2.14-2.47,4.43-5.25,6.98-8.52c1.58-2.01,3.21-4.13,4.93-6.38
					c0.95-1.24,1.93-2.51,2.93-3.81c2.65-3.43,5.77-7.41,9.22-11.41l0.89-1.04c6.19-7.19,11.53-13.4,16.11-18.89
					c4.37-5.24,8.33-10.17,11.77-14.65c2.78-3.61,4.83-6.42,6.32-8.46l2.61-3.64l1.83-2.65l1.77-2.72l1.33-2.17
					c0.13-0.21,0.26-0.43,0.4-0.66l0.53-0.92c0.12-0.21,0.24-0.42,0.36-0.63c0.24-0.41,0.48-0.82,0.72-1.26l0.46-0.85
					c0.52-0.96,1.06-1.95,1.55-2.94l0.48-0.94l1.4-2.93c0.2-0.44,0.4-0.88,0.59-1.32c0.1-0.22,0.19-0.44,0.3-0.68l0.44-0.99
					c0.1-0.23,0.19-0.45,0.28-0.68l0.93-2.3l0.76-2.01c0.21-0.54,0.39-1.07,0.57-1.58l0.18-0.53c0.07-0.2,0.13-0.39,0.2-0.59
					c0.17-0.48,0.34-0.98,0.48-1.47l0.63-2.02v-0.04c0.14-0.45,0.27-0.89,0.39-1.34l0.3-1.08c0.07-0.24,0.14-0.48,0.2-0.74
					l0.26-1.04c0.06-0.23,0.12-0.46,0.18-0.7c0.12-0.45,0.23-0.92,0.34-1.4c0.6-2.57,1.13-5.34,1.62-8.5c0.4-2.68,0.7-5.5,0.93-8.62
					c0.18-2.73,0.26-5.64,0.25-8.65c-0.09-8.71-1.16-17.71-3.18-26.75L528.57,500.79z M520.88,536.59
					c-1.44,5.21-3.65,10.34-6.55,15.25c-2.81,4.68-6.23,9.16-10.17,13.34c-3.5,3.76-7.6,7.48-12.54,11.38l-2.77,2.16l-8.43,6.45
					c-2.2,1.68-4.27,3.29-6.34,4.93c-2.02,1.62-4.69,3.82-7.54,6.41c-2.83,2.59-5.59,5.43-8.22,8.45
					c-2.72,3.12-5.52,6.71-8.33,10.66c-1.57,2.21-3.03,4.63-4.46,7.41c-1.12,2.17-2.21,4.53-3.34,7.21c-1.08,2.55-2,4.99-2.67,6.83
					c-0.81,2.18-1.53,4.25-2.27,6.35c-0.34,0.98-0.67,1.94-1,2.88c-1.01,2.92-1.96,5.67-2.89,8.19c-1.27,3.49-2.42,6.36-3.5,8.78
					c-2.6,5.85-4.93,9.07-6.08,10.48c-0.09,0.11-0.18,0.22-0.26,0.32c-0.1,0.13-0.2,0.26-0.29,0.35l-0.87,0.95l-1.27,1.23
					c-2.06,1.82-4.39,3.53-6.92,5.09c-2.35,1.45-4.94,2.8-7.72,4.02c-4.58,2-9.54,3.6-14.75,4.74c-5.19,1.13-10.37,1.76-15.37,1.88
					c-1.82,0.03-3.31,0-4.69-0.07c-1.67-0.09-3.18-0.24-4.63-0.45h-0.02c-3.73-0.55-7.57-1.66-11.75-3.41
					c-3.36-1.4-6.83-3.15-11.26-5.66c-2.3-1.31-4.62-2.69-6.87-4.03c-1.41-0.84-2.82-1.68-4.24-2.51
					c-3.57-2.09-7.43-4.27-11.52-6.11l-0.15-0.07c-2.01-0.89-4.15-1.73-6.34-2.5c-1.89-0.66-3.94-1.3-6.47-2
					c-4-1.11-8.08-2.03-12.03-2.91l-1.27-0.29c-4.07-0.92-8.28-1.87-12.31-3.09c-2.21-0.67-4.18-1.36-6.01-2.11
					c-2.09-0.85-3.92-1.75-5.62-2.75c-2.57-1.5-4.96-3.32-7.08-5.41l-0.03-0.03c-7.14-7.15-13.59-15-19.15-23.31
					c-5.61-8.37-10.4-17.33-14.25-26.63c-3.85-9.29-6.79-19.02-8.75-28.91c-1.96-9.87-2.95-19.99-2.95-30.06
					c0.01-6.06,0.37-12.18,1.07-18.19c0.51-4.24,1.2-8.51,2.04-12.69c0.91-4.47,1.92-8.55,3.08-12.47c1.2-4.09,2.59-8.19,4.11-12.16
					l0.73-1.87c0.14-0.36,0.28-0.73,0.45-1.11l1.02-2.43l1.57-3.53c0.15-0.35,0.31-0.69,0.48-1.02l0.87-1.83
					c1.86-3.83,3.91-7.64,6.09-11.32c2.07-3.5,4.43-7.11,7.03-10.76c4.76-6.71,10.34-13.3,16.58-19.59l0,0
					c3.45-3.43,7.42-6.91,12.13-10.63c4.24-3.34,8.67-6.53,13.16-9.48c4.92-3.23,9.48-5.91,13.93-8.19c2.54-1.3,4.92-2.41,7.27-3.39
					c2.65-1.11,5.09-1.98,7.45-2.65l2.83-0.78c0.81-0.22,1.57-0.43,2.36-0.62l2.62-0.66c0.55-0.13,1.11-0.25,1.66-0.37l0.93-0.2
					c3.82-0.81,7.23-1.33,10.42-1.6c0.31-0.02,0.62-0.04,0.94-0.06c0.55-0.04,1.11-0.08,1.66-0.11l2.63-0.08
					c4.68-0.04,9.46,0.3,14.07,0.63c4.14,0.3,9.3,0.68,14.26,0.97l2.29,0.1l2.29,0.05c5.43,0.04,10.73-0.41,15.66-0.9l1.7-0.17
					c4.42-0.44,8.98-0.89,13.44-0.9c2.41-0.01,4.68,0.13,6.81,0.4c2.25,0.28,4.48,0.73,6.63,1.33c2.14,0.6,4.29,1.36,6.38,2.27
					c1.98,0.88,3.98,1.91,6.11,3.13l0,0c2.15,1.27,4.17,2.9,5.99,4.84c1.69,1.8,3.24,3.87,4.74,6.34c1.26,2.07,2.49,4.43,3.77,7.23
					c1.16,2.55,2.25,5.2,3.25,7.68c0.29,0.72,0.58,1.44,0.86,2.15c1.8,4.5,3.65,9.15,5.91,13.59c1.46,2.87,2.94,5.35,4.53,7.57
					c1.82,2.56,3.81,4.82,5.93,6.73l1.54,1.33c0.16,0.14,0.32,0.27,0.49,0.42l0.66,0.53c0.15,0.12,0.29,0.23,0.44,0.35
					c0.3,0.24,0.6,0.48,0.92,0.72l1.36,1.01c1.9,1.38,3.8,2.67,5.63,3.81c3.14,1.99,6.39,3.86,9.53,5.66
					c0.66,0.38,1.33,0.76,1.99,1.14l0.11,0.06c1.74,1.01,3.54,2.04,5.3,3.11c0.63,0.37,1.25,0.76,1.87,1.15l0.75,0.46
					c0.28,0.19,0.57,0.37,0.86,0.55c0.59,0.38,1.15,0.74,1.69,1.12l0.05,0.03c1.48,0.98,3.03,2.11,4.89,3.57
					c0.22,0.18,0.44,0.37,0.66,0.55c0.57,0.47,1.11,0.91,1.62,1.39c0.15,0.14,0.3,0.27,0.45,0.4c0.22,0.2,0.44,0.39,0.65,0.6
					l1.13,1.11l0.04,0.04c0.19,0.18,0.4,0.41,0.62,0.65c0.12,0.13,0.23,0.25,0.33,0.36l0.54,0.58l1.44,1.71l1.42,1.9
					c0,0,0.05,0.06,0.07,0.09l1.15,1.76c0,0,0.04,0.06,0.06,0.09l0.57,1.01l0.7,1.28c1.74,3.44,2.97,7.22,3.66,11.23l0,0
					c0.44,2.71,0.76,5.18,0.97,7.52c0.21,2.58,0.31,5.13,0.29,7.56c-0.08,5.74-0.85,11.28-2.28,16.48L520.88,536.59z"/>
				<path d="M528.28,501.7l-0.02-0.09c-0.79-3.75-1.92-7.42-3.34-10.91c-1.41-3.45-3.17-6.85-5.24-10.12
					c-1.94-3.07-4.21-6.13-6.76-9.08c-2.26-2.63-4.78-5.28-7.72-8.09c-4.37-4.18-9.09-8.2-13.25-11.74
					c-4.31-3.67-8.77-7.46-13.04-11.47l-0.02-0.02c-3.23-3.03-6.34-6.65-9.81-11.38c-2.03-2.77-4.01-5.68-5.92-8.49
					c-0.96-1.42-1.93-2.84-2.91-4.25c-2.87-4.15-6.06-8.54-9.86-12.6c-1.96-2.09-3.99-3.97-6.02-5.58c-2.2-1.75-4.53-3.27-6.91-4.53
					l-0.06-0.03c-6.73-3.54-13.73-6.07-20.79-7.51c-3.36-0.71-6.93-1.22-10.92-1.57c-3.17-0.28-6.63-0.42-10.91-0.47
					c-4.11-0.03-8.27,0.06-12.29,0.14h-0.71c-4.09,0.1-8.46,0.17-12.77,0.13l-4.39-0.03h-4.32c-3.45,0.06-6.55,0.11-9.66,0.28
					l-4.81,0.31c-0.43,0.03-0.87,0.07-1.29,0.11l-1.69,0.17c-0.64,0.06-1.3,0.13-1.97,0.22c-2.66,0.32-5.33,0.74-8,1.25
					c-1.31,0.07-3.6,0.57-6.59,1.47c-0.51,0.13-1.02,0.26-1.53,0.39c-4.63,1.23-9.53,2.81-15.39,4.96l-0.18,0.07
					c-4.37,1.63-8.85,3.71-13.72,6.37c-4.22,2.31-8.4,4.88-12.79,7.87c-4.11,2.81-8.16,5.82-12.02,8.95
					c-4.14,3.37-7.78,6.62-11.13,9.94l-0.11,0.11c-12.39,12.4-22.61,26.6-30.36,42.23c-1.92,3.89-3.7,7.9-5.31,11.94l-0.75,1.93
					c-0.15,0.38-0.3,0.77-0.43,1.13l-1.1,3.02l-1.05,3.11l-0.99,3.13c-1.26,4.15-2.38,8.4-3.31,12.64
					c-0.91,4.21-1.67,8.54-2.25,12.85c-0.44,3.16-0.79,6.58-1.09,10.78l-0.16,2.66c-0.03,0.59-0.05,1.19-0.07,1.78
					c-0.01,0.31-0.02,0.61-0.03,0.93l-0.05,1.33c-0.01,0.31-0.01,0.61-0.02,0.92l-0.04,3.15c0,10.5,1.04,21.04,3.08,31.33
					c0.53,2.66,1.12,5.3,1.78,7.93c3.39,13.92,8.67,27.15,15.8,39.59c2,3.54,4.13,7.01,6.39,10.38
					c5.81,8.68,12.53,16.86,19.99,24.32l0.08,0.08c1.78,1.77,3.71,3.46,5.72,5.03c3.66,2.85,7.87,5.49,12.52,7.84
					c3.83,1.94,8.06,3.77,13.33,5.79c3.44,1.31,6.94,2.55,10.33,3.75c1.04,0.37,2.07,0.74,3.11,1.11c3.93,1.4,8.57,3.09,13.16,5
					h0.03c3.68,1.54,7.4,3.23,10.99,4.86c3.92,1.78,7.97,3.61,12.04,5.28c4.47,1.83,8.44,3.24,12.15,4.32
					c4.51,1.31,8.69,2.14,12.8,2.56l3.76,0.29l3.76,0.14h0.06c0.42,0,0.83,0,1.25,0c5.12,0,10.37-0.39,15.65-1.17
					c5.63-0.83,11.19-2.09,16.54-3.74l2.79-0.89l0.07-0.02c0.61-0.21,1.21-0.44,1.82-0.66c0.32-0.12,0.64-0.24,0.98-0.36l0.47-0.17
					c0.31-0.11,0.63-0.23,0.94-0.35l3.55-1.48c0.1-0.04,0.2-0.08,0.29-0.13l3.69-1.74l3.35-1.78l3.89-2.31l1.16-0.77
					c0.26-0.17,0.58-0.39,0.95-0.67l2.29-1.77c0.25-0.2,0.47-0.39,0.69-0.58c0.1-0.08,0.19-0.17,0.28-0.25
					c0.58-0.49,1.14-1.02,1.74-1.58l0.44-0.41c1.64-1.59,3.3-3.4,4.94-5.35c3.23-3.83,6.98-9.1,11.8-16.58
					c0.63-0.97,1.27-1.97,1.93-2.99c1.62-2.52,3.3-5.13,5.13-7.87c2.38-3.55,5.27-7.74,8.67-11.88
					c6.25-7.63,11.93-14.11,16.65-19.45c1.34-1.51,2.62-2.95,3.83-4.32c3.23-3.63,6.01-6.77,8.35-9.46
					c3.14-3.59,5.49-6.37,7.05-8.22l2.52-3.02l0.02-0.03c4-4.86,7.32-9.55,10.13-14.31l0.55-0.92l0.57-1.01
					c0.12-0.22,0.24-0.43,0.36-0.65c0.23-0.42,0.47-0.83,0.71-1.29l0.99-1.9l1.45-2.95c0.12-0.24,0.23-0.48,0.33-0.73
					c0.05-0.11,0.09-0.21,0.15-0.34l0.3-0.68c0.2-0.44,0.39-0.87,0.58-1.31l0.84-2.03l0.8-2.08c1.11-2.97,1.99-5.73,2.7-8.41
					l0.09-0.34c0.07-0.25,0.14-0.5,0.2-0.76l0.26-1.06c0.05-0.21,0.1-0.42,0.15-0.63c0.12-0.49,0.25-1,0.35-1.54l0.44-2.08l0.4-2.23
					c0.51-3.07,0.87-5.93,1.09-8.76c0.22-2.88,0.32-5.84,0.3-8.8c-0.07-7.44-0.94-15.21-2.6-23.09L528.28,501.7z M522.15,536.85
					c-0.61,2.76-1.4,5.52-2.34,8.18c-0.97,2.75-2.09,5.39-3.32,7.84c-1.24,2.49-2.67,4.99-4.23,7.42c-1.46,2.25-3.1,4.52-5.01,6.93
					l-1.37,1.68l-1.44,1.67c-0.36,0.43-0.75,0.85-1.16,1.3l-0.98,1.07l-2.24,2.32c-0.32,0.32-0.64,0.64-0.97,0.95
					c-0.19,0.19-0.39,0.38-0.57,0.55l-0.77,0.75c-0.16,0.15-0.32,0.3-0.48,0.45l-1.91,1.76l-2.64,2.36l-9.07,8
					c-3.38,2.98-7.58,6.68-12.26,11.28c-2.71,2.67-5.43,5.57-8.09,8.62c-2.8,3.22-5.66,6.79-8.5,10.61c-1.56,2.09-3.06,4.38-4.58,7
					c-1.19,2.05-2.38,4.28-3.63,6.81c-1.12,2.27-2.12,4.44-3.02,6.45c-0.9,2-1.74,3.93-2.55,5.8l-0.44,1.01
					c-1.49,3.45-2.9,6.71-4.24,9.6c-1.49,3.23-2.83,5.92-4.11,8.21c-2.9,5.26-5.49,8.31-6.78,9.66l-0.06,0.06
					c-0.31,0.34-0.63,0.65-0.93,0.94l-0.42,0.4c-0.08,0.07-0.15,0.14-0.22,0.2l-1.19,1.01c-2.5,1.96-5.18,3.73-7.99,5.27
					c-2.86,1.56-5.83,2.93-8.82,4.08c-4.55,1.75-9.38,3.14-14.38,4.13c-5.01,0.99-10.02,1.55-14.85,1.66
					c-1.84,0.03-3.46,0.01-4.92-0.06c-1.73-0.09-3.33-0.22-4.87-0.42c-3.74-0.49-7.6-1.49-11.8-3.06
					c-3.39-1.27-7.01-2.91-11.37-5.16c-2.67-1.38-5.37-2.85-7.97-4.27c-1.08-0.59-2.16-1.18-3.25-1.77
					c-4.2-2.27-7.77-4.12-11.53-5.76l-0.11-0.05l0,0l-0.07-0.03c-3.91-1.69-8.15-3.22-12.97-4.66c-3.27-0.99-6.62-1.89-9.85-2.77
					c-1.1-0.3-2.2-0.59-3.3-0.9c-4.1-1.12-8.48-2.37-12.75-3.96c-4.49-1.66-8.29-3.53-11.63-5.73c-2.32-1.53-4.45-3.26-6.33-5.13
					l0,0c-2.29-2.3-4.5-4.67-6.64-7.1c-5.46-9.44,8.03-19.6,0.47-32.83c-11.72-20.52-17.67-43.72-17.67-68.96
					s5.94-48.44,17.67-68.95c11.69-20.46,27.65-36.91,47.44-48.89c9.95-6.02,17.73-26.67,28.77-29.7c0,0-0.02,0-0.03-0.01
					c1.9-0.31,3.78-0.56,5.61-0.73c2.8-0.25,5.73-0.38,8.95-0.4c3.8,0,7.56,0.13,11.38,0.29l11.49,0.5l2.24,0.07l2.29,0.03
					c5.05,0,9.98-0.28,14.14-0.56l1.64-0.11c4-0.27,8.13-0.55,12.16-0.58c2.89-0.02,5.5,0.09,7.97,0.34
					c2.68,0.27,5.29,0.71,7.77,1.32c2.51,0.62,5.02,1.44,7.47,2.44c2.33,0.95,4.73,2.12,7.12,3.47c2.13,1.21,4.16,2.74,6.02,4.54
					c1.74,1.68,3.37,3.61,4.97,5.89c3.06,4.36,5.43,9.1,7.79,13.96c0.41,0.85,0.82,1.69,1.22,2.54c1.95,4.06,3.97,8.26,6.28,12.27
					c1.55,2.69,3.08,5.02,4.67,7.13c1.8,2.39,3.73,4.53,5.74,6.37l0.09,0.08c1.76,1.59,3.69,3.2,5.74,4.79
					c1.83,1.4,3.78,2.83,5.98,4.36c2.42,1.68,4.9,3.33,7.3,4.92c1.6,1.06,3.2,2.13,4.79,3.2c2.9,1.98,6.31,4.35,9.55,6.98
					c0.22,0.18,0.43,0.36,0.65,0.54c0.55,0.45,1.07,0.88,1.58,1.35l0.41,0.36c0.23,0.2,0.46,0.4,0.68,0.6l1.08,1.02l2.03,2.03
					l1.47,1.62c0.09,0.1,0.17,0.2,0.25,0.3l1.12,1.35c0.18,0.23,0.36,0.46,0.53,0.69c0.11,0.15,0.22,0.3,0.34,0.45l0.03,0.04
					c0.4,0.5,0.77,1.06,1.17,1.65c0.15,0.23,0.31,0.46,0.49,0.71c0.09,0.13,0.19,0.29,0.3,0.47l0.79,1.31
					c0.1,0.16,0.2,0.33,0.27,0.46l0.73,1.37c0.05,0.09,0.1,0.18,0.14,0.27c0.04,0.08,0.09,0.16,0.14,0.28l0.33,0.7
					c1.58,3.36,2.74,6.99,3.45,10.79l0.03,0.17c0.48,2.72,0.84,5.23,1.1,7.65c0.27,2.66,0.43,5.3,0.47,7.83
					c0.07,5.93-0.49,11.64-1.66,16.97L522.15,536.85z"/>
			</g>
		</g>
	</g>
</g>
</svg>
