<?xml version="1.0" encoding="utf-8"?>
<!-- Generator: Adobe Illustrator 27.6.1, SVG Export Plug-In . SVG Version: 6.00 Build 0)  -->
<svg version="1.1" id="Capa_1" xmlns="http://www.w3.org/2000/svg" xmlns:xlink="http://www.w3.org/1999/xlink" x="0px" y="0px"
	 viewBox="0 0 1920 1080" style="enable-background:new 0 0 1920 1080;" xml:space="preserve">
<style type="text/css">
	.st0{fill:#FFFFFF;}
	.st1{opacity:0.3;fill:#B2B2B2;enable-background:new    ;}
	.st2{opacity:0.35;fill:#CCCCCC;enable-background:new    ;}
	.st3{opacity:0.45;fill:#B2B2B2;enable-background:new    ;}
	.st4{opacity:0.8;fill:#CCCCCC;enable-background:new    ;}
	.st5{opacity:0.3;fill:#CCCCCC;enable-background:new    ;}
	.st6{opacity:0.5;fill:#B2B2B2;enable-background:new    ;}
	.st7{opacity:0.8;fill:#B2B2B2;enable-background:new    ;}
	.st8{fill:#CCCCCC;}
</style>
<g id="Diseño">
	<g>
		<g>
			<path class="st0" d="M747.79,828.83v29.51h-10.25v-29.51c0-9.63-7.14-12.74-11.29-12.74c-7.46,0-14.39,3.52-14.39,13.77v28.47
				H701.4v-76.62l10.46-3.11v32.72c2.59-3.52,7.25-5.8,14.39-5.8C735.78,805.52,747.79,810.49,747.79,828.83L747.79,828.83z"/>
			<path class="st0" d="M785.68,858.96c-14.7,0-26.61-11.91-26.61-26.61s11.91-26.51,26.61-26.51s26.51,11.8,26.51,26.51
				S800.39,858.96,785.68,858.96z M785.47,849.95c8.8,0,15.95-7.77,15.95-17.4s-7.14-17.4-15.95-17.4s-15.95,7.87-15.95,17.4
				S776.56,849.95,785.47,849.95z"/>
			<path class="st0" d="M868.1,857.31h-10.25v-4.76c-2.59,3.52-7.25,5.8-14.39,5.8c-9.53,0-21.54-4.97-21.54-23.3v-29.51h10.25
				v29.51c0,9.63,7.14,12.74,11.29,12.74c7.46,0,14.39-3.52,14.39-13.77v-28.47h10.25v51.77V857.31z"/>
			<path class="st0" d="M917.49,843.02c0,9.53-8.49,16.26-19.16,16.26s-20.5-6.94-20.5-16.46h10.77c0,3.62,3.93,7.46,9.73,7.46
				s9.01-3.52,9.01-7.14c0-3-2.07-6.42-6.42-7.35l-6.94-1.66c-7.77-2.07-13.15-7.04-13.15-14.19c0-8.18,6.11-14.5,16.15-14.5
				c10.56,0,16.46,5.49,17.5,12.63h-10.35c0-2.48-3.52-4.04-7.14-4.04c-4.45,0-6.42,2.59-6.42,5.8c0,2.38,0.52,4.45,3.42,5.38
				c1.97,0.62,4.04,1.14,6.94,1.76c9.32,1.86,16.57,7.35,16.57,16.05L917.49,843.02z"/>
			<path class="st0" d="M963.16,844.99h12.22c-4.25,8.59-12.84,14.39-23.09,14.39c-14.91,0-26.51-12.11-26.51-26.82
				s11.6-26.92,26.51-26.92s26.09,12.11,26.09,26.92c0,1.35-0.1,2.69-0.31,3.93h-41.42c1.55,7.87,7.77,13.67,15.43,13.67
				c4.45,0,8.28-1.86,11.08-5.18V844.99z M936.86,828.11h30.13c-1.66-7.46-7.46-12.94-14.91-12.94S938.62,820.66,936.86,828.11
				L936.86,828.11z"/>
			<path class="st0" d="M1000.12,855.91c-3.93-2.31-7.06-5.49-9.37-9.53c-2.31-4.04-3.47-8.51-3.47-13.41s1.16-9.37,3.47-13.41
				s5.44-7.21,9.37-9.53c3.93-2.31,8.25-3.47,12.94-3.47c5.31,0,10.13,1.43,14.44,4.3c4.31,2.87,7.4,6.78,9.27,11.75h-6.42
				c-1.66-3.24-4.06-5.8-7.2-7.66c-3.14-1.86-6.51-2.8-10.1-2.8s-6.89,0.9-9.89,2.69c-3,1.8-5.38,4.28-7.14,7.46
				s-2.64,6.73-2.64,10.67s0.88,7.49,2.64,10.67s4.14,5.66,7.14,7.46c3,1.8,6.3,2.69,9.89,2.69s6.95-0.93,10.1-2.8
				c3.14-1.86,5.54-4.42,7.2-7.66h6.42c-1.86,4.97-4.95,8.89-9.27,11.75c-4.31,2.87-9.13,4.3-14.44,4.3
				C1008.36,859.38,1004.05,858.22,1000.12,855.91L1000.12,855.91z"/>
			<path class="st0" d="M1057.18,855.91c-4-2.31-7.16-5.49-9.47-9.53c-2.31-4.04-3.47-8.51-3.47-13.41s1.16-9.37,3.47-13.41
				c2.31-4.04,5.47-7.21,9.47-9.53c4-2.31,8.42-3.47,13.25-3.47s9.15,1.16,13.15,3.47s7.18,5.49,9.53,9.53
				c2.35,4.04,3.52,8.51,3.52,13.41s-1.17,9.37-3.52,13.41s-5.52,7.21-9.53,9.53c-4,2.31-8.39,3.47-13.15,3.47
				S1061.18,858.22,1057.18,855.91z M1080.53,851.1c3.07-1.79,5.5-4.28,7.3-7.46c1.79-3.17,2.69-6.73,2.69-10.67
				s-0.9-7.49-2.69-10.67c-1.8-3.17-4.23-5.66-7.3-7.46c-3.07-1.79-6.44-2.69-10.1-2.69s-7.02,0.9-10.1,2.69
				c-3.07,1.8-5.51,4.28-7.3,7.46c-1.8,3.18-2.69,6.73-2.69,10.67s0.9,7.49,2.69,10.67c1.79,3.18,4.23,5.66,7.3,7.46
				c3.07,1.8,6.44,2.69,10.1,2.69S1077.45,852.89,1080.53,851.1z"/>
			<path class="st0" d="M1140.73,855.91c-4-2.31-7.16-5.49-9.47-9.53c-2.31-4.04-3.47-8.51-3.47-13.41s1.16-9.37,3.47-13.41
				c2.31-4.04,5.47-7.21,9.47-9.53c4-2.31,8.42-3.47,13.25-3.47s9.15,1.16,13.15,3.47s7.18,5.49,9.53,9.53
				c2.35,4.04,3.52,8.51,3.52,13.41s-1.17,9.37-3.52,13.41s-5.52,7.21-9.53,9.53c-4,2.31-8.39,3.47-13.15,3.47
				S1144.73,858.22,1140.73,855.91z M1164.08,851.1c3.07-1.79,5.5-4.28,7.3-7.46c1.79-3.17,2.69-6.73,2.69-10.67
				s-0.9-7.49-2.69-10.67c-1.8-3.17-4.23-5.66-7.3-7.46c-3.07-1.79-6.44-2.69-10.1-2.69s-7.02,0.9-10.1,2.69
				c-3.07,1.8-5.51,4.28-7.3,7.46c-1.8,3.18-2.69,6.73-2.69,10.67s0.9,7.49,2.69,10.67c1.79,3.18,4.23,5.66,7.3,7.46
				c3.07,1.8,6.44,2.69,10.1,2.69S1161,852.89,1164.08,851.1z"/>
			<path class="st0" d="M1218.6,807.09v5.59h-4.97c-2.76,0-5.33,0.72-7.71,2.17s-4.26,3.4-5.64,5.85c-1.38,2.45-2.07,5.13-2.07,8.02
				v29.61h-5.9v-50.74h5.9v8.28c1.79-2.76,4.12-4.92,6.99-6.47c2.86-1.55,5.95-2.33,9.27-2.33h4.14L1218.6,807.09z"/>
			<path class="st0" d="M1121.38,860.47c-9.06-0.62-13.12-4.97-13.12-13.98v-61.65l5.82-1.47v63.12c0,5.18,2.52,8.36,7.3,9.26
				V860.47L1121.38,860.47z"/>
		</g>
		<g>
			<g>
				<path class="st1" d="M1176.59,350.49c-127.8-218.95-475.23-128.62-472.69,128.14c-5.13,164.87,165.32,289.48,321.3,243.61
					c40.25-7.51,77.82-47.36,99.75-74.33C1208.77,561.38,1240.3,459.41,1176.59,350.49L1176.59,350.49z M1150.59,515.52
					c0,0-13.01,45.69-62.39,56.54c-91.42,33.84-74.84,105.22-128.31,123.82v0.02c-5.49,1.39-11.65,1.62-17.98-0.54
					c-37.2-20.98-71.16-47.65-116.98-47.42c-112.81-89.01-99.26-286.8,26.56-357.6c15.64-9.46,32.19-16.63,49.54-21.47
					c149.03,12.67,282.17,93.44,249.55,246.64L1150.59,515.52z"/>
				<path class="st2" d="M1176.59,350.49c-22.66-38.41-53.62-69.05-92.02-91.05c-38.4-21.98-81.23-33.13-127.29-33.13
					S868.4,237.46,830,259.44c-38.42,22.01-69.38,52.64-92.03,91.06c-22.61,38.33-34.07,81.44-34.07,128.13s11.46,89.8,34.07,128.13
					c22.66,38.43,53.62,69.07,92.03,91.05c38.37,21.98,81.19,33.13,127.28,33.13c21.88,0,43.03-2.51,63.31-7.51
					c22.44-5.52,44.52-15.58,62.12-30.74c17.64-15.2,23.9-24.74,33.33-34.77c7.62-8.1,14-15.73,21.73-24.38
					c5.24-5.86,10.79-12.76,17.09-20.56c27.96-34.63,55.8-87.67,55.8-134.35S1199.2,388.83,1176.59,350.49L1176.59,350.49z
					 M1163.63,519.61c-0.29,0.97-0.57,1.95-0.87,2.93c0,0-8.01,39.56-56.85,61.39c-52.18,23.33-113.99,99.98-113.99,99.98
					s-4.38,5.15-11.46,10.77c-0.01,0-0.02,0-0.04,0v0.03c-12.82,10.15-34.46,21.8-55.15,7.38c-5.64-3.93-10.7-7.79-15.42-11.48l0,0
					c-22.22-17.36-37.12-31.1-70.88-31.9c-25.86-18.18-47.11-41.64-63.27-69.92c-18.73-32.78-28.23-69.84-28.23-110.17
					s9.5-77.39,28.23-110.16c18.68-32.69,44.18-58.97,75.8-78.11c15.64-9.46,32.2-16.62,49.54-21.47
					c153.81-18.54,246.05,115.91,246.58,116.68l0,0l0,0C1147.62,385.56,1188.14,435.92,1163.63,519.61L1163.63,519.61
					L1163.63,519.61z"/>
				<path class="st1" d="M1176.59,350.49c-22.66-38.41-53.62-69.05-92.02-91.05c-38.4-21.98-81.23-33.13-127.29-33.13
					S868.4,237.46,830,259.44c-38.42,22.01-69.38,52.64-92.03,91.06c-22.61,38.33-34.07,81.44-34.07,128.13s11.46,89.8,34.07,128.13
					c22.66,38.43,53.62,69.07,92.03,91.05c38.37,21.98,81.19,33.13,127.28,33.13c35.7,0,70.77-3.9,100.67-19.92
					c1.95-1.04,3.25-1.96,4.9-2.97c2-1.22,3.93-2.63,5.86-4.02c1.64-1.18,3.29-2.31,4.8-3.63c1.9-1.66,3.83-3.08,5.61-4.61
					c1.2-1.04,2.53-2.17,3.59-3.1c4.3-3.78,9.44-9.08,14.03-13.94c8.89-9.43,17.34-19.11,24.54-26.74
					c4.91-5.21,9.55-10.65,13.8-15.39c7.08-7.91,13.33-14.96,19.78-23.64c2.39-3.21,4.89-6.29,7.42-9.65
					c1.38-1.83,2.81-3.65,4.11-5.86c22.61-38.34,44.26-72.16,44.26-118.84s-11.46-89.8-34.07-128.13L1176.59,350.49z
					 M1167.09,478.62L1167.09,478.62c-75.02,38.3-78.32,89.49-78.32,89.49s-17.94,83.2-25.7,98.78l0,0
					c-7.75,15.58-25.25,27.6-25.25,27.6s-70.1,39.48-111.83,14.09c-14.32-8.71-27.05-17.87-39.18-24.76l0,0
					c-7.47-4.24-14.72-7.63-21.96-9.51c-4.52-2.29-8.97-4.75-13.35-7.41c-31.6-19.11-57.1-45.39-75.8-78.11
					c-18.73-32.78-28.23-69.84-28.23-110.17s9.5-77.39,28.23-110.16c18.68-32.69,44.18-58.97,75.8-78.11
					c15.92-9.63,32.77-16.88,50.44-21.72c70.02-9,109.07,5.85,158.01,27.05c17.1,7.41,36.52,21.59,54.86,38.51
					c0.08,0.1,0.17,0.2,0.25,0.3l0.05-0.03c34.02,31.46,64.24,72.28,68.83,96.62c7.07,37.52-16.84,47.55-16.84,47.55L1167.09,478.62
					z"/>
				<path class="st3" d="M1176.57,350.46c-1.99-3.38-5.21-6.63-7.87-9.68c-4.14-4.75-8.01-9.09-12.15-13.29
					c-8.98-9.11-17-17.28-26.26-26.22c-10.87-10.5-20.53-22.45-32.12-32.21c-4.23-3.57-8.72-6.84-13.63-9.65
					c-38.4-21.98-81.23-33.13-127.29-33.13s-88.88,11.15-127.28,33.13c-38.42,22.01-69.38,52.64-92.03,91.06
					c-22.61,38.33-34.07,81.44-34.07,128.13s11.46,89.8,34.07,128.13c14.96,25.37,33.53,47.33,55.47,65.66
					c11.3,9.44,28.88,14.83,43.06,19.86c19.36,6.87,33.83,12.83,50.17,19.36c22.4,8.95,43.95,19.3,70.6,19.3
					c35.7,0,69.44-6.69,100.67-19.92c0.74-0.31,1.71-0.99,2.39-1.41c1.93-1.2,2.82-1.73,4.32-2.71
					c6.51-4.25,12.56-10.11,18.06-14.21c4.44-3.31,8.37-8.27,12.18-11.99c11.11-10.85,20.21-21.64,30.06-32.78
					c9.34-10.55,19.12-21.53,28.2-32.8c3.25-4.03,6.23-7.74,9.22-11.92c0.79-1.1,1.69-2.22,2.5-3.39c0.22-0.31,0.47-0.54,0.67-0.87
					c22.61-38.34,45.12-73.63,45.12-120.32S1199.17,388.79,1176.57,350.46L1176.57,350.46z M1150.27,565.54L1150.27,565.54
					L1150.27,565.54c-8.87,9.92-20.68,19.91-36.08,27.19c-42.07,19.89-81.35,70.23-119.6,99.91l0,0c-1.91,1.48-3.82,2.92-5.73,4.29
					c-40.06,28.87-70.2,13.93-80.13,8.8c-3.64-1.89-11.71-7.94-19.86-14.18c-0.5-0.4-1.69-1.31-3.14-2.41
					c-3.35-2.57-6.61-5.08-9.49-7.26c-1.99-1.7-4.21-3.26-6.08-4.48c-1.17-0.82-2.15-1.48-2.86-1.9c-0.75-0.44-1.26-0.62-1.26-0.62
					c-4.94-2.46-9.8-5.13-14.57-8.02c-5.8-3.51-11.4-7.26-16.79-11.25c-2.85-2.13-5.2-3.98-6.73-5.2c-0.54-0.43-1.07-0.86-1.61-1.3
					c-0.05-0.04-0.09-0.08-0.13-0.11c-20.18-16.58-37.11-36.75-50.54-60.25c-18.73-32.78-28.23-69.84-28.23-110.17
					s9.5-77.39,28.23-110.16c18.68-32.69,44.18-58.97,75.8-78.11c15.92-9.63,32.77-16.88,50.44-21.72
					c82.91-14.92,140.46,19.61,162.1,28.93c8.13,3.5,21.91,11.09,37.23,22.22l0,0c25.47,18.49,55.2,46.76,70.24,82.26
					c24.09,56.85,1.59,126.69,1.59,126.69s-6.25,18.31-22.81,36.84L1150.27,565.54z"/>
				<path class="st4" d="M1124.93,610.28L1124.93,610.28L1124.93,610.28c-49.32,18.36-99.42,74.33-99.42,74.33
					c-4.49,4.8-9.38,10.01-14.73,15.66c0,0-32.46,29.97-86.69,21.71c-16.5-6.91-35.03-30.27-35.03-30.27
					c-12.22-9.93-22.99-16.8-22.99-16.8c-2.47-1.25-5.01-2.54-8.19-4.31c-5.97-3.34-13.24-7.79-19.11-11.99
					c-7.24-5.18-12.73-9.74-12.73-9.74c0,0.01,0,0.02,0.01,0.04c0-0.01,0-0.02-0.01-0.03l0,0c-20.1-16.55-36.97-36.67-50.35-60.09
					c-18.73-32.78-28.23-69.84-28.23-110.17s9.5-77.39,28.23-110.16c18.68-32.69,44.18-58.97,75.8-78.11
					c31.83-19.25,67.42-29.01,105.79-29.01s73.95,9.76,105.79,29.02c15.13,9.16,28.86,19.96,41.11,32.31l0,0
					c0,0,71.5,37.24,87.59,111.36s-8.39,154.49-66.85,176.26L1124.93,610.28z M1176.6,350.48c-0.5-0.85-1.21-1.7-1.83-2.47
					c-1.02-1.29-2.01-2.46-3.03-3.67c-2.84-3.39-5.62-6.56-8.52-9.73c-9.18-10.04-18.78-19.14-28.76-29.14
					c-4.47-4.47-8.99-9.15-13.44-13.93c-11.1-11.94-22.42-24.08-36.45-32.11c-38.4-21.98-81.23-33.13-127.29-33.13
					S868.4,237.45,830,259.43c-38.42,22.01-69.38,52.64-92.03,91.06c-22.61,38.33-34.07,81.44-34.07,128.13s11.46,89.8,34.07,128.13
					c18.38,31.17,42.22,57.2,71.06,77.66c0.02,0.01,0.04,0.03,0.06,0.04c0.04,0.02,0.08,0.05,0.12,0.07
					c0.1,0.06,0.19,0.11,0.29,0.17c0.25,0.16,0.52,0.31,0.78,0.47c0.08,0.05,0.17,0.1,0.25,0.15c1.11,0.64,2.18,1.27,3.35,1.94
					c5.45,3.13,11.12,6.17,16.96,8.82c3.77,1.71,7.07,3.25,10.61,4.8c6.11,2.67,12.27,5.21,18.69,7.83c1.46,0.6,3.08,1.24,4.55,1.82
					c29.1,11.55,59.69,20.41,92.6,20.41c35.7,0,69.44-6.69,100.67-19.92c0.03-0.01,0.06-0.04,0.1-0.05
					c0.07-0.04,0.13-0.07,0.19-0.11c0.22-0.12,0.43-0.25,0.64-0.37c0.95-0.55,1.83-1.16,2.82-1.73c0.34-0.19,0.66-0.4,0.97-0.59
					c0.7-0.43,1.35-0.84,1.99-1.27c1.2-0.8,2.35-1.63,3.68-2.59s2.88-2.08,4-2.97c3.37-2.66,6.23-5.03,9.32-7.72
					c1.99-1.73,3.89-3.31,5.58-4.92c2.16-2.06,4.33-4,6.3-5.95c3.43-3.4,6.34-6.78,9.42-9.94c1.71-1.75,3.47-3.99,5.13-5.83
					c2.85-3.16,5.2-5.92,7.96-9.06c6.04-6.9,12.07-13.44,18.09-20.22c7.09-8,13.96-16.18,20.73-24.71c2.36-2.98,4.68-6.01,7-9.1
					c0.84-1.12,1.68-2.24,2.51-3.38c0.26-0.36,0.53-0.72,0.79-1.08c0.07-0.1,0.14-0.2,0.22-0.29c0.03-0.05,0.07-0.09,0.1-0.14
					c0.01-0.02,0.07-0.09,0.08-0.1c22.61-38.34,45.1-73.57,45.1-120.26s-11.46-89.8-34.07-128.13L1176.6,350.48z"/>
				<path class="st0" d="M851.51,290.34c77.82-48.59,188.56-34.58,251.98,31.59c12.81-0.37,18.9,6.14,36.38,6.4
					c-13.67-10.71-19.1-17.63-26.42-27.85c-89.3-124.71-304.41-81.04-375.47,50.01c-60.81,99.13-37.66,243.85,50.77,318.23
					c8.3,6.98,17.06,11.52,26.5,17.16c5,2.99,11.13,4.98,16.44,7.56c3.23,1.45,5.73,2.4,8.86,3.63c5.09,2.01,9.93,4.11,14.91,5.82
					c11.09,3.8,22.31,9.91,33.47,13.51c-2.43-6.97,8.1-17.21,0.14-24.69c-7.94-7.46-22.99-16.8-22.99-16.8
					c-10.69-4.66-33.3-19.94-40.02-26.04c0,0.01,0,0.02,0.01,0.04c0-0.01,0-0.02-0.01-0.03l0,0
					C712.17,560.29,725.18,361.43,851.51,290.34L851.51,290.34z"/>
			</g>
			<g>
				<path class="st5" d="M1218.57,473.48v-0.05c-0.26-10.38-1.08-20.87-2.45-31.23c-1.48-10.16-3.54-20.4-6.12-30.43l-0.1-0.39
					c-2.34-8.69-5.16-17.36-8.37-25.81l-1.6-4.09l-3.56-8.43l-0.46-1c-1.72-3.73-3.49-7.6-5.46-11.35
					c-3.24-6.48-6.81-12.57-9.91-17.74c-0.57-0.93-1.16-1.85-1.75-2.77c-0.32-0.5-0.64-0.99-0.96-1.5l-1.34-2.1l-4.3-6.34
					c-0.16-0.23-0.32-0.47-0.48-0.7c-0.33-0.48-0.65-0.96-1.01-1.45l-1.47-1.99c-7.93-10.87-16.78-21.23-26.32-30.81l0,0
					c0,0-0.02-0.02-0.03-0.03l-0.06-0.06c-11.25-11.24-23.54-21.46-36.52-30.38c-13.07-8.99-27.05-16.8-41.49-23.19l-0.11-0.05
					c-16.38-7.2-33.51-12.73-50.92-16.44c-17.46-3.66-35.37-5.55-53.23-5.62h-0.04l-7.52,0.09l-7.53,0.31h-0.28
					c-8.55,0.5-17.17,1.43-25.63,2.77c-26.83,4.21-52.64,12.57-76.73,24.83l-0.37,0.19c-24.04,12.26-46,28.25-65.26,47.52
					l-0.08,0.08c-19.28,19.27-35.28,41.28-47.56,65.4c-3.26,6.4-6.05,12.44-8.51,18.45c-2.64,6.41-5,12.82-7.03,19.06
					c-2.06,6.42-3.91,12.99-5.49,19.58l-1.07,4.65l-1.07,5.17c-0.2,0.92-0.36,1.83-0.5,2.59l-0.6,3.32c-0.1,0.56-0.2,1.11-0.3,1.7
					l-0.38,2.45c-2.06,12.88-3.14,26.49-3.19,40.47c0,16.91,1.67,33.89,4.95,50.45c3.29,16.61,8.23,32.93,14.68,48.53
					c6.46,15.62,14.51,30.66,23.92,44.71c9.34,13.96,20.16,27.13,32.16,39.14l4.28,4.16c0.65,0.65,1.3,1.25,1.93,1.83l2.53,2.34
					c12.37,11.26,25.56,21.18,39.18,29.48c13.91,8.51,28.68,15.74,43.91,21.47l0.31,0.12c25.11,9.39,51.46,14.81,78.34,16.08
					l6.92,0.24l7.04,0.05c18.33-0.11,36.68-2.17,54.55-6.13c7.23-1.63,14.25-3.49,20.88-5.54c6.79-2.14,13.6-4.57,20.28-7.24l0,0
					l5.96-2.5l0.61-0.27c3.83-1.71,9.62-4.3,16.94-8.17l2.9-1.57c0.3-0.17,0.61-0.33,0.92-0.5c0.72-0.39,1.47-0.79,2.2-1.22
					l3.75-2.15c0.39-0.22,0.79-0.45,1.18-0.69l5.15-3.13l4.33-2.78c0.42-0.27,0.84-0.54,1.3-0.84l4.29-2.91
					c0.52-0.35,1.04-0.71,1.52-1.05l3.96-2.84c0.91-0.66,1.82-1.34,2.7-2.01c0.47-0.36,0.94-0.71,1.46-1.1
					c0.23-0.18,0.46-0.35,0.69-0.52c0.49-0.37,0.98-0.73,1.44-1.11l4.18-3.32c0.5-0.39,0.99-0.81,1.48-1.22
					c0.24-0.2,0.48-0.4,0.72-0.61c6.21-5.14,12.23-10.63,17.91-16.3c5.66-5.66,11.12-11.67,16.26-17.86c0.2-0.24,0.4-0.48,0.6-0.71
					c0.41-0.49,0.83-0.98,1.21-1.46l3.31-4.16c0.38-0.48,0.75-0.97,1.12-1.45c0.17-0.23,0.35-0.46,0.55-0.73
					c0.36-0.48,0.72-0.95,1.08-1.42c0.66-0.87,1.34-1.77,2-2.69l2.79-3.9c0.38-0.52,0.74-1.04,1.09-1.56l2.92-4.31
					c0.28-0.42,0.55-0.84,0.81-1.25l2.72-4.22l3.19-5.23c0.24-0.39,0.46-0.78,0.69-1.17l2.12-3.69c0.45-0.77,0.85-1.51,1.24-2.22
					c0.17-0.31,0.33-0.62,0.51-0.95l1.58-2.91c3.85-7.27,6.43-13.03,8.15-16.85l2.68-6.31l0.09-0.22
					c6.48-16.12,11.42-32.98,14.68-50.16c3.11-17.05,4.56-34.57,4.32-52.07L1218.57,473.48z M787.01,305.14L787.01,305.14
					c3.13-3.11,6.56-6.24,10.47-9.57c3.48-2.96,7.23-5.99,11.13-9c7.69-5.92,15.58-11.47,23.44-16.49
					c8.86-5.65,16.99-10.25,24.83-14.07c4.58-2.22,8.83-4.06,12.97-5.62c4.79-1.8,9.14-3.12,13.31-4.02
					c7.11-1.49,14.76-2.94,22.52-3.42h0.17c0.24-0.04,0.57-0.04,0.89-0.05l3.58-0.08l3.37,0.13h0.11c0.26,0,0.6,0.04,0.96,0.08
					l3.01,0.29c0.11,0.01,0.22,0.03,0.33,0.05l2.01,0.3c0.23,0.04,0.45,0.07,0.68,0.1c0.29,0.04,0.59,0.08,0.93,0.15l1.71,0.32
					c2.6,0.49,5.25,1.06,7.82,1.61c1.92,0.41,3.83,0.82,5.72,1.2c8.54,1.78,17.63,3.17,27.81,4.25l3.56,0.29l3.56,0.14h0.09
					c4.42,0.08,9.08-0.2,13.84-0.83c4.94-0.65,9.75-1.65,13.4-2.44c1.05-0.23,2.09-0.46,3.14-0.69c3.19-0.71,6.49-1.45,9.72-2.04
					c4.65-0.84,8.74-1.26,12.48-1.28c2.67,0,5.37,0.23,8.02,0.67l2.03,0.38c0.41,0.09,0.82,0.2,1.23,0.3l0.72,0.18
					c0.14,0.04,0.29,0.07,0.43,0.11c0.13,0.03,0.27,0.06,0.42,0.11l2.3,0.71c0.17,0.05,0.35,0.1,0.51,0.17l0.16,0.06
					c4.81,1.69,9.75,4.15,14.68,7.33l0.08,0.05c3.62,2.34,6.84,5.47,9.56,9.3c2.45,3.44,4.56,7.46,6.45,12.31
					c1.54,3.95,2.9,8.32,4.29,13.76c1.21,4.74,2.23,9.51,3.26,14.39l0.42,2c0.87,4.15,1.78,8.44,2.78,12.67
					c1.37,5.81,2.69,10.48,4.13,14.72c1.88,5.51,3.98,10.2,6.39,14.32c2.9,4.94,6.35,9.14,10.26,12.49l0.16,0.14
					c4.16,3.51,9.02,6.58,14.84,9.37c5.71,2.74,11.53,4.88,15.97,6.43c3.1,1.08,6.26,2.13,9.31,3.14c3.92,1.3,7.98,2.65,11.9,4.07
					c6.04,2.19,13.11,4.97,19.67,8.96c1.5,0.92,2.98,1.91,4.37,2.93c1.35,1,2.71,2.12,4,3.3c2.59,2.38,4.81,5,6.59,7.73l1.41,2.32
					c0.17,0.28,0.32,0.58,0.47,0.87l0.04,0.08c0.09,0.18,0.18,0.35,0.27,0.53c0.1,0.18,0.19,0.36,0.28,0.55l0.63,1.36
					c0.1,0.21,0.18,0.42,0.27,0.63c0.07,0.18,0.14,0.36,0.24,0.57c0.21,0.48,0.4,1.02,0.61,1.6c0.09,0.25,0.18,0.5,0.27,0.76
					c1.05,3.12,1.81,6.52,2.28,10.12v0.03c0.66,5.09,0.95,10.01,0.87,14.62c-0.09,4.69-0.57,9.22-1.42,13.48
					c-0.88,4.43-2.21,8.75-3.95,12.86c-1.71,4.05-3.88,8.03-6.45,11.84c-2.47,3.66-5.34,7.23-8.53,10.62c-3,3.18-6.3,6.26-10.07,9.4
					l-5.41,4.3l-1.17,0.86c-1.54,1.13-3,2.19-4.5,3.2l-0.08,0.06c-1.33,0.94-2.7,1.83-4.14,2.77c-0.55,0.36-1.1,0.72-1.65,1.08
					l-3.54,2.19c-0.3,0.19-0.61,0.38-0.89,0.55l-1.57,0.93c-3.97,2.38-8.06,4.6-12.25,6.85l-1.83,0.95
					c-0.77,0.4-1.79,0.93-3.08,1.58c-2.61,1.32-7.31,3.67-14.91,7.31l-1.63,0.79c-2.9,1.39-6.18,2.97-9.7,4.77
					c-4.31,2.22-8.95,4.72-13.64,7.98c-2.55,1.77-4.98,3.67-7.21,5.65c-2.39,2.11-4.73,4.47-6.96,7
					c-4.06,4.6-8.17,10.32-12.58,17.49c-2.44,4.03-4.56,8.62-6.47,14.04c-1.42,4.04-2.66,8.36-3.9,13.6
					c-2.08,8.88-3.41,17.31-4.5,24.52c-0.59,3.98-1.13,7.77-1.65,11.42c-0.45,3.2-0.89,6.26-1.32,9.19c-1,6.79-1.9,12.06-2.81,16.59
					c-0.96,4.77-2,8.95-3.1,12.46c-0.98,3.15-2.05,5.92-3.19,8.26c-0.8,1.65-1.65,3.12-2.52,4.36l-0.06,0.08
					c-0.2,0.3-0.38,0.54-0.52,0.72l-0.42,0.55c-1.71,2.09-3.62,4.12-5.69,6.04c-2.03,1.82-4.25,3.6-6.58,5.24
					c-7.3,5.04-15.85,9.06-25.45,11.96c-1.94,0.6-4.05,1.16-6.83,1.83c-2.21,0.49-4.57,1-6.98,1.39c-4.62,0.78-9.34,1.24-14.04,1.36
					c-2.03,0.02-4.19,0.01-6.35-0.15c-2.28-0.17-4.28-0.42-6.08-0.78l-0.1-0.02c-5.94-1.21-12.07-3.58-18.73-7.23
					c-6.47-3.55-12.44-7.76-17.44-11.41c-2.65-1.94-5.32-3.95-7.9-5.9c-3.01-2.27-6.13-4.62-9.26-6.88
					c-5.33-3.84-11.69-8.21-18.56-11.55l-2.82-1.28c-0.3-0.14-0.61-0.27-0.92-0.4l-1.16-0.46c-0.24-0.09-0.49-0.19-0.73-0.29
					c-0.52-0.21-1.06-0.43-1.64-0.62l-2.24-0.77c-0.48-0.17-0.94-0.31-1.34-0.43l-2.28-0.69c-0.31-0.1-0.63-0.18-0.95-0.26
					l-2.71-0.71l-2.51-0.57c-5.62-1.22-11.65-2.09-19.55-2.82c-2.84-0.27-5.72-0.49-8.51-0.72c-3.5-0.28-7.13-0.57-10.66-0.93
					c-3.56-0.37-6.52-0.76-9.29-1.23c-3.25-0.56-6.16-1.25-8.89-2.08c-3.26-1-6.24-2.26-8.85-3.73c-2.75-1.55-5.25-3.44-7.44-5.61
					l-0.12-0.12c-11.33-11.35-21.55-23.79-30.38-36.98c-8.9-13.29-16.51-27.51-22.62-42.29c-6.11-14.75-10.78-30.2-13.89-45.91
					c-3.11-15.67-4.68-31.74-4.69-47.73c0-8.64,0.48-17.37,1.39-25.95c0.74-6.98,1.77-13.9,3.04-20.54
					c1.31-6.77,2.93-13.57,4.8-20.21c1.89-6.69,4.07-13.33,6.47-19.72c2.44-6.45,5.19-12.88,8.17-19.11
					c11.81-24.83,27.89-47.54,47.78-67.47L787.01,305.14z"/>
				<path class="st6" d="M1209.51,413.06l-0.1-0.39c-2.41-9.4-5.59-18.74-9.47-27.77c-3.76-8.77-8.32-17.57-13.54-26.16
					c-6.16-10.07-13.49-20.26-21.79-30.29c-7.44-9-15.66-17.93-25.11-27.27l-1.31-1.29c-10.7-10.5-21.77-21.37-33.53-31.23
					c-6.68-5.59-12.97-10.34-19.23-14.52c-6.94-4.64-13.98-8.64-20.95-11.89l-0.21-0.1c-15.82-7.26-32.63-12.59-49.95-15.83
					c-16.08-2.99-33.1-4.42-52.04-4.43l-7.4,0.09l-7.48,0.23h-0.2c-10.68,0.44-21.07,1.41-30.91,2.88
					c-6.76,1.04-12.66,2.15-18.01,3.4l-2.21,0.5c-0.51,0.12-1.02,0.25-1.53,0.38l-5.13,1.31l-0.13,0.03
					c-0.78,0.22-1.56,0.45-2.35,0.67c-2.1,0.59-4.26,1.2-6.41,1.9c-10.84,3.34-21.93,7.68-33.88,13.28l-0.21,0.1
					c-12.22,5.75-24.51,13.02-36.55,21.61c-11.6,8.3-22.48,17.5-32.34,27.33l-0.08,0.08c-19.4,19.4-35.48,41.57-47.79,65.89
					l-0.7,1.37l-1.58,3.25c-0.23,0.48-0.45,0.95-0.68,1.43c-0.5,1.04-1.02,2.12-1.49,3.2l-2.05,4.59l-2,4.77
					c-2.56,6.28-4.91,12.74-6.99,19.2c-1.99,6.18-3.77,12.63-5.44,19.73l-0.31,1.35l-1.82,8.59l-0.91,5
					c-0.13,0.67-0.24,1.35-0.34,2.03l-0.49,3.11c-0.04,0.27-0.08,0.54-0.13,0.81c-0.09,0.56-0.18,1.11-0.24,1.65l-0.47,3.58
					c-0.16,1.21-0.33,2.46-0.45,3.69l-0.18,1.69c-0.11,1.04-0.23,2.08-0.33,3.13l-0.41,4.9c-0.47,6.47-0.72,13.04-0.75,19.53
					c0,16.88,1.67,33.82,4.94,50.36c3.28,16.57,8.21,32.87,14.66,48.43c6.45,15.59,14.48,30.6,23.87,44.62
					c9.33,13.93,20.12,27.07,32.09,39.05l4.5,4.34c0.25,0.24,0.49,0.48,0.78,0.74l3.16,2.83c11.77,10.42,25.19,19.8,39.88,27.88
					c12.79,7.07,27.13,13.65,43.82,20.09l0.13,0.05c13.86,5.33,26.34,9.38,38.17,12.41c14.02,3.59,27.02,5.71,39.73,6.49l6.85,0.31
					l6.74,0.1h0.07c17.92-0.02,35.92-2.15,53.52-6.33c7.35-1.78,14.06-3.71,20.53-5.91c6.71-2.31,13.33-4.93,19.69-7.79l5.95-2.86
					l0.13-0.07c3.49-1.83,9.33-4.88,16.71-9.71c8.3-5.43,16.88-11.96,25.51-19.4c9.58-8.25,20.35-18.65,32.02-30.9
					c10.43-10.98,19.96-22.26,28.34-33.53c6.36-8.59,12.08-17.13,17.47-26.11c4.02-6.71,6.89-12.09,8.8-15.66l3.15-6.12l0.18-0.36
					c3.75-7.55,7.11-15.37,10-23.26c2.84-7.78,5.3-15.97,7.33-24.35c1.92-8.03,3.44-16.45,4.5-25.03
					c0.99-8.25,1.54-16.78,1.64-25.36c0.17-19.93-2.28-40.12-7.27-60.02L1209.51,413.06z M906.03,695.45
					c-2.83-1.98-5.75-4.03-8.67-6.01c-5.34-3.61-11.72-7.73-18.51-10.94l-0.23-0.11c-3.2-1.46-6.44-2.75-9.66-3.84
					c-3.24-1.06-6.57-2-9.92-2.79c-3.18-0.73-6.45-1.38-10-1.99c-2.98-0.49-6.24-0.97-9.96-1.47c-1.87-0.25-3.74-0.49-5.61-0.73
					c-4.6-0.59-9.36-1.19-13.98-1.97c-7.49-1.24-13.33-2.77-18.41-4.81c-5.41-2.12-10.4-5.34-14.39-9.28l-0.14-0.14
					c-11.33-11.36-21.56-23.81-30.4-37.01c-8.92-13.32-16.55-27.57-22.67-42.37c-6.12-14.78-10.8-30.26-13.92-46
					c-3.11-15.71-4.69-31.8-4.7-47.83c0.01-8.92,0.51-17.95,1.48-26.81c0.75-6.84,1.79-13.73,3.1-20.48
					c1.27-6.52,2.9-13.29,4.84-20.13c1.89-6.61,4.07-13.23,6.5-19.66c2.36-6.23,5.11-12.64,8.17-19.02
					c3.03-6.3,6.3-12.45,9.73-18.27c3.5-5.91,7.29-11.75,11.27-17.36l1.14-1.59l5.04-6.75l3.28-4.13c0.34-0.44,0.7-0.87,1.06-1.3
					l2.18-2.61c4.42-5.21,9.13-10.34,13.99-15.23l0.21-0.21l0.02-0.03c5.75-5.67,12.33-11.35,20.66-17.84
					c7.35-5.7,14.96-11.1,22.63-16.05c8.53-5.49,16.38-9.99,23.97-13.74c4.41-2.17,8.51-3.99,12.52-5.55
					c4.58-1.78,8.76-3.11,12.83-4.08l6.44-1.46c1.38-0.29,2.76-0.56,4.14-0.82c0.74-0.14,1.49-0.29,2.23-0.44l5.15-0.82
					c0.13-0.02,0.26-0.04,0.38-0.06l4.09-0.47l3.12-0.24h0.1c1.4-0.13,2.86-0.15,4.39-0.17c0.54,0,1.08-0.01,1.62-0.02
					c3.77,0.07,7.76,0.41,12.51,1.06l3.21,0.46l9.74,1.53c8.75,1.36,17.62,2.44,26.35,3.21l3.5,0.24l3.57,0.12h0.08
					c4.31,0.07,8.84-0.15,13.46-0.64c4.75-0.5,9.3-1.25,13.12-1.91c1.23-0.21,2.46-0.43,3.69-0.65c2.96-0.52,6.02-1.07,9.02-1.5
					c4.77-0.7,8.71-1.04,12.39-1.09c3.05-0.02,6.05,0.18,8.94,0.6h0.07c1.3,0.18,2.63,0.46,4.04,0.76l2.52,0.63l0.09,0.02
					c0.22,0.05,0.43,0.12,0.65,0.19l2.39,0.74l0.99,0.36c0.28,0.11,0.57,0.21,0.85,0.31c0.43,0.15,0.85,0.31,1.23,0.46l0.91,0.38
					c1.14,0.48,2.22,0.94,3.23,1.45l0.13,0.06c2.75,1.29,5.4,2.85,7.88,4.34l0.13,0.08c3.53,2.23,6.73,5.16,9.49,8.72
					c2.53,3.25,4.77,7.03,6.83,11.57c1.7,3.75,3.25,7.9,4.86,13.04c1.43,4.58,2.71,9.28,3.89,13.71l0.72,2.72
					c2.23,8.36,4.53,17,7.78,25.29c2.05,5.2,4.24,9.64,6.71,13.57c2.91,4.64,6.29,8.64,10.03,11.89c2.28,1.98,4.83,3.91,7.58,5.73
					c2.43,1.6,5.07,3.15,8.07,4.75c5.6,2.96,11.32,5.43,16.66,7.65c1.98,0.82,3.98,1.63,5.97,2.44c4.62,1.88,9.39,3.82,13.98,5.89
					c7.74,3.5,13.37,6.63,18.24,10.18c2.88,2.1,5.46,4.33,7.66,6.64c2.36,2.48,4.4,5.14,6.06,7.91l0.06,0.09
					c0.26,0.42,0.53,0.9,0.81,1.41c0.12,0.23,0.25,0.45,0.37,0.68c0.12,0.24,0.24,0.48,0.37,0.73c0.26,0.5,0.5,0.98,0.69,1.42
					l0.06,0.14c0.72,1.53,1.33,3.2,1.83,4.63c1.03,3.1,1.8,6.42,2.29,9.85c0.74,5.26,1.14,10.38,1.17,15.19
					c0.03,4.74-0.3,9.37-0.96,13.75l0,0c-0.69,4.57-1.77,9.04-3.22,13.3c-1.45,4.27-3.32,8.47-5.56,12.5
					c-2.15,3.87-4.73,7.73-7.65,11.44c-2.72,3.46-5.85,6.94-9.29,10.34c-2.96,2.92-6.39,5.96-10.5,9.27
					c-6.62,5.33-14.01,10.42-23.27,16.01l-4.8,2.83c-2.95,1.74-7.41,4.29-14.47,8.29c-1.63,0.92-3.36,1.9-5.19,2.96l-0.97,0.56
					c-0.61,0.35-1.23,0.7-1.87,1.08l-2.88,1.72c-0.94,0.54-1.86,1.13-2.75,1.69l-2.25,1.42c-0.2,0.13-0.4,0.25-0.65,0.41l-1.92,1.3
					c-0.71,0.48-1.42,0.96-2.14,1.46l-3.39,2.51l-0.07,0.05c-4.95,3.81-9.57,8.17-13.74,12.95c-4.21,4.8-8.4,10.44-12.81,17.28
					c-2.46,3.84-4.66,8.18-6.71,13.27c-1.55,3.87-2.95,7.96-4.4,12.9c-2.44,8.42-4.18,16.47-5.62,23.36
					c-0.68,3.27-1.31,6.42-1.93,9.45c-0.72,3.59-1.41,6.99-2.09,10.21c-1.32,6.29-2.54,11.44-3.72,15.76
					c-1.24,4.55-2.52,8.49-3.8,11.73c-0.63,1.59-1.26,3.05-1.87,4.32c-0.72,1.47-1.27,2.51-1.79,3.39
					c-0.88,1.51-1.79,2.87-2.72,4.03l-0.07,0.09c-0.19,0.26-0.37,0.45-0.51,0.61c-0.09,0.1-0.17,0.19-0.24,0.27l-0.26,0.3
					c-4.29,4.73-9.68,9.03-16.01,12.76c-3.72,2.18-7.78,4.17-12.08,5.92l-3.13,1.22c-0.68,0.25-1.37,0.49-2.05,0.73
					c-0.38,0.13-0.76,0.26-1.13,0.4l-1.07,0.34c-0.71,0.23-1.43,0.46-2.1,0.66l-1.71,0.5c-0.5,0.15-1.01,0.29-1.52,0.42l-0.06,0.02
					c-4.34,1.17-8.81,2.11-13.25,2.79c-4.51,0.67-9.04,1.07-13.4,1.17c-1.88,0.02-4.34,0.02-6.75-0.14
					c-2.41-0.16-4.55-0.41-6.52-0.76l-0.18-0.03c-5.91-1.09-12.01-3.25-18.64-6.59c-6.62-3.34-12.89-7.44-17.62-10.63
					C911.8,699.49,908.87,697.44,906.03,695.45L906.03,695.45z"/>
				<path class="st7" d="M1215.1,462.97c-0.11-8.17-0.68-16.44-1.7-24.58v-0.02c-1.03-7.95-2.5-16.03-4.38-24.02l-0.03-0.15
					c0,0,0-0.02,0-0.03l-0.05-0.2c-2.44-10.17-6.04-20.18-10.68-29.74c-4.35-8.99-9.88-18.09-16.42-27.05
					c-6.08-8.33-13.26-16.9-21.96-26.19c-7.8-8.33-16.05-16.44-23.8-23.96l-0.08-0.07c-5.9-5.72-11.59-11.78-16.47-17.01l-2.5-2.68
					c-4.55-4.89-9.25-9.94-14.06-14.79c-6.65-6.71-12.41-11.93-18.14-16.44c-6.84-5.38-13.85-9.84-20.86-13.25l-0.17-0.08
					c-7.8-3.74-15.85-6.91-23.9-9.41c-4.22-1.35-8.46-2.42-12.41-3.38l-6.24-1.35l-6.34-1.13h-0.07
					c-14.47-2.34-30.12-3.33-50.76-3.21l-14.61,0.22l-6.76,0.21l-6.74,0.33l-6.75,0.47l-2.32,0.21c-0.52,0.05-1.03,0.1-1.55,0.14
					c-0.98,0.09-1.96,0.18-2.96,0.29l-4.42,0.51l-4.5,0.61c-10.48,1.45-21.33,3.81-32.27,7.03c-9.88,2.96-19.96,6.68-30.85,11.4
					c-6.51,2.84-13,6.14-19.84,10.08c-6.25,3.61-12.53,7.62-18.66,11.93c-6.01,4.22-11.92,8.75-17.57,13.44
					c-5.79,4.82-11.27,9.79-16.27,14.78l-0.13,0.13c0,0-0.02,0.02-0.03,0.03l0,0c-19.54,19.54-35.7,41.88-48.03,66.42
					c-3.07,6.12-5.93,12.42-8.51,18.75c-2.55,6.34-4.89,12.85-6.96,19.41c-0.17,0.56-0.35,1.13-0.52,1.69
					c-0.33,1.07-0.67,2.14-0.98,3.23l-1.38,4.87l-0.11,0.41c-0.82,3.14-1.67,6.39-2.39,9.63c-1.57,6.92-2.85,13.73-3.8,20.24
					c-0.9,6.33-1.59,12.61-2.04,18.69c-0.43,6.22-0.66,12.53-0.68,18.77c0,16.85,1.66,33.75,4.93,50.26
					c3.28,16.54,8.2,32.8,14.63,48.34c6.44,15.56,14.45,30.54,23.82,44.53c9.29,13.88,20.05,26.98,31.97,38.92l4.51,4.31
					c0.26,0.25,0.52,0.5,0.82,0.76l3.15,2.74c11.35,9.73,24.59,18.26,40.48,26.08c14.45,7.14,29.28,13.01,43.62,18.68l0.05,0.02
					c13.25,5.22,25.23,9.85,37.72,13.68c14.55,4.46,27.57,7.07,39.78,7.98l6.57,0.37l6.49,0.14h0.08c0.25,0,0.5,0,0.75,0
					c17.5,0,35.07-2.24,52.24-6.66c7.02-1.85,13.72-3.95,19.93-6.25c6.56-2.48,12.95-5.28,18.99-8.32l1.57-0.82
					c1-0.51,2.41-1.3,4.32-2.41l1.5-0.9l0.8-0.52l2.64-1.61l2.02-1.35c3.04-2.08,6.07-4.38,9.07-6.78
					c3.53-2.83,7.21-6.03,10.94-9.51c4.06-3.81,8.25-7.98,12.42-12.38c4.86-5.09,9.98-10.78,13.9-15.16
					c1.61-1.8,3.26-3.66,4.94-5.55c3.43-3.86,6.98-7.85,10.75-12c10.54-11.66,19.88-22.65,27.74-32.66
					c6.54-8.33,12.47-16.43,18.14-24.76c4.22-6.22,7.24-11.04,9.44-14.55l3.77-6.17c9.54-15.98,16.72-32.75,21.35-49.83
					c4.72-17.34,7.02-35.43,6.83-53.8L1215.1,462.97z M904.5,697.66c-2.58-1.67-5.24-3.4-7.9-5.07
					c-5.66-3.57-11.82-7.29-18.53-10.38l-0.16-0.08l0,0l-0.04-0.02c-3.15-1.42-6.45-2.72-9.85-3.89c-3.13-1.06-6.44-2.03-10.13-2.98
					c-6.4-1.62-12.77-2.85-20.38-4.19l-2.37-0.42c-5.79-1.02-11.78-2.07-17.55-3.42c-7.47-1.75-13.35-3.75-18.51-6.3
					c-2.22-1.1-4.51-2.46-6.77-4.02c-2-1.41-3.97-3.07-6.02-5.06c-11.4-11.41-21.68-23.92-30.55-37.19
					c-8.94-13.34-16.58-27.63-22.72-42.46c-6.13-14.81-10.82-30.32-13.95-46.1c-3.12-15.74-4.7-31.87-4.71-47.93
					c0.02-9.28,0.55-18.66,1.59-27.87c3.12-27.57,10.78-54.12,22.77-78.91c2.98-6.16,6.25-12.28,9.72-18.18
					c3.45-5.81,7.23-11.63,11.27-17.3c7.6-10.74,16.54-21.32,26.59-31.44h0.01c5.71-5.67,12.11-11.24,20.14-17.53
					c7.01-5.48,14.36-10.73,21.83-15.59c8.2-5.32,15.76-9.71,23.12-13.41c4.23-2.13,8.18-3.92,12.06-5.49
					c4.42-1.78,8.48-3.15,12.34-4.16l0,0c0.87-0.22,1.75-0.44,2.62-0.66c1.56-0.39,3.12-0.78,4.68-1.15l3.69-0.82l7.26-1.43
					l3.63-0.55c0.25-0.03,0.5-0.07,0.75-0.11c0.31-0.05,0.62-0.1,0.93-0.13l2.75-0.3c0.96-0.11,1.87-0.21,2.74-0.24l2.51-0.16
					c0.39-0.03,0.77-0.05,1.06-0.05h0.04l3.76-0.07c7.22,0.06,14.6,0.88,21.75,1.67l2.37,0.26c9.02,1,17.11,1.76,24.71,2.32
					l3.53,0.2l3.59,0.1h0.07c4.18,0.05,8.45-0.12,13.04-0.5c4.61-0.38,9.06-0.95,12.8-1.45c1.07-0.14,2.14-0.29,3.2-0.43
					c7.07-0.96,14.38-1.96,21.51-2.03c3.42-0.03,6.75,0.17,9.88,0.59c3.21,0.43,6.46,1.11,9.63,2.04c2.84,0.83,5.85,1.97,9.22,3.49
					l2.29,1.08c0.47,0.24,0.93,0.48,1.39,0.73l1.7,0.9l3.5,2.02c3.49,2.12,6.7,4.88,9.54,8.21c2.62,3.05,4.98,6.6,7.21,10.84
					c1.87,3.55,3.6,7.46,5.44,12.3c1.68,4.43,3.22,9.03,4.53,13.01l1,3.04c2.56,7.79,5.21,15.85,8.66,23.56
					c2.2,4.89,4.48,9.09,6.97,12.83c2.91,4.37,6.2,8.18,9.78,11.34l0,0c4.6,4.05,10.01,7.85,16.53,11.61
					c5.67,3.28,11.52,6.18,17.5,9.1l2.1,1.02c5.45,2.65,11.08,5.4,16.42,8.37c6.9,3.83,12.2,7.41,16.67,11.26
					c1.36,1.17,2.53,2.26,3.6,3.34l0.05,0.05c0.41,0.4,0.83,0.85,1.27,1.32l1.21,1.34l0.79,0.92c2.04,2.43,3.89,5.12,5.48,7.97
					c1.6,2.92,2.9,5.92,3.88,8.92c0.99,3.03,1.76,6.25,2.28,9.53l0.03,0.16c1.02,6.69,1.54,13.22,1.53,19.39
					c-0.05,9.39-1.37,18.36-3.94,26.67l0,0c-2.62,8.54-6.58,16.67-11.78,24.2c-2.46,3.59-5.29,7.21-8.35,10.7l-2.32,2.58l-2.41,2.5
					l-3.66,3.6c-0.25,0.24-0.51,0.47-0.77,0.71l-0.48,0.44c-6.08,5.65-13.17,11.25-21.68,17.13l-4.62,3.13
					c-3.14,2.12-7.99,5.32-14.01,9.3c-0.72,0.48-1.47,0.98-2.24,1.49c-5.82,3.87-13.07,8.68-20.88,15.18
					c-4.76,4.04-9.27,8.49-13.39,13.22c-4.3,4.92-8.57,10.52-13.05,17.14c-2.51,3.74-4.78,7.84-6.92,12.53
					c-1.66,3.65-3.26,7.64-4.86,12.18c-0.59,1.65-1.13,3.29-1.65,4.86l-0.73,2.28c-0.45,1.45-0.92,2.95-1.35,4.4
					c-1.14,3.81-2.18,7.54-3.04,10.7c-0.68,2.47-1.32,4.87-1.95,7.2c-1.1,4.06-2.13,7.9-3.15,11.49
					c-1.69,5.96-3.21,10.84-4.65,14.91c-1.46,4.15-2.98,7.84-4.52,10.98l-0.03,0.07c-0.56,1.19-1.17,2.29-1.76,3.36l-0.33,0.6
					c-0.19,0.3-0.37,0.6-0.54,0.89c-0.5,0.83-0.94,1.54-1.34,2.09l-0.94,1.35l-1.52,1.9c-0.1,0.11-0.2,0.21-0.29,0.31l-1.38,1.48
					c-5.33,5.26-11.97,9.91-19.74,13.82c-7.35,3.69-15.5,6.64-24.23,8.77c-4.13,1.01-8.41,1.82-12.71,2.4
					c-4.36,0.59-8.69,0.94-12.83,1.03c-2.87,0.04-5.07,0-7.12-0.13c-2.55-0.16-4.84-0.4-7-0.75h-0.02h-0.04
					c-5.93-0.98-12.05-2.95-18.71-6.01c-6.75-3.11-13.06-6.89-17.8-9.85c-3.23-2.01-6.5-4.13-9.65-6.17L904.5,697.66z"/>
				<path class="st8" d="M1208.49,415.5l-0.03-0.14c-1.25-5.53-2.9-10.99-4.9-16.23c-1.98-5.19-4.4-10.4-7.21-15.48
					c-5.06-9.17-11.49-18.16-19.64-27.49c-7.43-8.5-15.53-16.39-21.75-22.31c-3.55-3.38-7.19-6.77-10.7-10.05
					c-3.83-3.57-7.78-7.25-11.62-10.92l-0.09-0.08c-4.94-4.72-10.03-10.3-16.03-17.56c-2.56-3.09-5.12-6.3-7.6-9.39
					c-2.51-3.14-5.11-6.38-7.72-9.54c-4.36-5.27-10.23-12.12-16.97-18.31c-6.7-6.17-13.73-11.13-20.88-14.74l-0.08-0.04
					c-6.67-3.35-13.36-6.13-19.86-8.28c-3.68-1.22-7.08-2.21-10.38-3.02c-3.75-0.94-7.2-1.68-10.54-2.26
					c-6.56-1.18-13.53-2-21.3-2.52c-3.45-0.22-7.02-0.38-10.63-0.49c-3.33-0.09-6.78-0.14-10.58-0.16
					c-5.81-0.02-11.69,0.05-17.38,0.12c-3.71,0.04-7.41,0.09-11.13,0.11c-7.58,0.06-14.19,0.24-20.25,0.54
					c-7.29,0.39-13.93,0.99-20.33,1.83l-3.58,0.49l-3.69,0.6l-7.28,1.35c-0.79,0.16-1.58,0.34-2.36,0.52
					c-0.41,0.09-0.82,0.18-1.27,0.28c-0.32,0.07-0.65,0.15-0.97,0.22c-0.88,0.19-1.78,0.39-2.66,0.63l-1.37,0.35
					c-1.89,0.48-3.84,0.97-5.72,1.53c-8.64,2.44-17.63,5.55-27.47,9.48l-0.29,0.12c-6.75,2.72-13.58,6.04-20.9,10.14
					c-6.47,3.63-13.04,7.75-19.55,12.25c-6.3,4.35-12.48,9.02-18.38,13.87c-6.19,5.09-11.94,10.27-17.1,15.4l-0.1,0.1
					c-19.67,19.67-35.9,42.19-48.27,66.94c-3.06,6.16-5.92,12.52-8.51,18.94l-1.86,4.74l-1.78,4.89l-1.97,5.76
					c-0.18,0.55-0.37,1.09-0.55,1.67l-0.75,2.42c-4.02,12.85-7.06,26.45-9.06,40.46l-0.58,4.4c-0.13,0.98-0.23,1.97-0.34,2.95
					c-0.05,0.51-0.11,1.02-0.17,1.55l-0.24,2.2l-0.2,2.33c-0.04,0.51-0.09,1.03-0.13,1.54c-0.08,0.97-0.17,1.95-0.23,2.93
					c-0.39,5.73-0.6,11.61-0.63,18.01c0,16.81,1.66,33.69,4.92,50.16c3.27,16.51,8.18,32.74,14.6,48.24
					c6.42,15.52,14.42,30.48,23.78,44.44c9.29,13.88,20.04,26.96,31.96,38.9l0.05,0.05c2.73,2.71,5.64,5.35,8.65,7.83
					c3.02,2.49,6.26,4.91,9.62,7.2c3.14,2.14,6.55,4.26,10.15,6.31c6.3,3.6,13.24,7.04,21.2,10.52c8.77,3.83,17.79,7.31,26.52,10.68
					c5.46,2.11,11.11,4.29,16.57,6.5l0.12,0.05c3.74,1.51,7.55,3.1,11.23,4.63c8.46,3.52,17.2,7.15,26.03,10.31
					c7.07,2.53,13.46,4.49,19.55,6c7.02,1.74,13.84,2.91,20.28,3.48l6.29,0.42l6.25,0.18h0.09c0.51,0,1.01,0,1.52,0
					c8.27,0,16.74-0.58,25.21-1.72c8.88-1.2,17.7-3.02,26.23-5.42c6.38-1.82,12.78-4.01,19.04-6.51l0.06-0.02
					c6.34-2.64,12.45-5.61,18.15-8.81l1.46-0.87c1.03-0.6,2.46-1.5,4.23-2.7l0.08-0.06c0.23-0.16,0.47-0.33,0.71-0.5
					c0.7-0.48,1.49-1.03,2.31-1.66c0.17-0.13,0.35-0.26,0.53-0.4c0.39-0.29,0.8-0.59,1.21-0.92l1.83-1.45
					c2.85-2.32,5.72-4.9,8.54-7.66c3.28-3.22,6.64-6.8,9.97-10.64c3.43-3.94,7.08-8.4,11.16-13.61c2.53-3.21,5.13-6.6,7.88-10.19
					c1.52-1.98,3.08-4.01,4.68-6.08c4.24-5.47,9.22-11.85,14.73-18.23l1.43-1.66c9.88-11.48,18.42-21.4,25.73-30.18
					c6.98-8.38,13.31-16.25,18.8-23.4c4.45-5.77,7.71-10.25,10.1-13.52l4.18-5.81l2.92-4.24l2.83-4.34l2.13-3.46
					c0.21-0.34,0.42-0.68,0.64-1.05l0.85-1.48c0.19-0.34,0.39-0.67,0.58-1.01c0.38-0.66,0.76-1.31,1.15-2.02l0.74-1.36
					c0.83-1.53,1.7-3.12,2.48-4.7l0.77-1.51l2.24-4.68c0.33-0.7,0.63-1.4,0.94-2.1c0.15-0.35,0.31-0.71,0.48-1.08l0.7-1.59
					c0.15-0.36,0.3-0.73,0.45-1.09l1.49-3.67l1.21-3.22c0.34-0.86,0.63-1.71,0.9-2.53l0.29-0.84c0.11-0.32,0.22-0.63,0.32-0.94
					c0.27-0.77,0.54-1.56,0.77-2.35l1-3.22l0.02-0.07c0.21-0.71,0.41-1.42,0.61-2.14l0.49-1.72c0.11-0.38,0.22-0.77,0.32-1.18
					l0.42-1.67c0.09-0.37,0.19-0.74,0.28-1.11c0.18-0.72,0.37-1.46,0.54-2.24c0.96-4.1,1.8-8.53,2.58-13.58
					c0.63-4.29,1.12-8.78,1.48-13.78c0.29-4.37,0.42-9.01,0.41-13.82c-0.14-13.91-1.85-28.29-5.09-42.74L1208.49,415.5z
					 M1196.2,472.7c-2.3,8.32-5.83,16.52-10.47,24.36c-4.49,7.47-9.95,14.63-16.24,21.31c-5.6,6-12.15,11.95-20.03,18.19l-4.42,3.44
					l-13.46,10.31c-3.52,2.68-6.82,5.25-10.13,7.88c-3.22,2.59-7.5,6.1-12.04,10.25c-4.52,4.13-8.93,8.68-13.13,13.49
					c-4.35,4.99-8.82,10.71-13.3,17.02c-2.51,3.53-4.84,7.4-7.12,11.83c-1.79,3.47-3.53,7.24-5.34,11.53
					c-1.72,4.08-3.19,7.98-4.27,10.91c-1.29,3.49-2.45,6.79-3.62,10.14c-0.54,1.56-1.07,3.1-1.59,4.6
					c-1.61,4.66-3.13,9.06-4.61,13.09c-2.03,5.57-3.86,10.16-5.6,14.03c-4.15,9.34-7.87,14.5-9.72,16.74
					c-0.14,0.18-0.28,0.35-0.42,0.52c-0.17,0.21-0.33,0.41-0.46,0.56l-1.39,1.52l-2.03,1.97c-3.29,2.9-7.01,5.63-11.06,8.13
					c-3.75,2.32-7.9,4.48-12.34,6.42c-7.32,3.2-15.25,5.74-23.57,7.57c-8.29,1.81-16.57,2.82-24.56,3c-2.91,0.04-5.29,0-7.49-0.11
					c-2.66-0.15-5.08-0.38-7.4-0.71h-0.03c-5.95-0.88-12.09-2.66-18.77-5.44c-5.37-2.24-10.92-5.03-17.99-9.05
					c-3.68-2.09-7.38-4.3-10.97-6.44c-2.25-1.34-4.51-2.69-6.77-4.01c-5.7-3.33-11.87-6.82-18.41-9.76l-0.24-0.11
					c-3.22-1.42-6.62-2.76-10.12-3.99c-3.01-1.05-6.3-2.07-10.34-3.2c-6.39-1.78-12.91-3.24-19.23-4.65l-2.03-0.46
					c-6.51-1.47-13.24-2.98-19.66-4.94c-3.53-1.07-6.67-2.18-9.6-3.38c-3.33-1.36-6.26-2.8-8.97-4.39
					c-4.11-2.39-7.92-5.3-11.31-8.65l-0.05-0.05c-11.41-11.43-21.71-23.96-30.6-37.24c-8.96-13.37-16.61-27.69-22.76-42.55
					c-6.14-14.84-10.85-30.39-13.98-46.19c-3.13-15.77-4.71-31.93-4.72-48.03c0.02-9.68,0.6-19.47,1.71-29.06
					c0.81-6.77,1.91-13.59,3.27-20.27c1.46-7.15,3.07-13.66,4.92-19.92c1.92-6.54,4.13-13.08,6.57-19.42l1.17-2.98
					c0.23-0.58,0.45-1.16,0.72-1.77l1.63-3.89l2.51-5.64c0.24-0.55,0.5-1.09,0.76-1.64l1.4-2.92c2.98-6.12,6.25-12.21,9.73-18.08
					c3.31-5.59,7.08-11.37,11.23-17.19c7.6-10.72,16.52-21.25,26.49-31.3l0.02-0.02c5.51-5.47,11.85-11.02,19.38-16.97
					c6.77-5.33,13.84-10.43,21.02-15.15c7.86-5.16,15.14-9.44,22.26-13.09c4.06-2.08,7.86-3.85,11.61-5.42
					c4.24-1.77,8.14-3.16,11.9-4.24l4.53-1.25c1.29-0.36,2.5-0.69,3.77-1l4.19-1.05c0.88-0.2,1.77-0.4,2.66-0.59l1.48-0.33
					c6.1-1.3,11.55-2.13,16.65-2.56c0.5-0.03,1-0.07,1.5-0.1c0.89-0.06,1.77-0.12,2.66-0.17l4.2-0.12c7.48-0.06,15.11,0.48,22.48,1
					c6.62,0.48,14.86,1.08,22.79,1.54l3.66,0.16l3.65,0.07c8.67,0.07,17.15-0.65,25.02-1.43l2.71-0.27
					c7.05-0.7,14.35-1.42,21.46-1.43c3.85-0.02,7.48,0.21,10.89,0.64c3.59,0.45,7.16,1.16,10.6,2.12c3.42,0.95,6.86,2.18,10.19,3.63
					c3.17,1.4,6.36,3.05,9.75,5.01h0.01c3.44,2.03,6.66,4.63,9.56,7.73c2.7,2.87,5.18,6.18,7.58,10.13
					c2.01,3.3,3.98,7.08,6.02,11.55c1.86,4.07,3.59,8.31,5.19,12.28c0.46,1.15,0.92,2.29,1.38,3.44c2.87,7.19,5.84,14.62,9.45,21.71
					c2.34,4.59,4.7,8.54,7.23,12.1c2.9,4.09,6.09,7.7,9.48,10.75l2.46,2.12c0.25,0.22,0.51,0.44,0.79,0.67l1.05,0.84
					c0.23,0.18,0.46,0.37,0.7,0.56c0.48,0.39,0.96,0.77,1.47,1.16l2.17,1.61c3.04,2.21,6.07,4.26,8.99,6.08
					c5.01,3.18,10.21,6.16,15.23,9.04c1.06,0.61,2.12,1.22,3.18,1.83l0.18,0.1c2.78,1.61,5.66,3.27,8.47,4.97
					c1,0.6,2,1.22,2.99,1.84l1.19,0.74c0.46,0.3,0.91,0.59,1.37,0.89c0.95,0.61,1.84,1.18,2.71,1.78l0.08,0.06
					c2.36,1.56,4.84,3.38,7.82,5.71c0.35,0.29,0.71,0.59,1.06,0.88c0.91,0.75,1.77,1.46,2.59,2.22c0.24,0.22,0.48,0.43,0.72,0.64
					c0.35,0.31,0.71,0.63,1.04,0.96l1.81,1.77l0.07,0.07c0.31,0.29,0.64,0.65,0.99,1.04c0.18,0.2,0.37,0.4,0.53,0.57l0.86,0.93
					l2.3,2.72l2.28,3.04c0,0,0.07,0.1,0.11,0.15l1.83,2.82c0,0,0.06,0.09,0.09,0.14l0.91,1.61l1.11,2.05
					c2.78,5.49,4.75,11.53,5.85,17.94l0,0c0.71,4.34,1.21,8.27,1.54,12.01c0.33,4.12,0.49,8.2,0.46,12.08
					c-0.13,9.17-1.35,18.03-3.64,26.33L1196.2,472.7z"/>
				<path class="st0" d="M1208.03,416.94l-0.03-0.14c-1.26-5.99-3.06-11.86-5.34-17.43c-2.25-5.51-5.07-10.95-8.37-16.17
					c-3.1-4.91-6.73-9.79-10.8-14.51c-3.61-4.2-7.64-8.43-12.33-12.92c-6.97-6.67-14.52-13.1-21.18-18.76
					c-6.89-5.86-14.01-11.92-20.83-18.32l-0.04-0.03c-5.15-4.85-10.13-10.62-15.67-18.17c-3.24-4.42-6.4-9.07-9.45-13.56
					c-1.54-2.27-3.08-4.54-4.64-6.79c-4.59-6.62-9.67-13.65-15.75-20.13c-3.14-3.35-6.37-6.35-9.62-8.92
					c-3.52-2.79-7.23-5.23-11.04-7.24l-0.09-0.05c-10.76-5.66-21.94-9.7-33.22-12c-5.36-1.14-11.07-1.96-17.45-2.51
					c-5.06-0.44-10.6-0.68-17.42-0.75c-6.57-0.05-13.21,0.09-19.64,0.22l-1.13,0.02c-6.53,0.14-13.51,0.25-20.4,0.19l-7.01-0.05
					h-6.91c-5.51,0.09-10.47,0.17-15.43,0.45l-7.69,0.49c-0.69,0.04-1.39,0.11-2.06,0.18l-2.69,0.27c-1.02,0.1-2.07,0.2-3.15,0.35
					c-4.25,0.51-8.52,1.18-12.78,2c-2.09,0.11-5.74,0.91-10.53,2.34c-0.82,0.21-1.63,0.41-2.45,0.63
					c-7.4,1.97-15.22,4.49-24.58,7.93l-0.28,0.1c-6.97,2.6-14.14,5.93-21.91,10.18c-6.74,3.69-13.43,7.8-20.44,12.58
					c-6.57,4.48-13.03,9.29-19.2,14.3c-6.62,5.38-12.44,10.58-17.78,15.88l-0.17,0.17c-19.8,19.81-36.12,42.5-48.5,67.47
					c-3.06,6.22-5.91,12.63-8.49,19.08l-1.21,3.08c-0.24,0.61-0.48,1.23-0.68,1.8l-1.75,4.82l-1.68,4.97l-1.58,5
					c-2.02,6.62-3.8,13.41-5.29,20.19c-1.46,6.72-2.67,13.64-3.6,20.52c-0.71,5.06-1.26,10.51-1.74,17.22l-0.25,4.25
					c-0.05,0.95-0.09,1.89-0.12,2.84c-0.02,0.49-0.03,0.98-0.05,1.49l-0.08,2.13c-0.02,0.49-0.02,0.98-0.03,1.47l-0.06,5.04
					c0,16.78,1.66,33.62,4.91,50.06c0.84,4.24,1.79,8.47,2.85,12.67c5.42,22.24,13.85,43.38,25.25,63.26
					c3.19,5.66,6.59,11.19,10.2,16.58c9.28,13.86,20.02,26.94,31.93,38.86l0.14,0.13c2.84,2.82,5.92,5.53,9.14,8.04
					c5.85,4.55,12.58,8.77,20,12.53c6.11,3.09,12.88,6.03,21.3,9.24c5.49,2.09,11.09,4.08,16.5,6c1.66,0.59,3.31,1.18,4.97,1.77
					c6.28,2.24,13.69,4.94,21.02,7.98l0.05,0.02c5.89,2.45,11.82,5.14,17.56,7.74c6.26,2.84,12.73,5.77,19.24,8.44
					c7.14,2.92,13.49,5.18,19.42,6.9c7.2,2.09,13.89,3.42,20.44,4.09l6.01,0.47l6.01,0.22h0.1c0.67,0.01,1.33,0.02,2,0.02
					c8.17,0,16.57-0.63,25.01-1.87c9-1.33,17.88-3.33,26.42-5.97l4.45-1.43l0.11-0.04c0.97-0.34,1.94-0.7,2.9-1.05
					c0.51-0.19,1.02-0.38,1.57-0.57l0.75-0.28c0.5-0.18,1-0.37,1.5-0.56l5.67-2.36c0.16-0.06,0.31-0.13,0.47-0.2l5.89-2.78
					l5.35-2.85l6.21-3.69l1.85-1.23c0.42-0.28,0.93-0.62,1.52-1.07l3.66-2.83c0.4-0.31,0.75-0.63,1.1-0.93
					c0.15-0.14,0.31-0.27,0.45-0.4c0.92-0.78,1.83-1.63,2.78-2.53l0.7-0.66c2.61-2.55,5.27-5.43,7.89-8.56
					c5.17-6.12,11.16-14.55,18.85-26.49c1.01-1.55,2.03-3.15,3.08-4.78c2.59-4.03,5.28-8.2,8.19-12.57
					c3.8-5.67,8.42-12.36,13.86-18.98c9.99-12.19,19.05-22.55,26.61-31.07c2.14-2.41,4.18-4.71,6.12-6.9
					c5.16-5.8,9.61-10.82,13.35-15.11c5.01-5.73,8.78-10.18,11.27-13.13l4.03-4.82l0.04-0.05c6.39-7.77,11.69-15.26,16.19-22.87
					l0.88-1.47l0.91-1.62c0.19-0.35,0.39-0.69,0.58-1.04c0.37-0.67,0.75-1.33,1.14-2.06l1.58-3.04l2.32-4.72
					c0.19-0.38,0.36-0.77,0.53-1.16c0.07-0.17,0.15-0.34,0.25-0.55l0.48-1.08c0.31-0.7,0.63-1.39,0.93-2.1l1.33-3.24l1.28-3.33
					c1.77-4.75,3.18-9.15,4.31-13.44l0.15-0.55c0.11-0.4,0.22-0.8,0.32-1.22l0.41-1.69c0.08-0.34,0.16-0.68,0.25-1.01
					c0.19-0.79,0.39-1.6,0.56-2.46l0.7-3.32l0.64-3.56c0.82-4.9,1.39-9.48,1.74-14c0.34-4.6,0.51-9.33,0.49-14.06
					c-0.11-11.88-1.5-24.29-4.15-36.88L1208.03,416.94z M1198.24,473.09c-0.98,4.41-2.24,8.81-3.74,13.08
					c-1.55,4.4-3.34,8.61-5.31,12.52c-1.99,3.98-4.26,7.97-6.76,11.86c-2.33,3.6-4.96,7.23-8,11.07l-2.19,2.69l-2.3,2.66
					c-0.58,0.69-1.2,1.36-1.86,2.08l-1.57,1.71l-3.58,3.71c-0.51,0.52-1.03,1.02-1.55,1.52c-0.31,0.3-0.62,0.6-0.91,0.89l-1.23,1.2
					c-0.25,0.24-0.51,0.48-0.77,0.72l-3.05,2.81l-4.22,3.77l-14.49,12.78c-5.4,4.76-12.11,10.68-19.58,18.02
					c-4.33,4.26-8.68,8.9-12.92,13.78c-4.47,5.15-9.04,10.85-13.59,16.95c-2.49,3.33-4.88,6.99-7.31,11.18
					c-1.9,3.28-3.8,6.84-5.79,10.87c-1.8,3.62-3.38,7.09-4.83,10.3c-1.44,3.2-2.78,6.28-4.07,9.26l-0.7,1.62
					c-2.38,5.51-4.63,10.71-6.77,15.35c-2.38,5.17-4.52,9.45-6.56,13.12c-4.64,8.41-8.78,13.28-10.83,15.43l-0.09,0.1
					c-0.49,0.55-1,1.03-1.49,1.5l-0.68,0.65c-0.12,0.12-0.23,0.23-0.34,0.33l-1.91,1.61c-3.99,3.13-8.28,5.96-12.76,8.42
					c-4.58,2.5-9.31,4.69-14.09,6.52c-7.26,2.8-14.99,5.02-22.97,6.6c-8.01,1.58-16.01,2.47-23.73,2.65
					c-2.95,0.05-5.52,0.02-7.86-0.09c-2.77-0.14-5.32-0.36-7.79-0.67c-5.98-0.78-12.14-2.38-18.84-4.88
					c-5.42-2.03-11.19-4.64-18.17-8.24c-4.27-2.2-8.58-4.55-12.74-6.83c-1.73-0.94-3.46-1.89-5.19-2.83
					c-6.71-3.63-12.42-6.58-18.42-9.21l-0.18-0.08c0,0,0,0-0.01,0l-0.11-0.05c-6.24-2.7-13.03-5.14-20.72-7.44
					c-5.23-1.58-10.57-3.02-15.73-4.42c-1.76-0.48-3.52-0.95-5.28-1.43c-6.55-1.79-13.55-3.79-20.38-6.32
					c-7.18-2.65-13.25-5.64-18.58-9.16c-3.71-2.45-7.11-5.2-10.12-8.2h-0.01c-3.66-3.68-7.19-7.46-10.61-11.34
					c-8.72-15.08,12.83-31.32,0.75-52.45c-18.73-32.78-28.23-69.84-28.23-110.17s9.5-77.39,28.23-110.16
					c18.68-32.69,44.18-58.97,75.8-78.11c15.89-9.61,28.33-42.61,45.97-47.46c-0.01,0-0.03-0.01-0.04-0.02
					c3.04-0.5,6.03-0.89,8.96-1.16c4.47-0.4,9.16-0.61,14.29-0.65c6.06-0.01,12.07,0.21,18.17,0.46l18.35,0.8l3.58,0.11l3.66,0.05
					c8.07,0.01,15.94-0.45,22.58-0.9l2.62-0.17c6.39-0.43,12.99-0.87,19.44-0.92c4.62-0.03,8.78,0.15,12.73,0.54
					c4.28,0.43,8.45,1.14,12.41,2.11c4.01,0.98,8.02,2.3,11.94,3.9c3.73,1.53,7.56,3.39,11.37,5.54c3.41,1.93,6.64,4.37,9.62,7.26
					c2.78,2.69,5.38,5.77,7.94,9.42c4.88,6.97,8.68,14.53,12.45,22.31c0.65,1.35,1.3,2.7,1.95,4.06c3.12,6.49,6.34,13.2,10.03,19.6
					c2.48,4.3,4.92,8.02,7.46,11.39c2.88,3.81,5.96,7.23,9.17,10.17l0.14,0.13c2.82,2.54,5.89,5.11,9.16,7.66
					c2.92,2.24,6.04,4.52,9.55,6.96c3.86,2.68,7.83,5.32,11.67,7.86c2.56,1.7,5.12,3.4,7.65,5.12c4.64,3.16,10.08,6.96,15.25,11.16
					c0.35,0.29,0.69,0.58,1.04,0.87c0.88,0.73,1.71,1.41,2.52,2.15l0.65,0.58c0.36,0.32,0.73,0.64,1.09,0.96l1.72,1.62l3.25,3.25
					l2.35,2.59c0.14,0.16,0.27,0.32,0.4,0.48l1.79,2.16c0.29,0.36,0.57,0.74,0.85,1.11c0.18,0.24,0.36,0.48,0.54,0.71l0.04,0.06
					c0.63,0.8,1.23,1.69,1.87,2.63c0.25,0.37,0.49,0.73,0.78,1.14c0.15,0.21,0.31,0.47,0.47,0.75l1.26,2.09
					c0.16,0.26,0.33,0.53,0.43,0.74l1.17,2.19c0.07,0.15,0.15,0.29,0.23,0.43c0.07,0.13,0.15,0.26,0.23,0.45l0.52,1.13
					c2.53,5.36,4.38,11.16,5.52,17.24l0.05,0.27c0.77,4.35,1.35,8.36,1.76,12.22c0.43,4.25,0.68,8.47,0.76,12.5
					c0.11,9.48-0.78,18.6-2.65,27.11L1198.24,473.09z"/>
			</g>
		</g>
	</g>
</g>
</svg>
