<?xml version="1.0" encoding="utf-8"?>
<!-- Generator: Adobe Illustrator 27.6.1, SVG Export Plug-In . SVG Version: 6.00 Build 0)  -->
<svg version="1.1" id="Capa_1" xmlns="http://www.w3.org/2000/svg" xmlns:xlink="http://www.w3.org/1999/xlink" x="0px" y="0px"
	 viewBox="0 0 1920 1080" style="enable-background:new 0 0 1920 1080;" xml:space="preserve">
<style type="text/css">
	.st0{fill:#FAA200;}
	.st1{fill:#F65B0E;}
	.st2{opacity:0.7;fill:#CF427B;enable-background:new    ;}
	.st3{fill:#75396F;}
	.st4{fill:#3C397D;}
	.st5{fill:#212140;}
	.st6{opacity:0.6;fill:#7272C7;enable-background:new    ;}
	.st7{opacity:0.5;fill:#5454AB;enable-background:new    ;}
	.st8{opacity:0.8;fill:#454587;enable-background:new    ;}
	.st9{fill:#36366B;}
</style>
<g id="Diseño">
	<g>
		<g>
			<path class="st0" d="M1298.06,316.16c-206.86-354.39-769.2-208.18-765.09,207.4c-8.3,266.85,267.59,468.55,520.06,394.31
				c65.15-12.16,125.96-76.65,161.45-120.3C1350.16,657.52,1401.19,492.46,1298.06,316.16L1298.06,316.16z M1255.98,583.28
				c0,0-21.06,73.95-100.98,91.51c-147.97,54.78-121.14,170.3-207.68,200.42v0.03c-8.88,2.24-18.86,2.62-29.11-0.87
				c-60.21-33.95-115.18-77.13-189.34-76.75c-182.6-144.07-160.67-464.21,43-578.81c25.31-15.31,52.11-26.91,80.18-34.75
				c241.23,20.52,456.72,151.25,403.93,399.21V583.28z"/>
			<path class="st1" d="M1298.06,316.16c-36.67-62.18-86.79-111.76-148.95-147.37c-62.16-35.58-131.48-53.63-206.02-53.63
				s-143.86,18.04-206.01,53.62c-62.18,35.63-112.3,85.21-148.96,147.38c-36.6,62.04-55.15,131.82-55.15,207.39
				s18.56,145.34,55.15,207.39c36.68,62.21,86.79,111.79,148.95,147.37c62.1,35.58,131.42,53.62,206.01,53.62
				c35.42,0,69.64-4.07,102.47-12.15c36.32-8.94,72.06-25.22,100.54-49.76c28.56-24.61,38.68-40.04,53.95-56.28
				c12.33-13.12,22.66-25.45,35.18-39.45c8.49-9.49,17.46-20.65,27.66-33.27c45.26-56.05,90.32-141.9,90.32-217.47
				s-18.56-145.35-55.15-207.39L1298.06,316.16z M1277.08,589.89c-0.46,1.58-0.92,3.16-1.42,4.75c0,0-12.96,64.03-92.02,99.37
				c-84.46,37.75-184.5,161.82-184.5,161.82s-7.08,8.33-18.55,17.43c-0.02,0-0.04,0-0.06,0v0.05
				c-20.74,16.43-55.78,35.28-89.27,11.94c-9.13-6.36-17.32-12.61-24.97-18.58l0,0c-35.97-28.11-60.08-50.33-114.73-51.63
				c-41.86-29.43-76.25-67.41-102.4-113.17c-30.32-53.05-45.69-113.05-45.69-178.31s15.37-125.26,45.69-178.31
				c30.23-52.91,71.51-95.45,122.69-126.43c25.32-15.31,52.12-26.91,80.19-34.75c248.96-30.01,398.26,187.62,399.11,188.86
				c0,0,0,0,0,0.02l0,0c0,0,65.59,81.52,25.91,216.96l0,0L1277.08,589.89z"/>
			<path class="st2" d="M1298.06,316.16c-36.67-62.18-86.79-111.76-148.95-147.37c-62.16-35.58-131.48-53.63-206.02-53.63
				s-143.86,18.04-206.01,53.62c-62.18,35.63-112.3,85.21-148.96,147.38c-36.6,62.04-55.15,131.82-55.15,207.39
				s18.56,145.34,55.15,207.39c36.68,62.21,86.79,111.79,148.95,147.37c62.1,35.58,131.42,53.62,206.01,53.62
				c57.78,0,114.55-6.31,162.94-32.24c3.15-1.69,5.27-3.17,7.93-4.8c3.24-1.98,6.36-4.26,9.49-6.5c2.65-1.91,5.33-3.74,7.77-5.88
				c3.07-2.69,6.21-4.98,9.08-7.46c1.95-1.68,4.09-3.51,5.81-5.02c6.96-6.12,15.29-14.69,22.71-22.56
				c14.4-15.27,28.06-30.93,39.72-43.28c7.95-8.43,15.46-17.23,22.34-24.91c11.46-12.8,21.57-24.21,32.02-38.26
				c3.87-5.2,7.92-10.17,12.01-15.63c2.23-2.97,4.55-5.91,6.66-9.48c36.6-62.05,71.65-116.8,71.65-192.36
				S1334.65,378.2,1298.06,316.16L1298.06,316.16z M1282.69,523.55L1282.69,523.55c-121.43,61.99-126.77,144.84-126.77,144.84
				s-29.04,134.66-41.59,159.89l0,0c-12.55,25.22-40.87,44.67-40.87,44.67s-113.46,63.9-181,22.81
				c-23.18-14.1-43.78-28.93-63.41-40.08c0,0,0,0-0.01,0c-12.1-6.87-23.82-12.34-35.55-15.39c-7.32-3.71-14.53-7.7-21.61-11.99
				c-51.15-30.93-92.43-73.46-122.69-126.42c-30.32-53.05-45.69-113.05-45.69-178.31s15.37-125.26,45.69-178.31
				c30.23-52.91,71.51-95.45,122.69-126.43c25.76-15.58,53.04-27.32,81.65-35.16c113.33-14.56,176.54,9.46,255.76,43.79
				c27.68,11.99,59.11,34.95,88.79,62.33c0.14,0.16,0.27,0.32,0.4,0.48l0.07-0.05c55.07,50.93,103.98,116.99,111.4,156.39
				c11.44,60.73-27.25,76.96-27.25,76.96L1282.69,523.55z"/>
			<path class="st3" d="M1298.02,316.12c-3.23-5.47-8.43-10.73-12.74-15.67c-6.7-7.69-12.97-14.72-19.66-21.51
				c-14.53-14.74-27.51-27.96-42.5-42.44c-17.6-17-33.23-36.33-51.99-52.14c-6.85-5.77-14.12-11.07-22.06-15.62
				c-62.16-35.58-131.48-53.63-206.02-53.63s-143.86,18.04-206.01,53.62c-62.18,35.63-112.3,85.21-148.96,147.38
				c-36.6,62.04-55.15,131.82-55.15,207.39s18.56,145.34,55.15,207.39c24.21,41.06,54.27,76.61,89.78,106.27
				c18.3,15.28,46.75,24,69.7,32.14c31.34,11.12,54.76,20.77,81.21,31.34c36.26,14.49,71.14,31.24,114.27,31.24
				c57.78,0,112.39-10.82,162.94-32.24c1.19-0.51,2.77-1.6,3.87-2.29c3.12-1.94,4.56-2.8,6.99-4.38c10.53-6.87,20.34-16.37,29.22-23
				c7.18-5.35,13.55-13.38,19.72-19.4c17.98-17.56,32.71-35.03,48.65-53.05c15.11-17.07,30.95-34.84,45.65-53.09
				c5.25-6.52,10.08-12.52,14.93-19.29c1.28-1.78,2.73-3.6,4.05-5.48c0.35-0.5,0.76-0.87,1.08-1.41
				c36.6-62.05,73.02-119.18,73.02-194.75s-18.56-145.35-55.15-207.39L1298.02,316.12z M1255.45,664.24L1255.45,664.24
				L1255.45,664.24c-14.35,16.06-33.48,32.22-58.4,44.01c-68.1,32.2-131.67,113.67-193.58,161.72l0,0c-3.09,2.4-6.18,4.72-9.27,6.94
				c-64.85,46.73-113.62,22.55-129.69,14.24c-5.9-3.05-18.95-12.85-32.15-22.96c-0.81-0.65-2.74-2.12-5.08-3.9
				c-5.42-4.16-10.69-8.22-15.36-11.75c-3.21-2.75-6.82-5.28-9.83-7.25c-1.89-1.33-3.48-2.39-4.63-3.07
				c-1.22-0.71-2.04-1.01-2.04-1.01c-7.99-3.98-15.86-8.3-23.58-12.98c-9.4-5.68-18.46-11.76-27.18-18.21
				c-4.62-3.45-8.42-6.44-10.89-8.41c-0.87-0.7-1.74-1.39-2.6-2.1c-0.09-0.07-0.15-0.12-0.21-0.18
				c-32.66-26.84-60.07-59.49-81.8-97.52c-30.32-53.05-45.69-113.05-45.69-178.31s15.37-125.26,45.69-178.31
				c30.23-52.91,71.51-95.45,122.69-126.43c25.76-15.58,53.04-27.32,81.65-35.16c134.19-24.15,227.35,31.74,262.37,46.83
				c13.15,5.67,35.46,17.95,60.26,35.96l0,0c41.23,29.94,89.35,75.69,113.69,133.15c38.99,92.02,2.58,205.06,2.58,205.06
				s-10.11,29.63-36.92,59.64H1255.45z"/>
			<path class="st4" d="M1214.43,736.67L1214.43,736.67L1214.43,736.67c-79.82,29.72-160.92,120.3-160.92,120.3
				c-7.28,7.77-15.19,16.19-23.83,25.35c0,0-52.54,48.5-140.32,35.14c-26.7-11.18-56.69-49-56.69-49
				c-19.77-16.08-37.22-27.19-37.22-27.19c-4-2.03-8.1-4.11-13.25-6.98c-9.67-5.4-21.44-12.6-30.92-19.4
				c-11.71-8.39-20.6-15.76-20.6-15.76c0,0.02,0.01,0.04,0.02,0.06c0-0.02-0.01-0.04-0.02-0.06l0,0
				c-32.53-26.79-59.83-59.35-81.49-97.26c-30.32-53.05-45.69-113.05-45.69-178.31s15.37-125.26,45.69-178.31
				c30.23-52.91,71.51-95.45,122.69-126.43c51.52-31.16,109.13-46.96,171.22-46.96s119.7,15.8,171.23,46.96
				c24.49,14.83,46.71,32.31,66.54,52.3l0,0c0,0,115.73,60.28,141.77,180.25c26.05,119.97-13.57,250.06-108.21,285.29
				L1214.43,736.67z M1298.06,316.16c-0.81-1.38-1.97-2.74-2.96-4c-1.66-2.09-3.25-3.98-4.9-5.95c-4.6-5.49-9.1-10.61-13.8-15.74
				c-14.86-16.25-30.39-30.98-46.55-47.16c-7.23-7.24-14.55-14.81-21.75-22.55c-17.97-19.32-36.3-38.98-58.99-51.98
				c-62.16-35.58-131.48-53.63-206.02-53.63s-143.86,18.04-206.01,53.62c-62.18,35.63-112.3,85.21-148.96,147.38
				c-36.6,62.04-55.15,131.82-55.15,207.39s18.56,145.34,55.15,207.39c29.75,50.46,68.33,92.59,115.02,125.7
				c0.03,0.02,0.07,0.04,0.1,0.06c0.06,0.04,0.13,0.08,0.2,0.12c0.17,0.1,0.3,0.18,0.47,0.28c0.41,0.25,0.84,0.51,1.26,0.76
				c0.13,0.08,0.28,0.17,0.4,0.24c1.79,1.04,3.53,2.05,5.42,3.14c8.82,5.07,18,9.99,27.45,14.28c6.1,2.77,11.44,5.26,17.17,7.77
				c9.9,4.32,19.86,8.44,30.25,12.68c2.36,0.96,4.99,2,7.36,2.94c47.1,18.69,96.61,33.03,149.87,33.03
				c57.78,0,112.39-10.82,162.94-32.24c0.05-0.02,0.1-0.06,0.15-0.09c0.11-0.06,0.21-0.12,0.31-0.18c0.35-0.2,0.69-0.4,1.03-0.6
				c1.54-0.89,2.96-1.88,4.56-2.8c0.55-0.31,1.07-0.64,1.57-0.95c1.13-0.69,2.19-1.36,3.22-2.05c1.94-1.3,3.81-2.63,5.95-4.19
				s4.66-3.37,6.47-4.81c5.45-4.31,10.08-8.15,15.09-12.5c3.22-2.8,6.3-5.36,9.03-7.96c3.49-3.33,7.02-6.47,10.2-9.64
				c5.54-5.51,10.26-10.98,15.24-16.09c2.77-2.83,5.62-6.46,8.31-9.44c4.61-5.12,8.42-9.57,12.88-14.66
				c9.78-11.16,19.54-21.75,29.28-32.73c11.48-12.95,22.6-26.19,33.56-40c3.82-4.82,7.57-9.73,11.34-14.72
				c1.36-1.81,2.71-3.62,4.06-5.47c0.43-0.58,0.86-1.17,1.29-1.75c0.12-0.16,0.23-0.32,0.35-0.48c0.06-0.07,0.11-0.15,0.17-0.23
				c0.02-0.03,0.11-0.14,0.12-0.17c36.6-62.05,73-119.08,73-194.65s-18.56-145.35-55.15-207.39V316.16z"/>
			<path class="st5" d="M771.87,218.81c125.95-78.64,305.21-55.97,407.85,51.12c20.74-0.59,30.59,9.94,58.89,10.36
				c-22.13-17.33-30.92-28.54-42.76-45.08C1051.3,33.35,703.14,104.04,588.11,316.15c-98.43,160.44-60.95,394.7,82.17,515.08
				c13.44,11.3,27.61,18.64,42.89,27.78c8.1,4.85,18.01,8.06,26.62,12.23c5.22,2.35,9.28,3.88,14.34,5.88
				c8.23,3.25,16.07,6.65,24.13,9.42c17.95,6.15,36.11,16.04,54.18,21.87c-3.94-11.28,13.1-27.85,0.23-39.97
				c-12.85-12.08-37.22-27.19-37.22-27.19c-17.31-7.55-53.9-32.27-64.78-42.14c0,0.02,0.01,0.04,0.02,0.06
				c0-0.02-0.01-0.04-0.02-0.06l0,0c-184.34-143.39-163.28-465.27,41.2-580.31L771.87,218.81z"/>
		</g>
		<g>
			<path class="st6" d="M1366.01,515.24v-0.08c-0.41-16.8-1.75-33.78-3.97-50.55c-2.4-16.45-5.74-33.02-9.91-49.26l-0.17-0.63
				c-3.79-14.06-8.35-28.1-13.56-41.78l-2.58-6.62l-5.76-13.64l-0.74-1.62c-2.78-6.04-5.65-12.29-8.83-18.37
				c-5.25-10.48-11.03-20.35-16.05-28.71c-0.93-1.5-1.88-2.99-2.84-4.48c-0.51-0.8-1.03-1.6-1.55-2.43l-2.18-3.4l-6.96-10.26
				c-0.26-0.38-0.52-0.75-0.78-1.13c-0.53-0.78-1.06-1.55-1.64-2.34l-2.38-3.22c-12.84-17.59-27.17-34.37-42.6-49.88l0,0
				c0,0-0.03-0.04-0.05-0.05l-0.09-0.09c-18.21-18.19-38.1-34.73-59.11-49.18c-21.16-14.55-43.78-27.19-67.16-37.54l-0.17-0.08
				c-26.52-11.65-54.24-20.6-82.42-26.61c-28.27-5.93-57.25-8.99-86.16-9.1h-0.06l-12.18,0.15l-12.19,0.51l-0.45,0.02
				c-13.84,0.79-27.8,2.29-41.49,4.45c-43.42,6.82-85.2,20.34-124.19,40.18l-0.6,0.3c-38.91,19.85-74.46,45.73-105.64,76.91
				l-0.13,0.13c-31.2,31.19-57.1,66.81-76.99,105.86c-5.28,10.36-9.79,20.13-13.77,29.86c-4.27,10.37-8.1,20.74-11.38,30.85
				c-3.34,10.39-6.32,21.02-8.89,31.68l-1.74,7.52l-1.74,8.37c-0.32,1.49-0.59,2.96-0.81,4.2l-0.97,5.37
				c-0.17,0.9-0.33,1.8-0.48,2.75l-0.62,3.97c-3.34,20.85-5.08,42.88-5.16,65.5c0,27.38,2.7,54.85,8.02,81.67
				c5.32,26.88,13.32,53.3,23.77,78.55c10.46,25.28,23.48,49.63,38.71,72.37c15.12,22.6,32.64,43.91,52.05,63.35l6.92,6.74
				c1.05,1.05,2.11,2.02,3.13,2.96l4.1,3.78c20.03,18.23,41.37,34.28,63.42,47.72c22.51,13.78,46.42,25.47,71.08,34.76l0.5,0.19
				c40.64,15.21,83.3,23.96,126.8,26.03l11.2,0.38l11.39,0.09c29.67-0.18,59.36-3.52,88.29-9.92c11.71-2.63,23.07-5.65,33.8-8.96
				c11-3.46,22.01-7.39,32.83-11.72l0,0l9.64-4.05l0.99-0.44c6.2-2.77,15.56-6.96,27.42-13.23l4.7-2.55
				c0.49-0.27,0.98-0.53,1.48-0.8c1.17-0.63,2.38-1.28,3.56-1.97l6.07-3.49c0.63-0.36,1.27-0.73,1.91-1.11l8.34-5.07l7.01-4.5
				c0.68-0.43,1.36-0.87,2.1-1.36l6.94-4.71c0.84-0.57,1.69-1.14,2.45-1.71l6.42-4.59c1.48-1.06,2.94-2.18,4.36-3.25
				c0.76-0.58,1.52-1.15,2.36-1.78c0.37-0.28,0.75-0.56,1.12-0.85c0.79-0.59,1.58-1.19,2.33-1.79l6.76-5.38
				c0.81-0.64,1.6-1.31,2.4-1.98c0.38-0.32,0.77-0.65,1.17-0.98c10.04-8.33,19.8-17.2,28.99-26.39c9.15-9.16,18.01-18.88,26.32-28.9
				c0.32-0.39,0.64-0.77,0.97-1.15c0.67-0.8,1.34-1.59,1.95-2.37l5.36-6.74c0.62-0.78,1.22-1.57,1.81-2.35
				c0.28-0.38,0.56-0.75,0.9-1.19c0.58-0.78,1.16-1.54,1.74-2.3c1.07-1.41,2.17-2.86,3.24-4.35l4.52-6.31
				c0.61-0.84,1.19-1.69,1.76-2.53l4.73-6.97c0.45-0.68,0.88-1.36,1.32-2.03l4.4-6.83l5.16-8.46c0.38-0.63,0.75-1.27,1.11-1.9
				l3.44-5.98c0.73-1.24,1.38-2.44,2-3.6c0.27-0.5,0.54-1,0.83-1.53l2.56-4.71c6.22-11.76,10.41-21.09,13.19-27.27l4.34-10.22
				l0.15-0.35c10.5-26.09,18.49-53.39,23.76-81.18c5.03-27.6,7.38-55.95,6.99-84.27L1366.01,515.24z M667.49,242.77L667.49,242.77
				c5.07-5.03,10.62-10.1,16.95-15.49c5.63-4.79,11.7-9.69,18.02-14.56c12.45-9.58,25.22-18.56,37.94-26.69
				c14.34-9.15,27.49-16.6,40.19-22.77c7.42-3.6,14.29-6.57,21-9.1c7.75-2.91,14.8-5.04,21.54-6.51
				c11.51-2.41,23.89-4.75,36.44-5.53l0.27-0.02c0.39-0.04,0.93-0.05,1.44-0.06l5.8-0.12l5.45,0.21h0.18c0.42,0,0.97,0.06,1.55,0.12
				l4.88,0.48c0.18,0.02,0.36,0.05,0.53,0.08l3.25,0.48c0.37,0.06,0.73,0.11,1.1,0.16c0.48,0.07,0.95,0.13,1.5,0.24l2.77,0.52
				c4.21,0.79,8.5,1.71,12.65,2.61c3.1,0.67,6.2,1.33,9.25,1.95c13.82,2.89,28.54,5.13,45.01,6.88l5.77,0.46l5.76,0.23h0.15
				c7.16,0.13,14.7-0.32,22.41-1.34c7.99-1.05,15.79-2.67,21.69-3.95c1.69-0.37,3.38-0.75,5.08-1.12c5.17-1.15,10.51-2.34,15.74-3.3
				c7.52-1.37,14.15-2.05,20.2-2.08c4.33,0.01,8.69,0.38,12.98,1.08l3.29,0.61c0.67,0.15,1.33,0.32,1.99,0.48l1.17,0.29
				c0.23,0.06,0.47,0.12,0.7,0.17c0.22,0.05,0.44,0.1,0.68,0.17l3.73,1.14c0.28,0.08,0.56,0.16,0.83,0.27l0.26,0.1
				c7.78,2.74,15.78,6.73,23.76,11.86l0.13,0.08c5.86,3.79,11.06,8.85,15.47,15.05c3.96,5.56,7.38,12.08,10.45,19.92
				c2.49,6.39,4.7,13.47,6.95,22.28c1.95,7.68,3.61,15.4,5.28,23.28l0.68,3.24c1.42,6.72,2.88,13.67,4.49,20.5
				c2.22,9.4,4.35,16.97,6.69,23.83c3.05,8.93,6.44,16.51,10.35,23.18c4.69,8,10.27,14.8,16.61,20.21l0.26,0.22
				c6.73,5.69,14.6,10.65,24.02,15.17c9.24,4.44,18.66,7.89,25.84,10.41c5.02,1.75,10.13,3.45,15.07,5.09
				c6.35,2.11,12.91,4.29,19.27,6.58c9.78,3.55,21.22,8.05,31.83,14.5c2.43,1.49,4.82,3.1,7.08,4.75c2.19,1.62,4.38,3.43,6.48,5.34
				c4.19,3.86,7.79,8.09,10.67,12.51l2.28,3.76c0.28,0.46,0.52,0.94,0.76,1.41l0.07,0.13c0.14,0.29,0.29,0.57,0.44,0.85
				c0.16,0.29,0.32,0.59,0.45,0.89l1.02,2.21c0.16,0.33,0.29,0.68,0.43,1.02c0.12,0.29,0.23,0.58,0.38,0.92
				c0.34,0.78,0.65,1.66,0.99,2.59c0.15,0.41,0.29,0.82,0.44,1.22c1.69,5.05,2.93,10.56,3.69,16.38v0.05
				c1.06,8.24,1.53,16.2,1.4,23.66c-0.15,7.59-0.92,14.93-2.29,21.82c-1.43,7.17-3.58,14.17-6.39,20.81
				c-2.77,6.55-6.28,13-10.44,19.17c-4,5.92-8.64,11.7-13.81,17.18c-4.86,5.15-10.2,10.13-16.3,15.22l-8.76,6.96l-1.89,1.39
				c-2.49,1.82-4.85,3.55-7.28,5.19l-0.14,0.09c-2.16,1.53-4.37,2.96-6.7,4.48c-0.89,0.58-1.78,1.16-2.67,1.74l-5.73,3.55
				c-0.49,0.31-0.98,0.61-1.44,0.89l-2.55,1.5c-6.42,3.86-13.04,7.45-19.83,11.08l-2.97,1.53c-1.25,0.65-2.9,1.5-4.99,2.55
				c-4.22,2.14-11.83,5.94-24.14,11.83l-2.64,1.27c-4.69,2.26-10,4.81-15.7,7.72c-6.98,3.59-14.48,7.64-22.08,12.92
				c-4.13,2.86-8.06,5.94-11.67,9.14c-3.86,3.42-7.65,7.23-11.26,11.33c-6.58,7.45-13.23,16.7-20.36,28.31
				c-3.96,6.52-7.38,13.95-10.48,22.73c-2.3,6.54-4.31,13.53-6.32,22.01c-3.36,14.38-5.52,28.02-7.29,39.68
				c-0.96,6.45-1.83,12.57-2.67,18.49c-0.73,5.18-1.44,10.14-2.14,14.88c-1.62,10.98-3.07,19.52-4.55,26.86
				c-1.55,7.71-3.23,14.49-5.01,20.17c-1.58,5.09-3.32,9.59-5.17,13.37c-1.3,2.67-2.67,5.05-4.08,7.06l-0.09,0.13
				c-0.33,0.49-0.62,0.87-0.85,1.16l-0.68,0.89c-2.76,3.38-5.86,6.67-9.21,9.78c-3.28,2.95-6.88,5.82-10.65,8.48
				c-11.81,8.16-25.66,14.66-41.19,19.35c-3.14,0.97-6.55,1.88-11.06,2.97c-3.57,0.8-7.4,1.62-11.31,2.25
				c-7.47,1.27-15.12,2-22.73,2.19c-3.28,0.03-6.79,0.02-10.29-0.24c-3.7-0.27-6.92-0.69-9.84-1.26l-0.17-0.03
				c-9.62-1.96-19.54-5.79-30.32-11.71c-10.47-5.75-20.14-12.56-28.22-18.47c-4.28-3.13-8.61-6.39-12.79-9.54
				c-4.88-3.68-9.92-7.48-14.98-11.14c-8.62-6.22-18.92-13.29-30.04-18.69l-4.57-2.07c-0.49-0.22-0.98-0.44-1.48-0.64l-1.88-0.74
				c-0.4-0.15-0.79-0.31-1.18-0.47c-0.84-0.34-1.72-0.69-2.66-1.01l-3.62-1.25c-0.78-0.28-1.52-0.5-2.17-0.7l-3.68-1.11
				c-0.51-0.16-1.02-0.29-1.53-0.42l-4.39-1.14l-4.07-0.92c-9.1-1.98-18.86-3.39-31.64-4.57c-4.6-0.43-9.27-0.8-13.78-1.16
				c-5.67-0.45-11.54-0.91-17.25-1.5c-5.77-0.6-10.56-1.24-15.03-2c-5.27-0.91-9.98-2.02-14.39-3.37
				c-5.28-1.62-10.1-3.65-14.32-6.04c-4.45-2.51-8.5-5.56-12.05-9.08l-0.19-0.19c-18.33-18.37-34.87-38.51-49.17-59.85
				c-14.4-21.51-26.72-44.53-36.62-68.44c-9.88-23.88-17.45-48.88-22.48-74.3c-5.03-25.37-7.58-51.37-7.59-77.26
				c0.02-13.98,0.77-28.11,2.25-42c1.2-11.31,2.86-22.49,4.93-33.24c2.13-10.96,4.74-21.97,7.77-32.71
				c3.06-10.83,6.58-21.58,10.47-31.93c3.95-10.44,8.4-20.84,13.22-30.93c19.12-40.2,45.14-76.94,77.34-109.21L667.49,242.77z"/>
			<path class="st7" d="M1351.33,417.44l-0.16-0.63c-3.89-15.21-9.05-30.33-15.33-44.95c-6.09-14.2-13.46-28.44-21.91-42.34
				c-9.97-16.29-21.84-32.79-35.27-49.03c-12.05-14.57-25.35-29.01-40.65-44.15l-2.12-2.08c-17.32-17-35.24-34.58-54.28-50.54
				c-10.81-9.05-20.99-16.74-31.12-23.51c-11.23-7.5-22.64-13.98-33.91-19.25l-0.34-0.16c-25.61-11.76-52.81-20.38-80.85-25.63
				c-26.02-4.84-53.58-7.16-84.22-7.18l-11.97,0.14l-12.1,0.37h-0.32c-17.28,0.72-34.11,2.28-50.03,4.67
				c-10.94,1.68-20.49,3.48-29.15,5.51l-3.58,0.81c-0.83,0.19-1.65,0.4-2.47,0.61l-8.31,2.12l-0.21,0.06
				c-1.27,0.36-2.53,0.72-3.8,1.08c-3.39,0.95-6.9,1.94-10.38,3.07c-17.55,5.41-35.49,12.44-54.84,21.5l-0.33,0.16
				c-19.78,9.3-39.68,21.07-59.16,34.98c-18.78,13.43-36.39,28.32-52.35,44.24l-0.13,0.13c-31.41,31.4-57.43,67.29-77.35,106.66
				l-1.13,2.22l-2.57,5.26c-0.36,0.77-0.74,1.54-1.11,2.31c-0.81,1.69-1.66,3.43-2.41,5.18l-3.32,7.42l-3.24,7.72
				c-4.14,10.17-7.95,20.62-11.31,31.07c-3.22,10.01-6.1,20.45-8.8,31.93l-0.5,2.18l-2.95,13.9l-1.47,8.09
				c-0.21,1.09-0.38,2.19-0.55,3.28l-0.79,5.04c-0.07,0.43-0.13,0.87-0.2,1.3c-0.14,0.9-0.29,1.8-0.4,2.67l-0.76,5.79
				c-0.26,1.95-0.53,3.97-0.72,5.97l-0.29,2.73c-0.18,1.69-0.37,3.37-0.53,5.06l-0.66,7.93c-0.77,10.47-1.17,21.1-1.21,31.62
				c0,27.32,2.7,54.74,8,81.51c5.31,26.82,13.29,53.2,23.72,78.39c10.44,25.23,23.44,49.53,38.64,72.22
				c15.09,22.55,32.57,43.82,51.93,63.21l7.29,7.03c0.4,0.39,0.8,0.77,1.27,1.2l5.12,4.58c19.04,16.87,40.77,32.05,64.55,45.13
				c20.7,11.45,43.91,22.09,70.93,32.52l0.22,0.08c22.43,8.62,42.64,15.19,61.78,20.08c22.7,5.8,43.74,9.24,64.3,10.5l11.09,0.5
				l10.9,0.16h0.11c29.01-0.03,58.14-3.48,86.62-10.25c11.9-2.89,22.76-6.01,33.23-9.57c10.86-3.74,21.58-7.99,31.87-12.61
				l9.63-4.63l0.21-0.11c5.65-2.96,15.1-7.9,27.04-15.72c13.43-8.79,27.32-19.36,41.29-31.41c15.5-13.35,32.94-30.18,51.83-50.02
				c16.88-17.77,32.31-36.02,45.88-54.28c10.3-13.9,19.55-27.73,28.28-42.26c6.51-10.86,11.16-19.57,14.24-25.34l5.09-9.91l0.3-0.59
				c6.06-12.22,11.51-24.88,16.19-37.65c4.59-12.6,8.59-25.85,11.87-39.41c3.11-13,5.56-26.62,7.29-40.52
				c1.61-13.35,2.5-27.16,2.65-41.05c0.28-32.25-3.68-64.94-11.77-97.15L1351.33,417.44z M860.12,874.51
				c-4.58-3.21-9.31-6.52-14.04-9.72c-8.65-5.84-18.96-12.51-29.96-17.71l-0.37-0.17c-5.18-2.37-10.42-4.45-15.64-6.21
				c-5.25-1.72-10.64-3.24-16.06-4.52c-5.15-1.19-10.43-2.24-16.19-3.22c-4.83-0.8-10.1-1.58-16.13-2.38
				c-3.02-0.4-6.05-0.79-9.08-1.18c-7.45-0.95-15.15-1.93-22.63-3.18c-12.12-2.01-21.57-4.48-29.79-7.79
				c-8.75-3.44-16.83-8.65-23.29-15.03l-0.23-0.23c-18.34-18.39-34.9-38.54-49.2-59.91c-14.44-21.55-26.78-44.63-36.69-68.59
				c-9.9-23.93-17.49-48.98-22.53-74.46c-5.04-25.43-7.6-51.48-7.6-77.42c0.02-14.44,0.83-29.05,2.39-43.4
				c1.21-11.07,2.9-22.22,5.02-33.15c2.05-10.56,4.69-21.52,7.83-32.58c3.05-10.7,6.6-21.41,10.52-31.83
				c3.82-10.09,8.27-20.45,13.22-30.78c4.9-10.2,10.2-20.15,15.75-29.57c5.66-9.56,11.8-19.02,18.24-28.1l1.84-2.57l8.15-10.92
				l5.31-6.68c0.56-0.72,1.14-1.41,1.72-2.1l3.54-4.22c7.15-8.44,14.77-16.73,22.64-24.65l0.35-0.33l0.03-0.04
				c9.31-9.18,19.95-18.37,33.44-28.88c11.89-9.23,24.22-17.97,36.62-25.97c13.81-8.89,26.51-16.17,38.8-22.24
				c7.14-3.52,13.77-6.46,20.26-8.98c7.42-2.88,14.19-5.03,20.77-6.61l10.42-2.36c2.23-0.47,4.47-0.9,6.7-1.33
				c1.21-0.23,2.41-0.47,3.61-0.71l8.34-1.33c0.21-0.03,0.41-0.07,0.62-0.1l6.61-0.76l5.05-0.39h0.16c2.27-0.22,4.62-0.24,7.11-0.27
				c0.87,0,1.75-0.02,2.62-0.04c6.11,0.11,12.56,0.66,20.24,1.71l5.2,0.75l15.77,2.47c14.17,2.2,28.52,3.95,42.66,5.2l5.67,0.39
				l5.78,0.2h0.13c6.98,0.11,14.3-0.24,21.78-1.04c7.68-0.81,15.05-2.02,21.23-3.09c1.99-0.34,3.99-0.7,5.98-1.05
				c4.79-0.85,9.75-1.73,14.6-2.43c7.72-1.13,14.1-1.69,20.05-1.76c4.94-0.04,9.8,0.29,14.47,0.98l0.11,0.02
				c2.11,0.27,4.26,0.73,6.54,1.21l4.07,1.02l0.15,0.04c0.36,0.08,0.7,0.2,1.05,0.31l3.87,1.2l1.6,0.59
				c0.46,0.17,0.92,0.34,1.38,0.51c0.69,0.25,1.38,0.5,1.99,0.75l1.47,0.62c1.85,0.78,3.6,1.52,5.23,2.35l0.21,0.1
				c4.45,2.08,8.73,4.61,12.75,7.03l0.22,0.13c5.72,3.61,10.89,8.36,15.36,14.12c4.1,5.25,7.71,11.38,11.05,18.73
				c2.75,6.07,5.25,12.78,7.86,21.11c2.32,7.42,4.38,15.03,6.29,22.19l1.17,4.4c3.6,13.53,7.33,27.52,12.59,40.94
				c3.31,8.42,6.86,15.6,10.85,21.96c4.71,7.52,10.17,13.99,16.23,19.24c3.7,3.21,7.82,6.32,12.28,9.27
				c3.93,2.59,8.2,5.1,13.06,7.68c9.06,4.8,18.31,8.78,26.97,12.38c3.21,1.33,6.44,2.64,9.66,3.96c7.47,3.04,15.2,6.19,22.63,9.54
				c12.53,5.66,21.63,10.74,29.53,16.47c4.66,3.39,8.83,7.01,12.39,10.75c3.82,4.01,7.12,8.32,9.8,12.81l0.09,0.15
				c0.43,0.68,0.85,1.45,1.3,2.28c0.2,0.37,0.4,0.73,0.6,1.1c0.19,0.39,0.39,0.78,0.59,1.18c0.42,0.82,0.81,1.59,1.11,2.3l0.1,0.22
				c1.17,2.48,2.15,5.17,2.96,7.49c1.66,5.02,2.91,10.39,3.71,15.95c1.21,8.52,1.84,16.8,1.9,24.59c0.04,7.67-0.48,15.16-1.55,22.25
				l0,0c-1.11,7.4-2.87,14.64-5.21,21.53c-2.35,6.91-5.37,13.71-9,20.23c-3.48,6.27-7.65,12.5-12.38,18.52
				c-4.41,5.61-9.47,11.24-15.04,16.74c-4.79,4.73-10.35,9.64-16.99,15.01c-10.71,8.63-22.68,16.86-37.66,25.91l-7.77,4.59
				c-4.77,2.81-11.99,6.95-23.41,13.41c-2.64,1.49-5.44,3.08-8.4,4.79l-1.57,0.9c-0.98,0.57-1.99,1.14-3.02,1.75l-4.66,2.78
				c-1.51,0.88-3.01,1.83-4.46,2.74l-3.64,2.29c-0.33,0.21-0.66,0.41-1.04,0.67l-3.11,2.11c-1.14,0.77-2.3,1.55-3.47,2.36
				l-5.49,4.06l-0.11,0.09c-8.01,6.17-15.49,13.23-22.24,20.95c-6.81,7.76-13.59,16.9-20.74,27.96
				c-3.98,6.22-7.53,13.24-10.87,21.48c-2.52,6.26-4.78,12.88-7.12,20.88c-3.94,13.63-6.76,26.66-9.09,37.82
				c-1.1,5.3-2.13,10.4-3.12,15.3c-1.17,5.82-2.28,11.31-3.38,16.52c-2.14,10.18-4.11,18.52-6.01,25.51
				c-2.01,7.36-4.08,13.75-6.15,18.98c-1.02,2.57-2.04,4.94-3.02,6.98c-1.17,2.39-2.05,4.06-2.9,5.49c-1.42,2.45-2.9,4.64-4.4,6.52
				l-0.11,0.15c-0.32,0.41-0.6,0.74-0.82,0.99c-0.14,0.16-0.27,0.31-0.38,0.44l-0.41,0.48c-6.94,7.66-15.66,14.61-25.91,20.65
				c-6.02,3.52-12.59,6.74-19.55,9.58l-5.07,1.97c-1.1,0.41-2.21,0.8-3.32,1.18c-0.61,0.21-1.22,0.43-1.83,0.64l-1.73,0.56
				c-1.15,0.37-2.31,0.74-3.4,1.08l-2.77,0.81c-0.82,0.24-1.64,0.48-2.46,0.69l-0.1,0.03c-7.03,1.9-14.25,3.41-21.45,4.51
				c-7.3,1.09-14.62,1.73-21.69,1.9c-3.04,0.03-7.03,0.04-10.93-0.23c-3.91-0.27-7.36-0.67-10.56-1.24l-0.29-0.05
				c-9.57-1.77-19.44-5.26-30.17-10.67c-10.72-5.41-20.87-12.04-28.52-17.21c-4.7-3.19-9.45-6.51-14.05-9.73L860.12,874.51z"/>
			<path class="st8" d="M1360.38,498.22c-0.17-13.23-1.1-26.61-2.76-39.78v-0.02c-1.67-12.87-4.05-25.95-7.09-38.88l-0.06-0.24
				c0,0,0-0.03-0.01-0.04l-0.08-0.33c-3.95-16.46-9.77-32.66-17.29-48.14c-7.05-14.55-15.99-29.28-26.57-43.78
				c-9.84-13.48-21.47-27.35-35.54-42.39c-12.62-13.49-25.97-26.61-38.52-38.78l-0.13-0.12c-9.55-9.26-18.76-19.07-26.65-27.54
				l-4.04-4.34c-7.36-7.91-14.97-16.09-22.75-23.95c-10.76-10.86-20.09-19.32-29.37-26.61c-11.07-8.71-22.42-15.92-33.76-21.45
				l-0.28-0.14c-12.62-6.05-25.65-11.18-38.68-15.23c-6.83-2.18-13.69-3.92-20.09-5.46l-10.1-2.18l-10.26-1.82l-0.11-0.02
				c-23.42-3.76-48.75-5.36-82.16-5.18l-23.64,0.36l-10.95,0.33l-10.91,0.53l-10.93,0.76l-3.76,0.34c-0.84,0.08-1.67,0.15-2.51,0.23
				c-1.59,0.14-3.18,0.28-4.79,0.46l-7.15,0.83l-7.29,0.98c-16.97,2.35-34.53,6.17-52.23,11.37c-15.99,4.79-32.3,10.81-49.93,18.45
				c-10.54,4.6-21.04,9.94-32.11,16.32c-10.12,5.84-20.28,12.34-30.2,19.31c-9.73,6.84-19.3,14.15-28.43,21.75
				c-9.38,7.8-18.24,15.85-26.34,23.92l-0.21,0.21c0,0-0.03,0.03-0.05,0.05l0,0c-31.62,31.62-57.78,67.79-77.75,107.51
				c-4.97,9.91-9.6,20.11-13.78,30.35c-4.13,10.26-7.91,20.8-11.26,31.41c-0.28,0.91-0.56,1.82-0.85,2.73
				c-0.54,1.73-1.08,3.46-1.59,5.23l-2.23,7.88l-0.18,0.67c-1.33,5.08-2.7,10.34-3.87,15.59c-2.55,11.2-4.62,22.22-6.15,32.76
				c-1.46,10.25-2.57,20.41-3.31,30.24c-0.7,10.07-1.07,20.28-1.11,30.38c0,27.27,2.69,54.64,7.99,81.34
				c5.3,26.77,13.27,53.09,23.67,78.24c10.42,25.18,23.39,49.43,38.56,72.08c15.04,22.47,32.45,43.67,51.75,63l7.3,6.97
				c0.42,0.4,0.84,0.8,1.33,1.23l5.1,4.44c18.37,15.75,39.8,29.56,65.51,42.22c23.4,11.56,47.39,21.06,70.6,30.24l0.08,0.03
				c21.44,8.45,40.83,15.95,61.05,22.14c23.55,7.22,44.62,11.44,64.39,12.91l10.63,0.6l10.51,0.23h0.13c0.41,0,0.81,0,1.22,0
				c28.32,0,56.76-3.62,84.56-10.78c11.37-2.99,22.2-6.39,32.27-10.11c10.62-4.02,20.96-8.55,30.74-13.47l2.54-1.33
				c1.61-0.83,3.9-2.1,7-3.89l2.42-1.46l1.3-0.83l4.27-2.61l3.27-2.18c4.93-3.37,9.83-7.08,14.69-10.98
				c5.71-4.58,11.67-9.75,17.71-15.38c6.58-6.17,13.35-12.91,20.11-20.04c7.86-8.25,16.15-17.45,22.5-24.54
				c2.61-2.92,5.27-5.92,8-8.98c5.56-6.25,11.3-12.71,17.39-19.42c17.07-18.87,32.17-36.66,44.9-52.86
				c10.59-13.49,20.19-26.6,29.36-40.08c6.83-10.06,11.72-17.86,15.29-23.56l6.1-9.98c15.44-25.87,27.07-53.01,34.55-80.66
				c7.64-28.06,11.36-57.35,11.06-87.09L1360.38,498.22z M857.64,878.08c-4.17-2.7-8.49-5.5-12.78-8.21
				c-9.17-5.77-19.14-11.8-29.99-16.8l-0.27-0.12l0,0l-0.07-0.03c-5.09-2.29-10.45-4.41-15.95-6.3c-5.07-1.71-10.43-3.29-16.4-4.83
				c-10.35-2.63-20.68-4.61-32.99-6.78l-3.84-0.68c-9.38-1.65-19.07-3.36-28.41-5.53c-12.08-2.83-21.6-6.07-29.95-10.2
				c-3.6-1.78-7.3-3.98-10.96-6.51c-3.24-2.29-6.43-4.97-9.74-8.19c-18.45-18.47-35.08-38.72-49.46-60.19
				c-14.47-21.6-26.84-44.72-36.77-68.73c-9.92-23.98-17.52-49.08-22.58-74.61c-5.05-25.48-7.61-51.58-7.62-77.58
				c0.03-15.02,0.89-30.2,2.57-45.11c5.06-44.63,17.45-87.6,36.86-127.72c4.82-9.97,10.12-19.88,15.74-29.43
				c5.58-9.4,11.71-18.82,18.23-28c12.3-17.39,26.78-34.51,43.03-50.89l0.02-0.02c9.24-9.16,19.61-18.17,32.61-28.36
				c11.35-8.87,23.24-17.36,35.33-25.23c13.27-8.61,25.51-15.72,37.42-21.71c6.85-3.44,13.24-6.35,19.53-8.88
				c7.16-2.88,13.72-5.09,19.98-6.74h0.01c1.42-0.35,2.83-0.71,4.25-1.06c2.52-0.63,5.05-1.26,7.58-1.87l5.97-1.33l11.75-2.32
				l5.88-0.89c0.41-0.06,0.81-0.12,1.22-0.18c0.5-0.08,1-0.16,1.51-0.21l4.45-0.48c1.56-0.17,3.03-0.33,4.43-0.4l4.06-0.26
				c0.63-0.04,1.24-0.08,1.71-0.08h0.07l6.09-0.11c11.69,0.1,23.64,1.42,35.2,2.7l3.84,0.42c14.6,1.62,27.69,2.85,40,3.75l5.71,0.32
				l5.81,0.16h0.11c6.76,0.08,13.67-0.19,21.11-0.81c7.47-0.62,14.67-1.53,20.71-2.35c1.73-0.23,3.46-0.47,5.19-0.7
				c11.44-1.56,23.27-3.17,34.82-3.28c5.53-0.04,10.92,0.28,16,0.96c5.2,0.69,10.45,1.8,15.59,3.31c4.59,1.34,9.47,3.19,14.92,5.65
				l3.7,1.75c0.75,0.38,1.5,0.78,2.25,1.18l2.76,1.46l5.66,3.28c5.65,3.44,10.84,7.9,15.44,13.28c4.24,4.94,8.05,10.68,11.67,17.55
				c3.02,5.75,5.82,12.07,8.8,19.91c2.72,7.17,5.21,14.62,7.33,21.05l1.62,4.92c4.15,12.62,8.43,25.66,14.02,38.13
				c3.56,7.92,7.25,14.71,11.29,20.76c4.71,7.07,10.03,13.24,15.83,18.35l0,0c7.45,6.56,16.2,12.71,26.76,18.8
				c9.18,5.31,18.64,10,28.33,14.73l3.39,1.65c8.82,4.3,17.93,8.74,26.58,13.54c11.17,6.2,19.74,11.99,26.99,18.23
				c2.2,1.89,4.1,3.66,5.83,5.41l0.09,0.09c0.67,0.65,1.34,1.37,2.05,2.13l1.96,2.18l1.27,1.49c3.31,3.93,6.3,8.29,8.88,12.9
				c2.59,4.72,4.7,9.58,6.28,14.44c1.6,4.91,2.84,10.12,3.68,15.42l0.04,0.26c1.65,10.82,2.49,21.39,2.48,31.38
				c-0.08,15.2-2.22,29.72-6.37,43.16l0,0c-4.25,13.81-10.66,26.99-19.06,39.18c-3.99,5.82-8.56,11.67-13.52,17.32l-3.76,4.17
				l-3.89,4.04l-5.92,5.83c-0.41,0.39-0.83,0.77-1.24,1.15l-0.78,0.72c-9.84,9.15-21.32,18.22-35.09,27.73l-7.47,5.06
				c-5.09,3.44-12.92,8.61-22.68,15.05c-1.17,0.78-2.38,1.59-3.62,2.41c-9.42,6.26-21.15,14.05-33.79,24.58
				c-7.7,6.54-15,13.74-21.68,21.4c-6.96,7.96-13.86,17.02-21.12,27.74c-4.07,6.05-7.74,12.68-11.21,20.28
				c-2.69,5.9-5.27,12.36-7.87,19.72c-0.96,2.68-1.83,5.32-2.67,7.87l-1.18,3.68c-0.74,2.35-1.5,4.78-2.18,7.12
				c-1.85,6.16-3.52,12.21-4.92,17.32c-1.09,4-2.14,7.89-3.16,11.65c-1.77,6.58-3.45,12.79-5.09,18.59
				c-2.73,9.65-5.19,17.54-7.52,24.13c-2.37,6.71-4.83,12.69-7.32,17.77l-0.05,0.11c-0.9,1.93-1.89,3.71-2.85,5.43l-0.54,0.97
				c-0.3,0.49-0.59,0.97-0.88,1.44c-0.81,1.34-1.52,2.5-2.18,3.39l-1.52,2.18l-2.46,3.08c-0.16,0.18-0.32,0.35-0.46,0.5l-2.24,2.4
				c-8.62,8.51-19.38,16.04-31.96,22.37c-11.89,5.97-25.09,10.74-39.22,14.19c-6.69,1.63-13.61,2.94-20.58,3.88
				c-7.06,0.95-14.07,1.51-20.76,1.67c-4.64,0.06-8.2,0-11.53-0.21c-4.13-0.26-7.83-0.65-11.32-1.21h-0.03l-0.07-0.02
				c-9.6-1.59-19.5-4.77-30.28-9.73c-10.92-5.03-21.14-11.16-28.81-15.94c-5.23-3.26-10.51-6.68-15.62-9.99L857.64,878.08z"/>
			<path class="st9" d="M1349.68,421.38l-0.05-0.23c-2.02-8.95-4.69-17.79-7.93-26.27c-3.2-8.4-7.12-16.83-11.66-25.05
				c-8.19-14.84-18.59-29.39-31.8-44.5c-12.02-13.76-25.13-26.52-35.2-36.11c-5.75-5.47-11.63-10.95-17.33-16.26
				c-6.19-5.77-12.59-11.74-18.81-17.67l-0.14-0.14c-8-7.64-16.24-16.68-25.95-28.43c-4.14-5.01-8.29-10.19-12.3-15.2
				c-4.06-5.08-8.26-10.32-12.5-15.45c-7.06-8.53-16.56-19.61-27.48-29.64c-10.85-9.98-22.22-18.01-33.8-23.86l-0.14-0.07
				c-10.8-5.42-21.62-9.93-32.15-13.39c-5.95-1.97-11.46-3.57-16.8-4.89c-6.06-1.52-11.65-2.71-17.06-3.65
				c-10.62-1.91-21.9-3.24-34.48-4.08c-5.58-0.36-11.36-0.62-17.21-0.79c-5.38-0.14-10.98-0.23-17.12-0.25
				c-9.4-0.03-18.92,0.08-28.13,0.19c-6,0.07-11.99,0.14-18.02,0.17c-12.27,0.1-22.98,0.38-32.77,0.87
				c-11.79,0.63-22.55,1.6-32.91,2.96l-5.8,0.79l-5.97,0.97l-11.78,2.18c-1.28,0.26-2.55,0.55-3.83,0.83
				c-0.66,0.15-1.33,0.3-2.05,0.46c-0.52,0.12-1.05,0.24-1.57,0.35c-1.42,0.31-2.88,0.64-4.3,1.02l-2.22,0.56
				c-3.06,0.77-6.21,1.57-9.26,2.48c-13.99,3.95-28.53,8.98-44.46,15.35l-0.47,0.19c-10.92,4.41-21.98,9.78-33.82,16.42
				c-10.47,5.88-21.11,12.55-31.64,19.83c-10.19,7.05-20.2,14.6-29.75,22.44c-10.01,8.23-19.32,16.62-27.67,24.93l-0.15,0.15
				c-31.83,31.84-58.11,68.29-78.12,108.35c-4.96,9.98-9.58,20.26-13.77,30.65l-3,7.68l-2.89,7.92l-3.19,9.33
				c-0.3,0.88-0.6,1.77-0.9,2.71l-1.21,3.92c-6.5,20.8-11.43,42.81-14.66,65.49l-0.94,7.12c-0.21,1.59-0.38,3.19-0.54,4.78
				c-0.09,0.82-0.17,1.65-0.27,2.51l-0.38,3.56l-0.32,3.77c-0.07,0.83-0.14,1.66-0.21,2.5c-0.13,1.58-0.27,3.16-0.38,4.74
				c-0.64,9.27-0.97,18.8-1.02,29.15c0,27.21,2.69,54.53,7.97,81.18c5.29,26.72,13.24,52.99,23.63,78.08
				c10.4,25.13,23.34,49.33,38.48,71.94c15.03,22.46,32.44,43.64,51.73,62.96l0.08,0.08c4.41,4.39,9.13,8.65,14,12.67
				c4.89,4.03,10.13,7.95,15.57,11.65c5.09,3.46,10.61,6.89,16.42,10.22c10.2,5.83,21.42,11.4,34.31,17.04
				c14.19,6.2,28.8,11.83,42.92,17.29c8.84,3.41,17.98,6.94,26.81,10.53l0.19,0.08c6.06,2.45,12.22,5.01,18.17,7.49
				c13.69,5.69,27.84,11.58,42.13,16.69c11.44,4.09,21.79,7.27,31.64,9.71c11.36,2.82,22.4,4.71,32.83,5.63l10.18,0.68l10.12,0.29
				h0.14c0.82,0,1.64,0.01,2.46,0.01c13.38,0,27.1-0.94,40.8-2.79c14.38-1.95,28.66-4.89,42.46-8.77
				c10.32-2.95,20.69-6.49,30.82-10.54l0.1-0.04c10.27-4.28,20.15-9.07,29.37-14.25l2.36-1.4c1.67-0.97,3.97-2.43,6.85-4.36
				l0.14-0.09c0.37-0.26,0.76-0.53,1.16-0.81c1.13-0.78,2.4-1.66,3.73-2.68c0.28-0.21,0.57-0.42,0.86-0.64
				c0.64-0.47,1.3-0.96,1.96-1.48l2.96-2.35c4.61-3.76,9.25-7.94,13.82-12.41c5.31-5.21,10.74-11.01,16.13-17.22
				c5.54-6.38,11.45-13.59,18.06-22.02c4.09-5.2,8.3-10.69,12.76-16.5c2.46-3.2,4.98-6.49,7.57-9.84
				c6.86-8.86,14.92-19.17,23.85-29.51l2.31-2.68c16-18.59,29.82-34.64,41.65-48.85c11.3-13.56,21.54-26.3,30.43-37.87
				c7.2-9.34,12.49-16.59,16.35-21.88l6.76-9.4l4.73-6.86l4.58-7.03l3.45-5.61c0.34-0.55,0.68-1.1,1.03-1.7l1.38-2.39
				c0.31-0.54,0.63-1.09,0.94-1.63c0.62-1.06,1.23-2.13,1.86-3.27l1.19-2.2c1.35-2.48,2.75-5.05,4.01-7.61l1.24-2.44l3.63-7.58
				c0.53-1.13,1.03-2.27,1.52-3.4c0.25-0.57,0.5-1.14,0.77-1.75l1.13-2.57c0.25-0.59,0.49-1.18,0.73-1.77l2.41-5.95l1.95-5.21
				c0.54-1.4,1.01-2.77,1.46-4.1l0.47-1.37c0.17-0.51,0.35-1.02,0.52-1.53c0.43-1.24,0.88-2.53,1.25-3.8l1.63-5.21l0.03-0.11
				c0.34-1.15,0.66-2.31,0.99-3.46l0.79-2.79c0.18-0.62,0.35-1.24,0.53-1.92l0.68-2.7c0.15-0.6,0.3-1.2,0.45-1.8
				c0.3-1.17,0.61-2.37,0.88-3.63c1.55-6.63,2.92-13.81,4.18-21.99c1.03-6.94,1.81-14.21,2.4-22.3c0.46-7.07,0.68-14.58,0.66-22.38
				c-0.23-22.52-3-45.79-8.23-69.18L1349.68,421.38z M1329.78,513.96c-3.73,13.47-9.44,26.75-16.94,39.43
				c-7.27,12.09-16.11,23.69-26.29,34.5c-9.06,9.72-19.66,19.34-32.42,29.44l-7.16,5.57l-21.79,16.68
				c-5.69,4.34-11.04,8.5-16.4,12.75c-5.21,4.2-12.14,9.88-19.49,16.58c-7.31,6.69-14.46,14.04-21.26,21.84
				c-7.04,8.07-14.28,17.34-21.54,27.55c-4.06,5.71-7.83,11.98-11.53,19.16c-2.89,5.61-5.72,11.71-8.64,18.66
				c-2.79,6.6-5.16,12.91-6.92,17.66c-2.09,5.65-3.97,10.98-5.86,16.41c-0.88,2.53-1.74,5.01-2.58,7.44
				c-2.61,7.54-5.07,14.67-7.46,21.19c-3.29,9.01-6.25,16.44-9.06,22.71c-6.72,15.12-12.74,23.46-15.73,27.1
				c-0.23,0.28-0.46,0.56-0.68,0.84c-0.27,0.34-0.53,0.67-0.74,0.9l-2.25,2.46l-3.28,3.19c-5.33,4.69-11.35,9.12-17.89,13.16
				c-6.07,3.75-12.79,7.25-19.97,10.38c-11.84,5.18-24.68,9.3-38.15,12.25c-13.42,2.92-26.82,4.56-39.76,4.86
				c-4.71,0.07-8.56,0.01-12.13-0.18c-4.31-0.24-8.22-0.62-11.97-1.16h-0.05c-9.63-1.43-19.57-4.31-30.38-8.81
				c-8.7-3.62-17.67-8.14-29.11-14.64c-5.95-3.38-11.95-6.96-17.76-10.43c-3.65-2.17-7.29-4.35-10.96-6.5
				c-9.22-5.4-19.21-11.04-29.8-15.8l-0.38-0.17c-5.21-2.3-10.72-4.48-16.38-6.46c-4.88-1.71-10.19-3.35-16.73-5.18
				c-10.33-2.88-20.9-5.24-31.12-7.53l-3.29-0.74c-10.53-2.37-21.42-4.83-31.82-7.99c-5.72-1.74-10.8-3.52-15.54-5.46
				c-5.39-2.21-10.13-4.52-14.53-7.11c-6.66-3.87-12.83-8.59-18.31-14l-0.09-0.09c-18.47-18.5-35.13-38.78-49.53-60.28
				c-14.5-21.64-26.89-44.81-36.85-68.87c-9.95-24.03-17.56-49.18-22.63-74.77c-5.06-25.53-7.63-51.69-7.63-77.74
				c0.03-15.67,0.97-31.51,2.77-47.04c1.31-10.96,3.09-22,5.29-32.81c2.36-11.57,4.97-22.11,7.96-32.25
				c3.11-10.58,6.69-21.18,10.64-31.44l1.89-4.83c0.37-0.94,0.73-1.88,1.16-2.87l2.64-6.29l4.06-9.13c0.39-0.89,0.81-1.77,1.24-2.65
				l2.26-4.72c4.82-9.91,10.12-19.76,15.74-29.27c5.35-9.04,11.46-18.4,18.17-27.82c12.3-17.34,26.74-34.4,42.88-50.66l0.02-0.02
				c8.92-8.85,19.19-17.84,31.38-27.47c10.96-8.63,22.41-16.88,34.03-24.52c12.72-8.35,24.51-15.28,36.03-21.19
				c6.57-3.37,12.72-6.24,18.79-8.78c6.86-2.86,13.17-5.11,19.25-6.86l7.33-2.02c2.08-0.58,4.05-1.12,6.1-1.61l6.78-1.7
				c1.43-0.33,2.87-0.65,4.3-0.96l2.4-0.53c9.88-2.1,18.69-3.45,26.94-4.14c0.81-0.05,1.61-0.11,2.42-0.16
				c1.43-0.1,2.87-0.2,4.3-0.28l6.8-0.2c12.1-0.09,24.46,0.78,36.39,1.62c10.72,0.78,24.05,1.75,36.88,2.5l5.92,0.27l5.91,0.12
				c14.03,0.11,27.75-1.05,40.49-2.32l4.39-0.43c11.42-1.13,23.22-2.3,34.74-2.32c6.23-0.03,12.11,0.35,17.62,1.04
				c5.81,0.72,11.58,1.88,17.15,3.43c5.54,1.55,11.11,3.53,16.49,5.87c5.13,2.27,10.3,4.93,15.79,8.1h0.02
				c5.57,3.29,10.78,7.49,15.48,12.51c4.37,4.64,8.38,10,12.26,16.39c3.25,5.35,6.44,11.46,9.75,18.69
				c3.01,6.59,5.81,13.44,8.4,19.87c0.75,1.86,1.49,3.71,2.23,5.57c4.65,11.63,9.45,23.66,15.29,35.14
				c3.79,7.42,7.62,13.83,11.7,19.58c4.7,6.62,9.86,12.47,15.34,17.4l3.98,3.44c0.41,0.36,0.82,0.71,1.28,1.08l1.71,1.36
				c0.38,0.3,0.75,0.6,1.13,0.9c0.78,0.62,1.56,1.25,2.38,1.87l3.5,2.61c4.92,3.57,9.83,6.89,14.55,9.85
				c8.11,5.15,16.52,9.98,24.65,14.64c1.72,0.99,3.44,1.97,5.15,2.96l0.29,0.17c4.51,2.6,9.16,5.29,13.71,8.04
				c1.62,0.97,3.23,1.97,4.83,2.97l1.93,1.2c0.74,0.48,1.48,0.96,2.22,1.43c1.53,0.98,2.98,1.91,4.38,2.89l0.13,0.09
				c3.82,2.53,7.84,5.47,12.65,9.24c0.57,0.48,1.14,0.95,1.72,1.42c1.48,1.21,2.87,2.36,4.2,3.6c0.38,0.35,0.77,0.7,1.16,1.04
				c0.57,0.51,1.14,1.01,1.69,1.55l2.92,2.87l0.12,0.11c0.5,0.47,1.04,1.06,1.61,1.68c0.3,0.33,0.6,0.65,0.85,0.92l1.39,1.5
				l3.72,4.41l3.68,4.92c0.06,0.08,0.12,0.16,0.18,0.24l2.96,4.56c0.05,0.08,0.1,0.15,0.15,0.23l1.47,2.6l1.8,3.31
				c4.5,8.89,7.69,18.66,9.47,29.04v0.02c1.15,7,1.97,13.37,2.5,19.43c0.54,6.67,0.79,13.27,0.75,19.55
				c-0.21,14.84-2.19,29.18-5.89,42.62L1329.78,513.96z"/>
			<path class="st5" d="M1348.94,423.73l-0.05-0.22c-2.04-9.7-4.96-19.2-8.65-28.21c-3.65-8.92-8.2-17.73-13.54-26.17
				c-5.01-7.94-10.89-15.85-17.48-23.48c-5.84-6.8-12.37-13.64-19.96-20.92c-11.29-10.8-23.5-21.2-34.27-30.37
				c-11.15-9.49-22.68-19.3-33.72-29.65l-0.06-0.06c-8.34-7.85-16.4-17.19-25.36-29.42c-5.25-7.15-10.36-14.68-15.3-21.95
				c-2.49-3.67-4.99-7.34-7.52-10.99c-7.43-10.72-15.66-22.09-25.49-32.58c-5.08-5.42-10.32-10.28-15.57-14.44
				c-5.7-4.52-11.71-8.46-17.87-11.72l-0.15-0.08c-17.41-9.16-35.51-15.7-53.76-19.42c-8.68-1.84-17.92-3.17-28.25-4.06
				c-8.2-0.71-17.15-1.1-28.2-1.21c-10.64-0.08-21.39,0.15-31.78,0.36l-1.83,0.04c-10.57,0.22-21.87,0.41-33.01,0.3l-11.35-0.08
				l-11.18,0.02c-8.91,0.12-16.95,0.26-24.98,0.7l-12.44,0.8c-1.12,0.07-2.24,0.18-3.34,0.29l-4.36,0.43
				c-1.65,0.16-3.35,0.33-5.09,0.57c-6.88,0.83-13.79,1.91-20.68,3.24c-3.38,0.18-9.3,1.47-17.04,3.79
				c-1.32,0.33-2.64,0.67-3.96,1.02c-11.98,3.19-24.64,7.27-39.79,12.84l-0.46,0.17c-11.29,4.21-22.89,9.6-35.47,16.47
				c-10.91,5.97-21.73,12.63-33.08,20.36c-10.64,7.26-21.09,15.04-31.07,23.14c-10.71,8.71-20.13,17.12-28.78,25.71l-0.28,0.28
				c-32.05,32.06-58.46,68.79-78.51,109.2c-4.96,10.06-9.57,20.44-13.74,30.89l-1.95,4.99c-0.39,0.99-0.78,1.99-1.11,2.92l-2.84,7.8
				l-2.71,8.04l-2.56,8.1c-3.27,10.72-6.15,21.71-8.57,32.68c-2.36,10.88-4.32,22.07-5.83,33.22c-1.15,8.18-2.04,17.02-2.82,27.88
				l-0.41,6.87c-0.09,1.53-0.14,3.06-0.19,4.6c-0.03,0.79-0.05,1.58-0.09,2.41l-0.12,3.45c-0.03,0.79-0.03,1.58-0.04,2.38l-0.1,8.15
				c0,27.16,2.68,54.42,7.96,81.02c1.36,6.87,2.9,13.7,4.61,20.5c8.78,35.99,22.42,70.21,40.87,102.38
				c5.17,9.16,10.67,18.12,16.51,26.83c15.02,22.44,32.41,43.6,51.68,62.89l0.22,0.22c4.6,4.57,9.58,8.95,14.8,13.01
				c9.46,7.37,20.36,14.19,32.38,20.28c9.89,5.01,20.85,9.76,34.47,14.96c8.88,3.38,17.95,6.6,26.71,9.71
				c2.68,0.95,5.36,1.9,8.05,2.86c10.16,3.62,22.15,7.99,34.03,12.92l0.08,0.03c9.53,3.96,19.14,8.32,28.43,12.53
				c10.13,4.6,20.6,9.35,31.14,13.66c11.55,4.73,21.83,8.38,31.43,11.16c11.66,3.38,22.48,5.54,33.09,6.62l9.73,0.76l9.73,0.35h0.16
				c1.08,0.02,2.16,0.02,3.24,0.02c13.23,0,26.83-1.01,40.47-3.02c14.57-2.15,28.94-5.4,42.77-9.67l7.21-2.31l0.19-0.06
				c1.57-0.55,3.14-1.13,4.7-1.7c0.83-0.3,1.66-0.61,2.54-0.93l1.21-0.45c0.81-0.3,1.63-0.59,2.43-0.91l9.18-3.83
				c0.25-0.1,0.51-0.21,0.76-0.32l9.54-4.5l8.66-4.61l10.05-5.97l2.99-1.99c0.67-0.45,1.51-1,2.46-1.73l5.93-4.58
				c0.65-0.51,1.22-1.01,1.78-1.5c0.25-0.22,0.5-0.44,0.73-0.64c1.49-1.26,2.96-2.63,4.5-4.09l1.14-1.07
				c4.23-4.12,8.53-8.79,12.77-13.85c8.36-9.91,18.06-23.54,30.51-42.88c1.63-2.52,3.29-5.1,4.99-7.74
				c4.2-6.53,8.54-13.28,13.26-20.34c6.15-9.18,13.63-20.01,22.43-30.72c16.16-19.73,30.84-36.5,43.06-50.29
				c3.46-3.9,6.76-7.62,9.91-11.17c8.34-9.39,15.55-17.51,21.6-24.46c8.11-9.27,14.21-16.48,18.24-21.25l6.53-7.8l0.06-0.08
				c10.35-12.58,18.93-24.7,26.21-37.01l1.43-2.38l1.48-2.62c0.31-0.56,0.63-1.12,0.94-1.68c0.61-1.08,1.21-2.16,1.84-3.33
				l2.56-4.92l3.75-7.64c0.3-0.62,0.58-1.25,0.86-1.88c0.12-0.27,0.24-0.55,0.4-0.89l0.78-1.75c0.51-1.13,1.01-2.26,1.5-3.39
				l2.16-5.24l2.07-5.39c2.86-7.69,5.15-14.82,6.98-21.76l0.24-0.88c0.18-0.64,0.36-1.29,0.53-1.97l0.66-2.74
				c0.13-0.55,0.26-1.09,0.4-1.64c0.31-1.27,0.64-2.59,0.91-3.98l1.13-5.38l1.04-5.75c1.33-7.94,2.25-15.34,2.82-22.66
				c0.56-7.45,0.82-15.1,0.79-22.76c-0.17-19.24-2.43-39.32-6.71-59.7L1348.94,423.73z M1333.09,514.61
				c-1.58,7.14-3.62,14.27-6.05,21.16c-2.51,7.12-5.4,13.93-8.59,20.27c-3.21,6.43-6.9,12.9-10.95,19.2
				c-3.77,5.82-8.02,11.7-12.96,17.91l-3.55,4.36l-3.73,4.31c-0.94,1.11-1.95,2.2-3.01,3.36l-2.55,2.77l-5.79,6.01
				c-0.82,0.83-1.66,1.65-2.51,2.47c-0.5,0.49-1,0.97-1.47,1.43l-1.99,1.94c-0.41,0.39-0.83,0.78-1.25,1.17l-4.93,4.56l-6.83,6.11
				l-23.45,20.68c-8.74,7.7-19.61,17.28-31.69,29.17c-7.01,6.9-14.04,14.4-20.91,22.3c-7.24,8.33-14.64,17.56-21.99,27.44
				c-4.03,5.4-7.9,11.32-11.84,18.1c-3.08,5.31-6.14,11.07-9.37,17.6c-2.91,5.86-5.47,11.48-7.82,16.67
				c-2.33,5.18-4.5,10.17-6.59,14.99l-1.13,2.62c-3.86,8.92-7.5,17.34-10.96,24.84c-3.85,8.36-7.32,15.3-10.62,21.24
				c-7.51,13.61-14.21,21.49-17.53,24.98l-0.15,0.16c-0.8,0.89-1.62,1.67-2.41,2.42l-1.09,1.05c-0.19,0.19-0.38,0.37-0.56,0.53
				l-3.09,2.61c-6.45,5.07-13.4,9.65-20.65,13.63c-7.41,4.04-15.07,7.59-22.8,10.55c-11.76,4.53-24.27,8.13-37.18,10.68
				c-12.97,2.55-25.91,4-38.41,4.29c-4.77,0.08-8.94,0.03-12.73-0.15c-4.48-0.22-8.61-0.58-12.6-1.09
				c-9.68-1.26-19.66-3.85-30.5-7.9c-8.77-3.28-18.11-7.51-29.41-13.33c-6.91-3.56-13.88-7.37-20.62-11.05
				c-2.8-1.53-5.59-3.06-8.4-4.57c-10.86-5.87-20.1-10.66-29.82-14.91l-0.29-0.13c0,0-0.01,0-0.02,0l-0.19-0.08
				c-10.11-4.37-21.09-8.32-33.54-12.05c-8.47-2.56-17.11-4.9-25.46-7.15c-2.85-0.77-5.69-1.54-8.54-2.32
				c-10.6-2.9-21.93-6.14-32.98-10.24c-11.61-4.29-21.45-9.13-30.07-14.82c-6-3.96-11.51-8.42-16.38-13.27l-0.02-0.02
				c-5.92-5.93-11.64-12.06-17.17-18.34c-14.11-24.41,20.77-50.69,1.22-84.9c-30.32-53.05-45.69-113.05-45.69-178.31
				s15.37-125.26,45.69-178.31c30.23-52.91,71.51-95.45,122.69-126.43c25.72-15.56,45.85-68.97,74.41-76.81
				c-0.02,0-0.04-0.02-0.07-0.03c4.92-0.81,9.76-1.44,14.5-1.88c7.24-0.64,14.82-0.99,23.14-1.05c9.81-0.02,19.54,0.34,29.42,0.74
				l29.7,1.3l5.8,0.18l5.92,0.08c13.06,0.02,25.8-0.72,36.55-1.45l4.24-0.28c10.34-0.69,21.02-1.41,31.46-1.5
				c7.48-0.05,14.21,0.24,20.6,0.88c6.92,0.69,13.68,1.84,20.08,3.42c6.48,1.59,12.99,3.72,19.33,6.31
				c6.04,2.47,12.23,5.49,18.41,8.97c5.51,3.13,10.75,7.08,15.57,11.75c4.5,4.35,8.7,9.34,12.85,15.24
				c7.9,11.28,14.04,23.52,20.15,36.11c1.06,2.19,2.11,4.38,3.16,6.57c5.04,10.5,10.26,21.36,16.23,31.73
				c4.01,6.96,7.96,12.98,12.08,18.43c4.66,6.17,9.65,11.71,14.85,16.47l0.22,0.2c4.56,4.11,9.54,8.27,14.83,12.39
				c4.73,3.63,9.78,7.31,15.45,11.27c6.26,4.34,12.68,8.6,18.89,12.73c4.14,2.75,8.28,5.5,12.38,8.28
				c7.51,5.11,16.32,11.26,24.68,18.06c0.56,0.47,1.12,0.94,1.69,1.4c1.42,1.17,2.76,2.29,4.08,3.48l1.06,0.93
				c0.59,0.52,1.18,1.03,1.76,1.56l2.79,2.63l5.26,5.25l3.81,4.19c0.22,0.25,0.43,0.51,0.65,0.77l2.91,3.5
				c0.47,0.59,0.92,1.19,1.37,1.79c0.29,0.38,0.58,0.77,0.87,1.15l0.07,0.09c1.03,1.3,2,2.74,3.03,4.26c0.4,0.59,0.8,1.18,1.26,1.85
				c0.24,0.33,0.5,0.76,0.77,1.22l2.05,3.38c0.26,0.42,0.53,0.86,0.7,1.2l1.89,3.55c0.12,0.23,0.25,0.47,0.37,0.7
				c0.12,0.21,0.24,0.42,0.37,0.72l0.85,1.82c4.09,8.68,7.1,18.07,8.93,27.9l0.08,0.44c1.25,7.04,2.18,13.53,2.85,19.78
				c0.69,6.88,1.1,13.71,1.23,20.24C1337.57,486.08,1336.13,500.84,1333.09,514.61L1333.09,514.61z"/>
		</g>
	</g>
</g>
</svg>
