<?xml version="1.0" encoding="utf-8"?>
<!-- Generator: Adobe Illustrator 27.6.1, SVG Export Plug-In . SVG Version: 6.00 Build 0)  -->
<svg version="1.1" id="Capa_1" xmlns="http://www.w3.org/2000/svg" xmlns:xlink="http://www.w3.org/1999/xlink" x="0px" y="0px"
	 viewBox="0 0 1920 1080" style="enable-background:new 0 0 1920 1080;" xml:space="preserve">
<style type="text/css">
	.st0{fill:#FFFFFF;}
	.st1{opacity:0.3;fill:#B2B2B2;enable-background:new    ;}
	.st2{opacity:0.35;fill:#CCCCCC;enable-background:new    ;}
	.st3{opacity:0.45;fill:#B2B2B2;enable-background:new    ;}
	.st4{opacity:0.8;fill:#CCCCCC;enable-background:new    ;}
	.st5{opacity:0.3;fill:#CCCCCC;enable-background:new    ;}
	.st6{opacity:0.5;fill:#B2B2B2;enable-background:new    ;}
	.st7{opacity:0.8;fill:#B2B2B2;enable-background:new    ;}
	.st8{fill:#CCCCCC;}
</style>
<g id="Diseño">
	<g>
		<path class="st0" d="M346.87,563.69v85.26h-29.62v-85.26c0-27.82-20.64-36.8-32.61-36.8c-21.54,0-41.58,10.17-41.58,39.79v82.27
			h-30.22V427.57l30.22-8.97v94.53c7.48-10.17,20.94-16.75,41.58-16.75C312.16,496.38,346.86,510.74,346.87,563.69L346.87,563.69z"
			/>
		<path class="st0" d="M456.36,650.74c-42.48,0-76.88-34.4-76.88-76.88s34.4-76.58,76.88-76.58s76.58,34.1,76.58,76.58
			S498.84,650.74,456.36,650.74z M455.76,624.71c25.43,0,46.07-22.44,46.07-50.26s-20.64-50.26-46.07-50.26
			s-46.07,22.74-46.07,50.26S430.03,624.71,455.76,624.71z"/>
		<path class="st0" d="M694.49,645.96h-29.62V632.2c-7.48,10.17-20.94,16.75-41.58,16.75c-27.52,0-62.22-14.36-62.22-67.31v-85.26
			h29.62v85.26c0,27.82,20.64,36.8,32.61,36.8c21.54,0,41.58-10.17,41.58-39.79v-82.27h29.62L694.49,645.96L694.49,645.96z"/>
		<path class="st0" d="M837.19,604.67c0,27.52-24.53,46.97-55.34,46.97s-59.23-20.04-59.23-47.57h31.11
			c0,10.47,11.37,21.54,28.12,21.54s26.03-10.17,26.03-20.64c0-8.68-5.98-18.55-18.55-21.24l-20.04-4.79
			c-22.44-5.98-37.99-20.34-37.99-40.99c0-23.63,17.65-41.88,46.67-41.88c30.51,0,47.57,15.86,50.56,36.5h-29.92
			c0-7.18-10.17-11.67-20.64-11.67c-12.86,0-18.55,7.48-18.55,16.75c0,6.88,1.5,12.86,9.87,15.56c5.68,1.79,11.67,3.29,20.04,5.09
			c26.92,5.39,47.87,21.24,47.87,46.37L837.19,604.67z"/>
		<path class="st0" d="M969.12,610.36h35.3c-12.27,24.83-37.09,41.58-66.71,41.58c-43.08,0-76.58-35-76.58-77.48
			s33.51-77.78,76.58-77.78s75.39,35,75.39,77.78c0,3.89-0.3,7.78-0.9,11.37H892.54c4.49,22.74,22.44,39.49,44.57,39.49
			C949.97,625.32,961.04,619.94,969.12,610.36L969.12,610.36z M893.13,561.6h87.06c-4.79-21.54-21.54-37.39-43.08-37.39
			S898.22,540.07,893.13,561.6z"/>
		<path class="st0" d="M1075.92,641.92c-11.37-6.68-20.39-15.86-27.07-27.52c-6.69-11.67-10.02-24.58-10.02-38.74
			s3.34-27.07,10.02-38.74s15.71-20.84,27.07-27.52c11.37-6.68,23.83-10.02,37.4-10.02c15.36,0,29.27,4.14,41.73,12.42
			s21.39,19.6,26.77,33.96h-18.55c-4.79-9.37-11.72-16.75-20.79-22.14c-9.08-5.38-18.8-8.08-29.17-8.08s-19.89,2.59-28.57,7.78
			c-8.68,5.19-15.56,12.37-20.64,21.54c-5.09,9.18-7.63,19.45-7.63,30.81s2.54,21.64,7.63,30.81c5.08,9.18,11.97,16.36,20.64,21.54
			c8.68,5.19,18.2,7.78,28.57,7.78s20.09-2.69,29.17-8.08c9.07-5.38,16.01-12.76,20.79-22.14h18.55
			c-5.39,14.36-14.31,25.68-26.77,33.96c-12.47,8.28-26.38,12.42-41.73,12.42c-13.57,0-26.03-3.34-37.4-10.02V641.92z"/>
		<path class="st0" d="M1482.18,641.92c-11.57-6.68-20.69-15.86-27.37-27.52c-6.69-11.67-10.02-24.58-10.02-38.74
			s3.34-27.07,10.02-38.74s15.8-20.84,27.37-27.52c11.56-6.68,24.33-10.02,38.29-10.02s26.43,3.34,37.99,10.02
			c11.56,6.68,20.74,15.86,27.52,27.52c6.78,11.67,10.17,24.58,10.17,38.74s-3.39,27.07-10.17,38.74s-15.96,20.84-27.52,27.52
			c-11.57,6.68-24.23,10.02-37.99,10.02S1493.74,648.6,1482.18,641.92z M1549.64,628.01c8.87-5.18,15.9-12.36,21.09-21.54
			c5.18-9.17,7.78-19.45,7.78-30.81s-2.59-21.64-7.78-30.81c-5.19-9.17-12.22-16.35-21.09-21.54c-8.88-5.18-18.6-7.78-29.17-7.78
			s-20.3,2.59-29.17,7.78c-8.88,5.19-15.91,12.37-21.09,21.54c-5.19,9.18-7.78,19.45-7.78,30.81s2.59,21.64,7.78,30.81
			c5.18,9.18,12.21,16.36,21.09,21.54c8.87,5.19,18.6,7.78,29.17,7.78S1540.76,633.2,1549.64,628.01z"/>
		<path class="st0" d="M1707.15,500.86v16.16h-14.36c-7.98,0-15.41,2.09-22.29,6.28s-12.32,9.83-16.3,16.9
			c-3.99,7.08-5.98,14.81-5.98,23.19v85.56h-17.05V502.36h17.05v23.93c5.18-7.97,11.91-14.21,20.19-18.7
			c8.27-4.49,17.2-6.73,26.77-6.73L1707.15,500.86L1707.15,500.86z"/>
		<path class="st0" d="M1426.27,655.1c-26.18-1.8-37.91-14.37-37.91-40.39V436.59l16.82-4.25v182.37c0,14.96,7.28,24.16,21.09,26.77
			L1426.27,655.1L1426.27,655.1z"/>
		<g>
			<g>
				<path class="st1" d="M1348.33,538.7c-37.18-63.7-138.27-37.42-137.53,37.28c-1.49,47.97,48.1,84.22,93.48,70.88
					c11.71-2.19,22.64-13.78,29.02-21.63c24.39-25.17,33.56-54.84,15.02-86.54L1348.33,538.7z M1340.77,586.72
					c0,0-3.79,13.29-18.15,16.45c-26.6,9.85-21.77,30.61-37.33,36.03l0,0c-1.59,0.41-3.39,0.48-5.23-0.15
					c-10.82-6.1-20.7-13.86-34.03-13.8c-32.82-25.9-28.88-83.44,7.73-104.04c4.55-2.75,9.37-4.84,14.41-6.25
					c43.36,3.69,82.1,27.19,72.61,71.76L1340.77,586.72z"/>
				<path class="st2" d="M1348.33,538.7c-6.59-11.18-15.6-20.09-26.77-26.49c-11.17-6.4-23.63-9.64-37.03-9.64
					s-25.86,3.24-37.03,9.64c-11.18,6.4-20.19,15.32-26.78,26.49c-6.58,11.15-9.91,23.7-9.91,37.28s3.34,26.13,9.91,37.28
					c6.59,11.18,15.6,20.09,26.78,26.49c11.16,6.4,23.62,9.64,37.03,9.64c6.37,0,12.52-0.73,18.42-2.18
					c6.53-1.61,12.95-4.53,18.07-8.94c5.13-4.42,6.95-7.2,9.7-10.12c2.22-2.36,4.07-4.58,6.32-7.09c1.53-1.71,3.14-3.71,4.97-5.98
					c8.14-10.07,16.24-25.51,16.24-39.09S1354.91,549.86,1348.33,538.7L1348.33,538.7z M1344.56,587.9
					c-0.08,0.28-0.17,0.57-0.25,0.85c0,0-2.33,11.51-16.54,17.86c-15.18,6.79-33.17,29.09-33.17,29.09s-1.27,1.5-3.33,3.13
					c0,0,0,0-0.01,0l0,0c-3.73,2.96-10.03,6.35-16.05,2.16c-1.64-1.14-3.11-2.27-4.49-3.34l0,0c-6.47-5.05-10.8-9.05-20.62-9.28
					c-7.53-5.29-13.71-12.12-18.41-20.34c-5.45-9.54-8.21-20.32-8.21-32.05s2.76-22.52,8.21-32.05
					c5.43-9.51,12.85-17.16,22.05-22.73c4.55-2.75,9.37-4.84,14.41-6.25c44.75-5.39,71.59,33.72,71.74,33.95l0,0l0,0
					c0,0,11.79,14.65,4.66,39l0,0L1344.56,587.9z"/>
				<path class="st1" d="M1348.33,538.7c-6.59-11.18-15.6-20.09-26.77-26.49c-11.17-6.4-23.63-9.64-37.03-9.64
					s-25.86,3.24-37.03,9.64c-11.18,6.4-20.19,15.32-26.78,26.49c-6.58,11.15-9.91,23.7-9.91,37.28s3.34,26.13,9.91,37.28
					c6.59,11.18,15.6,20.09,26.78,26.49c11.16,6.4,23.62,9.64,37.03,9.64c10.39,0,20.59-1.13,29.29-5.8
					c0.57-0.3,0.95-0.57,1.43-0.86c0.58-0.36,1.14-0.76,1.71-1.17c0.48-0.34,0.96-0.67,1.4-1.06c0.55-0.48,1.12-0.9,1.63-1.34
					c0.35-0.3,0.74-0.63,1.04-0.9c1.25-1.1,2.75-2.64,4.08-4.06c2.59-2.74,5.04-5.56,7.14-7.78c1.43-1.51,2.78-3.1,4.02-4.48
					c2.06-2.3,3.88-4.35,5.76-6.88c0.7-0.93,1.42-1.83,2.16-2.81c0.4-0.53,0.82-1.06,1.2-1.7c6.58-11.15,12.88-20.99,12.88-34.58
					s-3.34-26.13-9.91-37.28L1348.33,538.7z M1345.57,575.98L1345.57,575.98c-21.83,11.14-22.79,26.04-22.79,26.04
					s-5.22,24.21-7.48,28.74l0,0c-2.26,4.53-7.35,8.03-7.35,8.03s-20.39,11.49-32.54,4.1c-4.17-2.53-7.87-5.2-11.4-7.2l0,0
					c-2.17-1.24-4.28-2.22-6.39-2.77c-1.32-0.67-2.61-1.38-3.89-2.15c-9.19-5.56-16.61-13.21-22.05-22.73
					c-5.45-9.54-8.21-20.32-8.21-32.05s2.76-22.52,8.21-32.05c5.43-9.51,12.85-17.16,22.05-22.73c4.63-2.8,9.53-4.91,14.68-6.32
					c20.37-2.62,31.73,1.7,45.97,7.87c4.98,2.16,10.63,6.28,15.96,11.2c0.02,0.03,0.05,0.06,0.07,0.09h0.01
					c9.9,9.15,18.69,21.02,20.03,28.1c2.06,10.92-4.9,13.83-4.9,13.83H1345.57z"/>
				<path class="st3" d="M1348.32,538.69c-0.58-0.98-1.52-1.93-2.29-2.82c-1.2-1.38-2.33-2.65-3.53-3.87
					c-2.61-2.65-4.95-5.03-7.64-7.63c-3.16-3.06-5.97-6.53-9.35-9.37c-1.23-1.04-2.54-1.99-3.96-2.81
					c-11.17-6.4-23.63-9.64-37.03-9.64s-25.86,3.24-37.03,9.64c-11.18,6.4-20.19,15.32-26.78,26.49
					c-6.58,11.15-9.91,23.7-9.91,37.28s3.34,26.13,9.91,37.28c4.35,7.38,9.76,13.77,16.14,19.1c3.29,2.75,8.4,4.31,12.53,5.78
					c5.63,2,9.84,3.73,14.6,5.63c6.52,2.6,12.79,5.62,20.54,5.62c10.39,0,20.2-1.95,29.29-5.8c0.21-0.09,0.5-0.29,0.7-0.41
					c0.56-0.35,0.82-0.5,1.26-0.79c1.89-1.24,3.66-2.94,5.25-4.13c1.29-0.96,2.44-2.41,3.54-3.49c3.23-3.16,5.88-6.3,8.75-9.54
					c2.72-3.07,5.56-6.26,8.21-9.54c0.94-1.17,1.81-2.25,2.68-3.47c0.23-0.32,0.49-0.65,0.73-0.99c0.06-0.09,0.14-0.16,0.19-0.25
					c6.58-11.15,13.13-21.42,13.13-35.01s-3.34-26.13-9.91-37.28L1348.32,538.69z M1340.67,601.27L1340.67,601.27L1340.67,601.27
					c-2.58,2.89-6.02,5.79-10.5,7.91c-12.24,5.79-23.67,20.43-34.8,29.07l0,0c-0.56,0.43-1.11,0.85-1.67,1.25
					c-11.66,8.4-20.42,4.05-23.31,2.56c-1.06-0.55-3.41-2.31-5.78-4.13c-0.15-0.12-0.49-0.38-0.91-0.7
					c-0.97-0.75-1.92-1.48-2.76-2.11c-0.58-0.49-1.23-0.95-1.77-1.3c-0.34-0.24-0.62-0.43-0.83-0.55c-0.22-0.13-0.37-0.18-0.37-0.18
					c-1.44-0.72-2.85-1.49-4.24-2.33c-1.69-1.02-3.32-2.11-4.89-3.27c-0.83-0.62-1.51-1.16-1.96-1.51
					c-0.16-0.13-0.31-0.25-0.47-0.38c-0.02-0.01-0.03-0.02-0.04-0.03c-5.87-4.82-10.8-10.69-14.7-17.53
					c-5.45-9.54-8.21-20.32-8.21-32.05s2.76-22.52,8.21-32.05c5.43-9.51,12.85-17.16,22.05-22.73c4.63-2.8,9.53-4.91,14.68-6.32
					c24.12-4.34,40.87,5.7,47.16,8.42c2.36,1.02,6.37,3.23,10.83,6.46l0,0c7.41,5.38,16.06,13.61,20.44,23.93
					c7.01,16.54,0.46,36.86,0.46,36.86s-1.82,5.33-6.64,10.72L1340.67,601.27z"/>
				<path class="st4" d="M1333.29,614.28L1333.29,614.28L1333.29,614.28c-14.35,5.34-28.93,21.63-28.93,21.63
					c-1.31,1.4-2.73,2.91-4.28,4.56c0,0-9.44,8.72-25.22,6.32c-4.8-2.01-10.19-8.81-10.19-8.81c-3.55-2.89-6.69-4.89-6.69-4.89
					c-0.72-0.36-1.46-0.74-2.38-1.25c-1.74-0.97-3.85-2.27-5.56-3.49c-2.11-1.51-3.7-2.83-3.7-2.83s0,0,0,0.01c0,0,0,0,0-0.01l0,0
					c-5.85-4.82-10.76-10.67-14.65-17.48c-5.45-9.54-8.21-20.32-8.21-32.05s2.76-22.52,8.21-32.05
					c5.43-9.51,12.85-17.16,22.05-22.73c9.26-5.6,19.62-8.44,30.78-8.44s21.52,2.84,30.78,8.44c4.4,2.67,8.4,5.81,11.96,9.4l0,0
					c0,0,20.8,10.84,25.48,32.4c4.68,21.57-2.44,44.95-19.45,51.28L1333.29,614.28z M1348.32,538.69c-0.15-0.25-0.35-0.49-0.53-0.72
					c-0.3-0.38-0.58-0.72-0.88-1.07c-0.83-0.99-1.64-1.91-2.48-2.83c-2.67-2.92-5.46-5.57-8.37-8.48c-1.3-1.3-2.62-2.66-3.91-4.05
					c-3.23-3.47-6.52-7.01-10.6-9.34c-11.17-6.4-23.63-9.64-37.03-9.64s-25.86,3.24-37.03,9.64c-11.18,6.4-20.19,15.32-26.78,26.49
					c-6.58,11.15-9.91,23.7-9.91,37.28s3.34,26.13,9.91,37.28c5.35,9.07,12.28,16.64,20.68,22.6c0,0,0.01,0,0.02,0.01
					c0.01,0,0.02,0.02,0.04,0.02c0.03,0.02,0.05,0.03,0.08,0.05c0.07,0.05,0.15,0.09,0.23,0.14c0.02,0.01,0.05,0.03,0.07,0.04
					c0.32,0.19,0.63,0.37,0.97,0.56c1.59,0.91,3.24,1.8,4.94,2.57c1.1,0.5,2.06,0.95,3.09,1.4c1.78,0.78,3.57,1.52,5.44,2.28
					c0.42,0.17,0.9,0.36,1.32,0.53c8.47,3.36,17.37,5.94,26.94,5.94c10.39,0,20.2-1.95,29.29-5.8c0,0,0.02-0.01,0.03-0.02
					c0.02-0.01,0.04-0.02,0.06-0.03c0.06-0.04,0.12-0.07,0.19-0.11c0.28-0.16,0.53-0.34,0.82-0.5c0.1-0.06,0.19-0.12,0.28-0.17
					c0.2-0.12,0.39-0.24,0.58-0.37c0.35-0.23,0.68-0.47,1.07-0.75s0.84-0.61,1.16-0.86c0.98-0.77,1.81-1.46,2.71-2.25
					c0.58-0.5,1.13-0.96,1.62-1.43c0.63-0.6,1.26-1.16,1.83-1.73c1-0.99,1.84-1.97,2.74-2.89c0.5-0.51,1.01-1.16,1.49-1.7
					c0.83-0.92,1.51-1.72,2.31-2.64c1.76-2.01,3.51-3.91,5.26-5.88c2.06-2.33,4.06-4.71,6.03-7.19c0.69-0.87,1.36-1.75,2.04-2.65
					c0.24-0.32,0.49-0.65,0.73-0.98c0.08-0.1,0.15-0.21,0.23-0.31c0.02-0.03,0.04-0.06,0.06-0.09c0.01-0.01,0.02-0.03,0.03-0.04
					l0.02-0.03c6.58-11.15,13.12-21.41,13.12-34.99s-3.34-26.13-9.91-37.28L1348.32,538.69z"/>
				<path class="st0" d="M1253.74,521.2c22.64-14.14,54.86-10.06,73.31,9.19c3.73-0.11,5.5,1.79,10.59,1.86
					c-3.98-3.11-5.56-5.13-7.69-8.1c-25.98-36.28-88.57-23.58-109.24,14.55c-17.69,28.84-10.96,70.95,14.77,92.59
					c2.42,2.03,4.96,3.35,7.71,4.99c1.46,0.87,3.24,1.45,4.78,2.2c0.94,0.42,1.67,0.7,2.58,1.06c1.48,0.58,2.89,1.2,4.34,1.69
					c3.23,1.11,6.49,2.88,9.74,3.93c-0.71-2.03,2.36-5.01,0.04-7.18s-6.69-4.89-6.69-4.89c-3.11-1.36-9.69-5.8-11.64-7.58
					c0,0,0,0,0,0.01c0,0,0,0,0-0.01l0,0c-33.14-25.78-29.35-83.63,7.41-104.31H1253.74z"/>
			</g>
			<g>
				<path class="st5" d="M1360.54,574.48L1360.54,574.48c-0.07-3.03-0.31-6.09-0.71-9.1c-0.43-2.96-1.03-5.94-1.78-8.85l-0.03-0.11
					c-0.68-2.53-1.5-5.05-2.44-7.51l-0.46-1.19l-1.03-2.45l-0.13-0.29c-0.5-1.09-1.02-2.21-1.59-3.3c-0.94-1.88-1.98-3.66-2.88-5.16
					c-0.17-0.27-0.34-0.54-0.51-0.8c-0.09-0.14-0.18-0.29-0.28-0.44l-0.39-0.61l-1.25-1.84c-0.05-0.07-0.09-0.14-0.14-0.2
					c-0.1-0.14-0.19-0.28-0.29-0.42l-0.43-0.58c-2.31-3.16-4.88-6.18-7.66-8.97l0,0l0,0l-0.02-0.02c-3.27-3.27-6.85-6.24-10.63-8.84
					c-3.8-2.62-7.87-4.89-12.07-6.75h-0.03c-4.77-2.11-9.75-3.72-14.82-4.8c-5.08-1.07-10.29-1.62-15.49-1.64h-0.01l-2.19,0.03
					l-2.19,0.09h-0.08c-2.49,0.15-5,0.42-7.46,0.8c-7.8,1.23-15.32,3.66-22.32,7.22l-0.11,0.05c-6.99,3.57-13.38,8.22-18.99,13.82
					l-0.02,0.02c-5.61,5.61-10.26,12.01-13.84,19.03c-0.95,1.86-1.76,3.62-2.48,5.37c-0.77,1.86-1.46,3.73-2.05,5.55
					c-0.6,1.87-1.14,3.78-1.6,5.7l-0.31,1.35l-0.31,1.5c-0.06,0.27-0.11,0.53-0.14,0.75l-0.17,0.97c-0.03,0.16-0.06,0.32-0.09,0.49
					l-0.11,0.71c-0.6,3.75-0.91,7.71-0.93,11.77c0,4.92,0.49,9.86,1.44,14.68c0.96,4.83,2.39,9.58,4.27,14.12s4.22,8.92,6.96,13.01
					c2.72,4.06,5.87,7.89,9.36,11.39l1.24,1.21c0.19,0.19,0.38,0.36,0.56,0.53l0.74,0.68c3.6,3.28,7.44,6.16,11.4,8.58
					c4.05,2.48,8.34,4.58,12.78,6.25l0.09,0.03c7.3,2.73,14.97,4.31,22.79,4.68l2.01,0.07l2.05,0.02
					c5.33-0.03,10.67-0.63,15.87-1.78c2.1-0.47,4.15-1.01,6.08-1.61c1.98-0.62,3.96-1.33,5.9-2.11l0,0l1.73-0.73l0.18-0.08
					c1.11-0.5,2.8-1.25,4.93-2.38l0.84-0.46c0.09-0.05,0.18-0.1,0.27-0.14c0.21-0.11,0.43-0.23,0.64-0.35l1.09-0.63
					c0.11-0.06,0.23-0.13,0.34-0.2l1.5-0.91l1.26-0.81c0.12-0.08,0.24-0.16,0.38-0.25l1.25-0.85c0.15-0.1,0.3-0.21,0.44-0.31
					l1.15-0.83c0.27-0.19,0.53-0.39,0.78-0.58c0.14-0.1,0.27-0.21,0.42-0.32c0.07-0.05,0.13-0.1,0.2-0.15
					c0.14-0.11,0.28-0.21,0.42-0.32l1.22-0.97c0.15-0.11,0.29-0.23,0.43-0.36c0.07-0.06,0.14-0.12,0.21-0.18
					c1.81-1.5,3.56-3.09,5.21-4.74c1.65-1.65,3.24-3.39,4.73-5.2c0.06-0.07,0.12-0.14,0.17-0.21c0.12-0.14,0.24-0.29,0.35-0.43
					l0.96-1.21c0.11-0.14,0.22-0.28,0.32-0.42c0.05-0.07,0.1-0.13,0.16-0.21c0.1-0.14,0.21-0.28,0.31-0.41
					c0.19-0.25,0.39-0.51,0.58-0.78l0.81-1.13c0.11-0.15,0.21-0.3,0.32-0.45l0.85-1.25c0.08-0.12,0.16-0.24,0.24-0.36l0.79-1.23
					l0.93-1.52c0.07-0.11,0.13-0.23,0.2-0.34l0.62-1.07c0.13-0.22,0.25-0.44,0.36-0.65c0.05-0.09,0.1-0.18,0.15-0.28l0.46-0.85
					c1.12-2.11,1.87-3.79,2.37-4.9l0.78-1.84l0.03-0.06c1.89-4.69,3.32-9.6,4.27-14.59C1360.17,584.68,1360.6,579.58,1360.54,574.48
					L1360.54,574.48z M1234.98,525.5L1234.98,525.5c0.91-0.9,1.91-1.82,3.05-2.78c1.01-0.86,2.1-1.74,3.24-2.62
					c2.24-1.72,4.53-3.34,6.82-4.8c2.58-1.64,4.94-2.98,7.22-4.09c1.33-0.65,2.57-1.18,3.77-1.64c1.39-0.52,2.66-0.91,3.87-1.17
					c2.07-0.43,4.29-0.85,6.55-0.99h0.05c0.07-0.01,0.17-0.01,0.26-0.01l1.04-0.02l0.98,0.04h0.03c0.07,0,0.17,0.01,0.28,0.02
					l0.88,0.09c0,0,0.06,0,0.1,0.01l0.58,0.09c0.07,0.01,0.13,0.02,0.2,0.03c0.09,0.01,0.17,0.02,0.27,0.04l0.5,0.09
					c0.76,0.14,1.53,0.31,2.27,0.47c0.56,0.12,1.11,0.24,1.66,0.35c2.48,0.52,5.13,0.92,8.09,1.24l1.04,0.08l1.04,0.04h0.03
					c1.29,0.02,2.64-0.06,4.03-0.24c1.44-0.19,2.84-0.48,3.9-0.71c0.3-0.07,0.61-0.13,0.91-0.2c0.93-0.21,1.89-0.42,2.83-0.59
					c1.35-0.25,2.54-0.37,3.63-0.37c0.78,0,1.56,0.07,2.33,0.19l0.59,0.11c0.12,0.03,0.24,0.06,0.36,0.09l0.21,0.05
					c0,0,0.08,0.02,0.13,0.03c0.04,0,0.08,0.02,0.12,0.03l0.67,0.21c0.05,0.02,0.1,0.03,0.15,0.05l0.05,0.02
					c1.4,0.49,2.84,1.21,4.27,2.13l0.02,0.02c1.05,0.68,1.99,1.59,2.78,2.71c0.71,1,1.33,2.17,1.88,3.58c0.45,1.15,0.84,2.42,1.25,4
					c0.35,1.38,0.65,2.77,0.95,4.19l0.12,0.58c0.25,1.21,0.52,2.46,0.81,3.68c0.4,1.69,0.78,3.05,1.2,4.28
					c0.55,1.6,1.16,2.97,1.86,4.17c0.84,1.44,1.85,2.66,2.99,3.63l0.05,0.04c1.21,1.02,2.62,1.91,4.32,2.73
					c1.66,0.8,3.35,1.42,4.65,1.87c0.9,0.32,1.82,0.62,2.71,0.91c1.14,0.38,2.32,0.77,3.46,1.18c1.76,0.64,3.81,1.45,5.72,2.61
					c0.44,0.27,0.87,0.56,1.27,0.85c0.39,0.29,0.79,0.62,1.16,0.96c0.75,0.69,1.4,1.45,1.92,2.25l0.41,0.68
					c0.05,0.08,0.09,0.17,0.14,0.25v0.02c0.04,0.05,0.07,0.1,0.09,0.15c0.03,0.05,0.06,0.11,0.08,0.16l0.18,0.4
					c0.03,0.06,0.05,0.12,0.08,0.18c0.02,0.05,0.04,0.1,0.07,0.17c0.06,0.14,0.12,0.3,0.18,0.47c0.03,0.07,0.05,0.15,0.08,0.22
					c0.3,0.91,0.53,1.9,0.66,2.94l0,0c0.19,1.49,0.27,2.92,0.25,4.26c-0.03,1.36-0.16,2.68-0.41,3.92
					c-0.26,1.29-0.64,2.55-1.15,3.74c-0.5,1.18-1.13,2.34-1.88,3.45c-0.72,1.06-1.55,2.1-2.48,3.09c-0.87,0.93-1.83,1.82-2.93,2.74
					l-1.57,1.25l-0.34,0.25c-0.45,0.33-0.87,0.64-1.31,0.93l-0.02,0.02c-0.39,0.27-0.78,0.53-1.2,0.81
					c-0.16,0.1-0.32,0.21-0.48,0.31l-1.03,0.64c-0.09,0.05-0.18,0.11-0.26,0.16l-0.46,0.27c-1.15,0.69-2.34,1.34-3.56,1.99
					l-0.53,0.28c-0.23,0.12-0.52,0.27-0.9,0.46c-0.76,0.39-2.13,1.07-4.34,2.13l-0.47,0.23c-0.84,0.41-1.8,0.86-2.82,1.39
					c-1.25,0.65-2.6,1.37-3.97,2.32c-0.74,0.51-1.45,1.07-2.1,1.64c-0.69,0.61-1.38,1.3-2.02,2.04c-1.18,1.34-2.38,3-3.66,5.09
					c-0.71,1.17-1.33,2.51-1.88,4.09c-0.41,1.18-0.77,2.43-1.14,3.96c-0.6,2.58-0.99,5.04-1.31,7.13c-0.17,1.16-0.33,2.26-0.48,3.32
					c-0.13,0.93-0.26,1.82-0.38,2.67c-0.29,1.97-0.55,3.51-0.82,4.83c-0.28,1.39-0.58,2.6-0.9,3.62c-0.28,0.92-0.6,1.72-0.93,2.4
					c-0.23,0.48-0.48,0.91-0.73,1.27l-0.02,0.02c-0.06,0.09-0.11,0.16-0.15,0.21l-0.12,0.16c-0.5,0.61-1.05,1.2-1.66,1.76
					c-0.59,0.53-1.24,1.05-1.91,1.52c-2.12,1.47-4.61,2.64-7.4,3.48c-0.56,0.17-1.18,0.34-1.99,0.53c-0.64,0.14-1.33,0.29-2.03,0.4
					c-1.34,0.23-2.72,0.36-4.09,0.39c-0.59,0-1.22,0-1.85-0.04c-0.66-0.05-1.24-0.12-1.77-0.23h-0.03
					c-1.73-0.36-3.51-1.05-5.45-2.11c-1.88-1.03-3.62-2.26-5.07-3.32c-0.77-0.56-1.55-1.15-2.3-1.72c-0.88-0.66-1.78-1.34-2.69-2
					c-1.55-1.12-3.4-2.39-5.4-3.36l-0.82-0.37c-0.09-0.04-0.18-0.08-0.27-0.12l-0.34-0.13c-0.07-0.03-0.14-0.06-0.21-0.08
					c-0.15-0.06-0.31-0.12-0.48-0.18l-0.65-0.22c-0.14-0.05-0.27-0.09-0.39-0.13l-0.66-0.2c-0.09-0.03-0.18-0.05-0.28-0.08
					l-0.79-0.21l-0.73-0.17c-1.64-0.36-3.39-0.61-5.69-0.82c-0.83-0.08-1.67-0.14-2.48-0.21c-1.02-0.08-2.07-0.16-3.1-0.27
					c-1.04-0.11-1.9-0.22-2.7-0.36c-0.95-0.16-1.79-0.36-2.59-0.61c-0.95-0.29-1.82-0.66-2.57-1.09c-0.8-0.45-1.53-1-2.17-1.63
					l-0.03-0.03c-3.3-3.3-6.27-6.92-8.84-10.76c-2.59-3.87-4.8-8.01-6.58-12.3c-1.78-4.29-3.14-8.79-4.04-13.36
					c-0.9-4.56-1.36-9.23-1.36-13.89c0-2.51,0.14-5.05,0.4-7.55c0.22-2.03,0.51-4.04,0.89-5.98c0.38-1.97,0.85-3.95,1.4-5.88
					c0.55-1.95,1.18-3.88,1.88-5.74c0.71-1.88,1.51-3.75,2.38-5.56c3.44-7.23,8.11-13.83,13.9-19.63L1234.98,525.5z"/>
				<path class="st6" d="M1357.9,556.9l-0.03-0.11c-0.7-2.73-1.63-5.45-2.76-8.08c-1.1-2.55-2.42-5.11-3.94-7.61
					c-1.79-2.93-3.93-5.89-6.34-8.81c-2.17-2.62-4.56-5.22-7.31-7.94l-0.38-0.37c-3.11-3.06-6.33-6.22-9.76-9.09
					c-1.94-1.63-3.77-3.01-5.59-4.23c-2.02-1.35-4.07-2.51-6.1-3.46l-0.06-0.03c-4.6-2.11-9.49-3.66-14.53-4.61
					c-4.68-0.87-9.63-1.29-15.14-1.29l-2.15,0.03l-2.18,0.07h-0.06c-3.11,0.13-6.13,0.41-8.99,0.84c-1.97,0.3-3.68,0.63-5.24,0.99
					l-0.64,0.15c-0.15,0.03-0.3,0.07-0.44,0.11l-1.49,0.38h-0.04c-0.23,0.08-0.46,0.14-0.68,0.2c-0.61,0.17-1.24,0.35-1.87,0.55
					c-3.15,0.97-6.38,2.24-9.86,3.86l-0.06,0.03c-3.55,1.67-7.13,3.79-10.63,6.29c-3.38,2.41-6.54,5.09-9.41,7.95l-0.02,0.02
					c-5.65,5.64-10.32,12.1-13.9,19.17l-0.2,0.4l-0.46,0.95c-0.07,0.14-0.13,0.28-0.2,0.42c-0.15,0.3-0.3,0.62-0.43,0.93l-0.6,1.33
					l-0.58,1.39c-0.74,1.83-1.43,3.71-2.03,5.59c-0.58,1.8-1.1,3.68-1.58,5.74l-0.09,0.39l-0.53,2.5l-0.26,1.45
					c-0.04,0.2-0.07,0.39-0.1,0.59l-0.14,0.91c-0.01,0.08-0.02,0.16-0.04,0.23c-0.03,0.16-0.05,0.32-0.07,0.48l-0.14,1.04
					c-0.05,0.35-0.1,0.71-0.13,1.07l-0.05,0.49c-0.03,0.3-0.07,0.61-0.1,0.91l-0.12,1.43c-0.14,1.88-0.21,3.79-0.22,5.68
					c0,4.91,0.48,9.84,1.44,14.65c0.95,4.82,2.39,9.56,4.26,14.09c1.88,4.53,4.21,8.9,6.94,12.98c2.71,4.05,5.85,7.88,9.34,11.36
					l1.31,1.26c0.07,0.07,0.14,0.14,0.23,0.22l0.92,0.82c3.42,3.03,7.33,5.76,11.6,8.11c3.72,2.06,7.89,3.97,12.75,5.85l0.04,0.02
					c4.03,1.55,7.66,2.73,11.1,3.61c4.08,1.04,7.86,1.66,11.56,1.89l1.99,0.09l1.96,0.03h0.02c5.21,0,10.45-0.62,15.57-1.84
					c2.14-0.52,4.09-1.08,5.97-1.72c1.95-0.67,3.88-1.44,5.73-2.27l1.73-0.83l0.04-0.02c1.02-0.53,2.71-1.42,4.86-2.83
					c2.41-1.58,4.91-3.48,7.42-5.65c2.79-2.4,5.92-5.43,9.32-8.99c3.03-3.19,5.81-6.48,8.25-9.76c1.85-2.5,3.51-4.98,5.08-7.6
					c1.17-1.95,2.01-3.52,2.56-4.56l0.92-1.78l0.05-0.11c1.09-2.2,2.07-4.47,2.91-6.77c0.83-2.26,1.54-4.65,2.13-7.08
					c0.56-2.34,1-4.79,1.31-7.28c0.29-2.4,0.45-4.88,0.48-7.38c0.05-5.8-0.66-11.67-2.12-17.46L1357.9,556.9z M1269.6,639.06
					c-0.82-0.58-1.67-1.17-2.52-1.75c-1.55-1.05-3.41-2.25-5.39-3.18l-0.07-0.03c-0.93-0.43-1.87-0.8-2.81-1.12
					c-0.94-0.31-1.91-0.58-2.89-0.81c-0.93-0.21-1.88-0.4-2.91-0.58c-0.87-0.14-1.82-0.28-2.9-0.43c-0.54-0.07-1.09-0.14-1.63-0.21
					c-1.34-0.17-2.72-0.35-4.07-0.57c-2.18-0.36-3.88-0.8-5.36-1.4c-1.57-0.62-3.02-1.56-4.19-2.7l-0.04-0.04
					c-3.3-3.31-6.27-6.93-8.84-10.77c-2.59-3.87-4.81-8.02-6.6-12.33c-1.78-4.3-3.14-8.8-4.05-13.38
					c-0.91-4.57-1.37-9.25-1.37-13.92c0-2.6,0.15-5.22,0.43-7.8c0.22-1.99,0.52-3.99,0.9-5.96c0.37-1.9,0.84-3.87,1.41-5.86
					c0.55-1.92,1.19-3.85,1.89-5.72c0.69-1.81,1.49-3.68,2.38-5.53c0.88-1.83,1.83-3.62,2.83-5.32c1.02-1.72,2.12-3.42,3.28-5.05
					l0.33-0.46l1.47-1.96l0.95-1.2c0.1-0.13,0.2-0.25,0.31-0.38l0.64-0.76c1.29-1.52,2.66-3.01,4.07-4.43l0.06-0.06l0,0
					c1.67-1.66,3.59-3.31,6.01-5.2c2.14-1.66,4.35-3.23,6.58-4.67c2.48-1.6,4.76-2.91,6.97-4c1.28-0.63,2.47-1.16,3.64-1.61
					c1.33-0.52,2.55-0.9,3.73-1.19l1.87-0.42c0.4-0.08,0.8-0.16,1.2-0.24c0.22-0.04,0.43-0.08,0.65-0.13l1.5-0.24
					c0,0,0.07-0.01,0.11-0.02l1.19-0.14l0.91-0.07h0.03c0.41-0.04,0.83-0.04,1.28-0.05c0.16,0,0.31,0,0.47,0
					c1.1,0.02,2.26,0.12,3.64,0.31l0.93,0.13l2.83,0.44c2.55,0.4,5.13,0.71,7.67,0.94l1.02,0.07l1.04,0.04h0.02
					c1.25,0.02,2.57-0.04,3.92-0.19c1.38-0.15,2.7-0.36,3.82-0.56c0.36-0.06,0.72-0.12,1.07-0.19c0.86-0.15,1.75-0.31,2.62-0.44
					c1.39-0.2,2.53-0.3,3.6-0.32c0.89,0,1.76,0.05,2.6,0.18h0.02c0.38,0.05,0.77,0.13,1.18,0.22l0.73,0.18h0.03
					c0.06,0.02,0.13,0.04,0.19,0.06l0.7,0.22l0.29,0.11c0.08,0.03,0.17,0.06,0.25,0.09c0.12,0.04,0.25,0.09,0.36,0.13l0.26,0.11
					c0.33,0.14,0.65,0.27,0.94,0.42l0.04,0.02c0.8,0.37,1.57,0.83,2.29,1.26l0.04,0.02c1.03,0.65,1.96,1.5,2.76,2.54
					c0.74,0.94,1.39,2.05,1.99,3.37c0.5,1.09,0.94,2.3,1.41,3.79c0.42,1.33,0.79,2.7,1.13,3.99l0.21,0.79
					c0.65,2.43,1.32,4.95,2.26,7.36c0.6,1.51,1.23,2.8,1.95,3.95c0.85,1.35,1.83,2.51,2.92,3.46c0.66,0.58,1.41,1.14,2.21,1.67
					c0.71,0.47,1.47,0.92,2.35,1.38c1.63,0.86,3.29,1.58,4.85,2.23c0.58,0.24,1.16,0.48,1.74,0.71c1.34,0.55,2.73,1.11,4.07,1.71
					c2.25,1.02,3.89,1.93,5.31,2.96c0.84,0.61,1.59,1.26,2.23,1.93c0.69,0.72,1.28,1.5,1.76,2.3l0.02,0.03
					c0.08,0.12,0.15,0.26,0.23,0.41c0.04,0.07,0.07,0.13,0.11,0.2c0.03,0.07,0.07,0.14,0.11,0.21c0.07,0.15,0.15,0.29,0.2,0.41
					l0.02,0.04c0.21,0.45,0.39,0.93,0.53,1.35c0.3,0.9,0.52,1.87,0.67,2.87c0.22,1.53,0.33,3.02,0.34,4.42c0,1.38-0.09,2.73-0.28,4
					l0,0c-0.2,1.33-0.52,2.63-0.94,3.87c-0.42,1.24-0.97,2.47-1.62,3.64c-0.63,1.13-1.38,2.25-2.23,3.33
					c-0.79,1.01-1.7,2.02-2.7,3.01c-0.86,0.85-1.86,1.73-3.05,2.7c-1.93,1.55-4.08,3.03-6.77,4.66l-1.4,0.82
					c-0.86,0.51-2.16,1.25-4.21,2.41c-0.47,0.27-0.98,0.55-1.51,0.86l-0.28,0.16c-0.18,0.1-0.36,0.21-0.54,0.32l-0.84,0.5
					c-0.27,0.16-0.54,0.33-0.8,0.49l-0.65,0.41c-0.06,0.04-0.12,0.07-0.19,0.12l-0.56,0.38c-0.21,0.14-0.41,0.28-0.62,0.42
					l-0.99,0.73l-0.02,0.02c-1.44,1.11-2.78,2.38-4,3.77c-1.22,1.4-2.44,3.04-3.73,5.03c-0.72,1.12-1.35,2.38-1.95,3.86
					c-0.45,1.12-0.86,2.32-1.28,3.75c-0.71,2.45-1.22,4.79-1.63,6.8c-0.2,0.95-0.38,1.87-0.56,2.75c-0.21,1.05-0.41,2.03-0.61,2.97
					c-0.39,1.83-0.74,3.33-1.08,4.58c-0.36,1.32-0.73,2.47-1.11,3.41c-0.18,0.46-0.37,0.89-0.54,1.26
					c-0.21,0.43-0.37,0.73-0.52,0.99c-0.25,0.44-0.52,0.83-0.79,1.17l-0.02,0.03c-0.06,0.07-0.11,0.13-0.15,0.18
					c-0.03,0.03-0.05,0.06-0.07,0.08l-0.07,0.09c-1.25,1.38-2.82,2.63-4.66,3.71c-1.08,0.63-2.26,1.21-3.51,1.72l-0.91,0.35
					c-0.2,0.07-0.4,0.14-0.6,0.21c-0.11,0.04-0.22,0.08-0.33,0.12l-0.31,0.1c-0.21,0.07-0.41,0.13-0.61,0.19l-0.5,0.15
					c-0.15,0.04-0.29,0.09-0.44,0.12h-0.02c-1.26,0.35-2.56,0.62-3.86,0.82c-1.31,0.2-2.63,0.31-3.9,0.34c-0.55,0-1.26,0-1.97-0.04
					c-0.7-0.05-1.32-0.12-1.9-0.22h-0.05c-1.72-0.33-3.49-0.96-5.42-1.93s-3.75-2.16-5.13-3.09c-0.85-0.57-1.7-1.17-2.53-1.75
					L1269.6,639.06z"/>
				<path class="st7" d="M1359.53,571.42c-0.03-2.38-0.2-4.78-0.5-7.15l0,0c-0.3-2.32-0.73-4.67-1.27-6.99v-0.04h-0.01v-0.06
					c-0.72-2.96-1.77-5.87-3.12-8.65c-1.27-2.62-2.87-5.26-4.78-7.87c-1.77-2.42-3.86-4.92-6.39-7.62
					c-2.27-2.42-4.67-4.78-6.92-6.97l-0.02-0.02c-1.72-1.66-3.37-3.43-4.79-4.95l-0.73-0.78c-1.32-1.42-2.69-2.89-4.09-4.3
					c-1.93-1.95-3.61-3.47-5.28-4.78c-1.99-1.57-4.03-2.86-6.07-3.86l-0.05-0.02c-2.27-1.09-4.61-2.01-6.95-2.74
					c-1.23-0.39-2.46-0.7-3.61-0.98l-1.82-0.39l-1.84-0.33h-0.02c-4.21-0.68-8.76-0.97-14.77-0.93l-4.25,0.07l-1.97,0.06l-1.96,0.1
					l-1.97,0.14l-0.68,0.06c-0.15,0.01-0.3,0.03-0.45,0.04c-0.29,0.03-0.57,0.05-0.86,0.08l-1.29,0.15l-1.31,0.18
					c-3.05,0.42-6.21,1.11-9.39,2.04c-2.87,0.86-5.81,1.94-8.98,3.32c-1.9,0.83-3.78,1.79-5.77,2.93c-1.82,1.05-3.64,2.22-5.43,3.47
					c-1.75,1.23-3.47,2.54-5.11,3.91c-1.69,1.4-3.28,2.85-4.73,4.3l-0.04,0.04l0,0l0,0c-5.68,5.68-10.39,12.19-13.98,19.33
					c-0.89,1.78-1.73,3.61-2.48,5.46c-0.74,1.84-1.42,3.74-2.02,5.65c-0.05,0.16-0.1,0.33-0.15,0.49c-0.1,0.31-0.19,0.62-0.29,0.94
					l-0.4,1.42l-0.03,0.12c-0.24,0.91-0.49,1.86-0.7,2.8c-0.46,2.01-0.83,3.99-1.11,5.89c-0.26,1.84-0.46,3.67-0.59,5.44
					c-0.13,1.81-0.19,3.65-0.2,5.46c0,4.9,0.48,9.82,1.44,14.62c0.95,4.81,2.39,9.54,4.26,14.06c1.87,4.53,4.2,8.89,6.93,12.96
					c2.7,4.04,5.83,7.85,9.3,11.32l1.31,1.25c0.08,0.07,0.15,0.14,0.24,0.22l0.92,0.8c3.3,2.83,7.15,5.31,11.78,7.59
					c4.21,2.08,8.52,3.79,12.69,5.44h0.01c3.85,1.52,7.34,2.87,10.97,3.99c4.23,1.3,8.02,2.06,11.58,2.32l1.91,0.11l1.89,0.04h0.02
					c0.07,0,0.15,0,0.22,0c5.09,0,10.2-0.65,15.2-1.94c2.04-0.54,3.99-1.15,5.8-1.82c1.91-0.72,3.77-1.54,5.53-2.42l0.46-0.24
					c0.29-0.15,0.7-0.38,1.26-0.7l0.44-0.26l0.23-0.15l0.77-0.47l0.59-0.39c0.89-0.61,1.77-1.27,2.64-1.97
					c1.03-0.82,2.1-1.75,3.18-2.77c1.18-1.11,2.4-2.32,3.61-3.6c1.41-1.48,2.9-3.14,4.04-4.41c0.47-0.52,0.95-1.06,1.44-1.61
					c1-1.12,2.03-2.28,3.13-3.49c3.07-3.39,5.78-6.59,8.07-9.5c1.9-2.42,3.63-4.78,5.28-7.21c1.23-1.81,2.11-3.21,2.75-4.23
					l1.1-1.79c2.78-4.65,4.87-9.53,6.21-14.5c1.37-5.04,2.04-10.31,1.99-15.65L1359.53,571.42z M1269.16,639.7
					c-0.75-0.49-1.53-0.99-2.3-1.48c-1.65-1.04-3.44-2.12-5.39-3.02l-0.05-0.02l0,0h-0.01c-0.92-0.42-1.88-0.8-2.87-1.14
					c-0.91-0.31-1.88-0.59-2.95-0.87c-1.86-0.47-3.72-0.83-5.93-1.22l-0.69-0.12c-1.69-0.3-3.43-0.6-5.11-0.99
					c-2.17-0.51-3.88-1.09-5.38-1.83c-0.65-0.32-1.31-0.72-1.97-1.17c-0.58-0.41-1.16-0.89-1.75-1.47
					c-3.32-3.32-6.31-6.96-8.89-10.82c-2.6-3.88-4.82-8.04-6.61-12.35c-1.78-4.31-3.15-8.82-4.06-13.41
					c-0.91-4.58-1.37-9.27-1.37-13.95c0-2.7,0.16-5.43,0.46-8.11c0.91-8.02,3.14-15.75,6.62-22.96c0.87-1.79,1.82-3.57,2.83-5.29
					c1-1.69,2.11-3.38,3.28-5.03c2.21-3.13,4.81-6.2,7.74-9.15l0,0c1.66-1.65,3.52-3.27,5.86-5.1c2.04-1.59,4.18-3.12,6.35-4.54
					c2.38-1.55,4.59-2.83,6.73-3.9c1.23-0.62,2.38-1.14,3.51-1.6c1.29-0.52,2.47-0.92,3.59-1.21l0,0c0.25-0.06,0.51-0.13,0.76-0.19
					c0.45-0.11,0.91-0.23,1.36-0.34l1.07-0.24l2.11-0.42l1.06-0.16c0.07-0.01,0.15-0.02,0.22-0.03c0.09-0.01,0.18-0.03,0.27-0.04
					l0.8-0.09c0.28-0.03,0.54-0.06,0.8-0.07l0.73-0.05c0.11,0,0.22-0.01,0.31-0.01h0.01l1.09-0.02c2.1,0.02,4.25,0.26,6.33,0.48
					l0.69,0.08c2.63,0.29,4.98,0.51,7.19,0.67l1.03,0.06l1.04,0.03h0.02c1.22,0.01,2.46-0.03,3.79-0.15
					c1.34-0.11,2.64-0.28,3.72-0.42c0.31-0.04,0.62-0.08,0.93-0.13c2.06-0.28,4.18-0.57,6.26-0.59c0.99,0,1.96,0.05,2.88,0.17
					c0.94,0.12,1.88,0.32,2.8,0.59c0.83,0.24,1.7,0.57,2.68,1.02l0.66,0.32c0.14,0.07,0.27,0.14,0.4,0.21l0.5,0.26l1.02,0.59
					c1.02,0.62,1.95,1.42,2.78,2.39c0.76,0.89,1.45,1.92,2.1,3.15c0.54,1.03,1.05,2.17,1.58,3.58c0.49,1.29,0.94,2.63,1.32,3.78
					l0.29,0.88c0.75,2.27,1.52,4.61,2.52,6.85c0.64,1.42,1.3,2.64,2.03,3.73c0.85,1.27,1.8,2.38,2.84,3.3l0,0
					c1.34,1.18,2.91,2.28,4.81,3.38c1.65,0.95,3.35,1.8,5.09,2.65l0.61,0.3c1.58,0.77,3.22,1.57,4.78,2.43
					c2.01,1.11,3.55,2.16,4.85,3.28c0.39,0.34,0.74,0.66,1.05,0.97l0.02,0.02c0.12,0.12,0.24,0.25,0.37,0.38l0.35,0.39l0.23,0.27
					c0.59,0.71,1.13,1.49,1.6,2.32c0.46,0.85,0.84,1.72,1.13,2.6s0.51,1.82,0.66,2.77v0.05c0.3,1.95,0.45,3.85,0.45,5.64
					c-0.01,2.73-0.4,5.34-1.15,7.76l0,0c-0.76,2.48-1.92,4.85-3.43,7.04c-0.72,1.05-1.54,2.1-2.43,3.11l-0.68,0.75l-0.7,0.73
					l-1.06,1.05c-0.07,0.07-0.15,0.14-0.22,0.21l-0.14,0.13c-1.77,1.64-3.83,3.27-6.31,4.98l-1.34,0.91
					c-0.91,0.62-2.32,1.55-4.08,2.7c-0.21,0.14-0.43,0.28-0.65,0.43c-1.69,1.13-3.8,2.53-6.07,4.42c-1.38,1.17-2.7,2.47-3.9,3.85
					c-1.25,1.43-2.49,3.06-3.8,4.99c-0.73,1.09-1.39,2.28-2.01,3.65c-0.48,1.06-0.95,2.22-1.41,3.54c-0.17,0.48-0.33,0.96-0.48,1.41
					l-0.21,0.66c-0.13,0.42-0.27,0.86-0.39,1.28c-0.33,1.11-0.63,2.19-0.88,3.11c-0.2,0.72-0.38,1.42-0.57,2.09
					c-0.32,1.18-0.62,2.3-0.92,3.34c-0.49,1.73-0.93,3.15-1.35,4.34c-0.43,1.21-0.87,2.28-1.32,3.19v0.02
					c-0.17,0.35-0.35,0.67-0.52,0.98l-0.1,0.17c-0.05,0.09-0.11,0.17-0.16,0.26c-0.15,0.24-0.27,0.45-0.39,0.61l-0.27,0.39
					l-0.44,0.55c0,0-0.06,0.06-0.08,0.09l-0.4,0.43c-1.55,1.53-3.48,2.88-5.74,4.02c-2.14,1.07-4.51,1.93-7.05,2.55
					c-1.2,0.29-2.45,0.53-3.7,0.7c-1.27,0.17-2.53,0.27-3.73,0.3c-0.83,0.01-1.47,0-2.07-0.04c-0.74-0.05-1.41-0.12-2.04-0.22l0,0
					h-0.01c-1.73-0.29-3.51-0.86-5.44-1.75c-1.96-0.9-3.8-2.01-5.18-2.86c-0.94-0.59-1.89-1.2-2.81-1.8L1269.16,639.7z"/>
				<path class="st8" d="M1357.61,557.61v-0.04c-0.37-1.61-0.85-3.2-1.43-4.72c-0.57-1.51-1.28-3.03-2.1-4.5
					c-1.47-2.67-3.34-5.28-5.72-8c-2.16-2.47-4.52-4.77-6.33-6.49c-1.03-0.98-2.09-1.97-3.11-2.92c-1.11-1.04-2.26-2.11-3.38-3.18
					l-0.03-0.02c-1.44-1.37-2.92-3-4.66-5.11c-0.74-0.9-1.49-1.83-2.21-2.73c-0.73-0.91-1.49-1.86-2.25-2.78
					c-1.27-1.53-2.98-3.53-4.94-5.33c-1.95-1.79-3.99-3.24-6.08-4.29h-0.02c-1.94-0.99-3.89-1.8-5.78-2.42
					c-1.07-0.35-2.06-0.64-3.02-0.88c-1.09-0.27-2.1-0.49-3.07-0.66c-1.91-0.34-3.94-0.58-6.2-0.73c-1-0.06-2.04-0.11-3.09-0.14
					c-0.97-0.03-1.97-0.04-3.08-0.05c-1.69,0-3.4,0.01-5.06,0.03c-1.08,0.01-2.16,0.02-3.24,0.03c-2.2,0.02-4.13,0.07-5.89,0.16
					c-2.12,0.11-4.05,0.29-5.92,0.53l-1.04,0.14l-1.07,0.17l-2.12,0.39c-0.23,0.05-0.46,0.1-0.69,0.15
					c-0.12,0.03-0.24,0.05-0.37,0.08c-0.09,0.02-0.19,0.04-0.28,0.06c-0.25,0.06-0.52,0.11-0.77,0.18l-0.4,0.1
					c-0.55,0.14-1.12,0.28-1.67,0.45c-2.51,0.71-5.13,1.61-7.99,2.76l-0.08,0.03c-1.96,0.79-3.95,1.76-6.08,2.95
					c-1.88,1.06-3.8,2.26-5.69,3.57c-1.83,1.27-3.63,2.62-5.35,4.03c-1.8,1.48-3.47,2.99-4.97,4.48l-0.03,0.03
					c-5.72,5.72-10.45,12.28-14.04,19.48c-0.89,1.79-1.72,3.64-2.48,5.51l-0.54,1.38l-0.52,1.42l-0.57,1.68
					c-0.05,0.16-0.11,0.32-0.16,0.49l-0.22,0.7c-1.17,3.74-2.05,7.7-2.63,11.77l-0.17,1.28c-0.04,0.29-0.07,0.57-0.1,0.86
					c-0.02,0.15-0.03,0.3-0.05,0.45l-0.07,0.64l-0.06,0.68c-0.01,0.15-0.02,0.3-0.04,0.45c-0.02,0.28-0.05,0.57-0.07,0.85
					c-0.11,1.67-0.17,3.38-0.18,5.24c0,4.89,0.48,9.8,1.43,14.59c0.95,4.8,2.38,9.53,4.25,14.04c1.87,4.52,4.2,8.87,6.92,12.93
					c2.7,4.04,5.83,7.84,9.3,11.32h0.01c0.79,0.8,1.64,1.57,2.52,2.29s1.82,1.43,2.8,2.09c0.91,0.62,1.91,1.24,2.95,1.84
					c1.83,1.05,3.85,2.05,6.17,3.06c2.55,1.11,5.18,2.13,7.72,3.11c1.59,0.61,3.23,1.25,4.82,1.89h0.03
					c1.09,0.45,2.2,0.91,3.27,1.36c2.46,1.02,5,2.08,7.57,3c2.06,0.74,3.92,1.31,5.69,1.75c2.04,0.51,4.03,0.85,5.9,1.01l1.83,0.12
					l1.82,0.05h0.03c0.15,0,0.29,0,0.44,0c2.41,0,4.87-0.17,7.33-0.5c2.59-0.35,5.15-0.88,7.63-1.58c1.86-0.53,3.72-1.17,5.54-1.89
					h0.02c1.85-0.78,3.62-1.64,5.28-2.57l0.42-0.25c0.3-0.17,0.71-0.44,1.23-0.78l0.02-0.02c0.07-0.05,0.14-0.1,0.21-0.14
					c0.2-0.14,0.43-0.3,0.67-0.48c0.05-0.04,0.1-0.08,0.15-0.11c0.11-0.08,0.23-0.17,0.35-0.27l0.53-0.42
					c0.83-0.68,1.66-1.43,2.48-2.23c0.96-0.94,1.93-1.98,2.9-3.1c1-1.15,2.06-2.44,3.25-3.96c0.73-0.94,1.49-1.92,2.29-2.97
					c0.44-0.58,0.89-1.17,1.36-1.77c1.23-1.59,2.68-3.45,4.29-5.3l0.42-0.48c2.88-3.34,5.36-6.23,7.49-8.78
					c2.03-2.44,3.87-4.73,5.47-6.81c1.29-1.68,2.24-2.98,2.94-3.93l1.21-1.69l0.85-1.23l0.82-1.26l0.62-1.01
					c0.06-0.1,0.12-0.2,0.19-0.31l0.25-0.43c0.06-0.1,0.11-0.2,0.17-0.29c0.11-0.19,0.22-0.38,0.34-0.59l0.21-0.4
					c0.24-0.45,0.49-0.91,0.72-1.37l0.22-0.44l0.65-1.36c0.1-0.2,0.18-0.41,0.27-0.61c0.04-0.1,0.09-0.21,0.14-0.31l0.2-0.46
					c0.04-0.11,0.09-0.21,0.13-0.32l0.43-1.07l0.35-0.94c0.1-0.25,0.18-0.5,0.26-0.74l0.08-0.25c0.03-0.09,0.06-0.18,0.09-0.27
					c0.08-0.22,0.16-0.46,0.23-0.68l0.29-0.94v-0.02c0.07-0.21,0.13-0.41,0.18-0.62l0.14-0.5c0.03-0.11,0.06-0.22,0.09-0.34
					l0.12-0.49c0.03-0.11,0.05-0.22,0.08-0.32c0.05-0.21,0.11-0.43,0.16-0.65c0.28-1.19,0.52-2.48,0.75-3.95
					c0.18-1.25,0.33-2.56,0.43-4.01c0.08-1.27,0.12-2.62,0.12-4.02c-0.04-4.05-0.54-8.23-1.48-12.44L1357.61,557.61z
					 M1354.03,574.25c-0.67,2.42-1.7,4.81-3.05,7.09c-1.31,2.17-2.9,4.26-4.73,6.2c-1.63,1.75-3.53,3.48-5.83,5.29l-1.29,1l-3.92,3
					c-1.02,0.78-1.99,1.53-2.95,2.29c-0.94,0.75-2.18,1.78-3.5,2.98c-1.31,1.2-2.6,2.52-3.82,3.93c-1.27,1.45-2.57,3.12-3.87,4.95
					c-0.73,1.03-1.41,2.15-2.07,3.44c-0.52,1.01-1.03,2.11-1.55,3.35c-0.5,1.19-0.93,2.32-1.24,3.17c-0.38,1.02-0.71,1.97-1.05,2.95
					c-0.16,0.45-0.31,0.9-0.46,1.34c-0.47,1.36-0.91,2.64-1.34,3.81c-0.59,1.62-1.12,2.96-1.63,4.08c-1.21,2.72-2.29,4.22-2.83,4.87
					c-0.04,0.05-0.08,0.1-0.12,0.15c-0.05,0.06-0.1,0.12-0.13,0.16l-0.4,0.44l-0.59,0.57c-0.96,0.84-2.04,1.64-3.22,2.36
					c-1.09,0.67-2.3,1.3-3.59,1.87c-2.13,0.93-4.44,1.67-6.86,2.2c-2.41,0.53-4.82,0.82-7.15,0.87c-0.85,0.01-1.54,0-2.18-0.03
					c-0.77-0.04-1.48-0.11-2.15-0.21l0,0c-1.73-0.26-3.52-0.77-5.46-1.58c-1.56-0.65-3.18-1.46-5.23-2.63
					c-1.07-0.61-2.15-1.25-3.19-1.87c-0.66-0.39-1.31-0.78-1.97-1.17c-1.66-0.97-3.45-1.98-5.36-2.84l-0.07-0.03
					c-0.94-0.41-1.93-0.8-2.94-1.16c-0.88-0.31-1.83-0.6-3.01-0.93c-1.86-0.52-3.76-0.94-5.59-1.35l-0.59-0.13
					c-1.89-0.43-3.85-0.87-5.72-1.44c-1.03-0.31-1.94-0.63-2.79-0.98c-0.97-0.4-1.82-0.81-2.61-1.28c-1.2-0.69-2.31-1.54-3.29-2.52
					l-0.02-0.02c-3.32-3.33-6.32-6.97-8.9-10.84c-2.61-3.89-4.83-8.06-6.62-12.38s-3.16-8.84-4.07-13.44
					c-0.91-4.59-1.37-9.29-1.37-13.97c0-2.82,0.17-5.66,0.5-8.46c0.24-1.97,0.56-3.95,0.95-5.9c0.42-2.08,0.89-3.97,1.43-5.8
					c0.56-1.9,1.2-3.81,1.91-5.65l0.34-0.87c0.07-0.17,0.13-0.34,0.21-0.52l0.47-1.13l0.73-1.64c0.07-0.16,0.15-0.32,0.22-0.48
					l0.41-0.85c0.87-1.78,1.82-3.55,2.83-5.26c0.96-1.63,2.06-3.31,3.27-5c2.21-3.12,4.81-6.18,7.71-9.11l0,0
					c1.6-1.6,3.45-3.21,5.64-4.94c1.97-1.55,4.03-3.03,6.12-4.41c2.29-1.5,4.41-2.75,6.48-3.81c1.18-0.61,2.29-1.12,3.38-1.58
					c1.23-0.51,2.37-0.92,3.46-1.23l1.32-0.36c0.37-0.1,0.73-0.2,1.1-0.29l1.22-0.3c0.26-0.06,0.52-0.12,0.77-0.17l0.43-0.09
					c1.78-0.38,3.36-0.62,4.84-0.74c0.14,0,0.29-0.02,0.43-0.03c0.26-0.02,0.52-0.04,0.77-0.05l1.22-0.04
					c2.18-0.02,4.4,0.14,6.54,0.29c1.93,0.14,4.32,0.31,6.63,0.45l1.06,0.05l1.06,0.02c2.52,0.02,4.99-0.19,7.28-0.42l0.79-0.08
					c2.05-0.2,4.17-0.41,6.25-0.42c1.12,0,2.18,0.06,3.17,0.19c1.04,0.13,2.08,0.34,3.08,0.62s2,0.63,2.96,1.06
					c0.92,0.41,1.85,0.89,2.84,1.46l0,0c1,0.59,1.94,1.35,2.78,2.25c0.78,0.83,1.51,1.8,2.2,2.95c0.58,0.96,1.16,2.06,1.75,3.36
					c0.54,1.18,1.05,2.42,1.51,3.57c0.13,0.33,0.27,0.67,0.4,1c0.84,2.09,1.7,4.25,2.75,6.32c0.68,1.33,1.37,2.49,2.1,3.52
					c0.84,1.19,1.77,2.24,2.76,3.13l0.72,0.62c0.07,0.06,0.15,0.13,0.23,0.19l0.31,0.24c0.07,0.05,0.14,0.11,0.2,0.16
					c0.14,0.11,0.28,0.22,0.43,0.34l0.63,0.47c0.88,0.64,1.77,1.24,2.61,1.77c1.46,0.93,2.97,1.79,4.43,2.63
					c0.31,0.18,0.62,0.35,0.93,0.53l0.05,0.03c0.81,0.47,1.65,0.95,2.46,1.45c0.29,0.17,0.58,0.35,0.87,0.53l0.35,0.22
					c0.13,0.09,0.27,0.17,0.4,0.26c0.28,0.18,0.54,0.34,0.79,0.52l0.02,0.02c0.69,0.45,1.41,0.98,2.27,1.66
					c0.1,0.09,0.21,0.17,0.31,0.26c0.27,0.22,0.52,0.42,0.75,0.65c0.07,0.06,0.14,0.12,0.21,0.19c0.1,0.09,0.21,0.18,0.3,0.28
					l0.53,0.52l0.02,0.02c0.09,0.08,0.19,0.19,0.29,0.3c0.05,0.06,0.11,0.12,0.15,0.17l0.25,0.27l0.67,0.79l0.66,0.88
					c0,0,0.02,0.03,0.03,0.04l0.53,0.82c0,0,0.02,0.03,0.03,0.04l0.26,0.47l0.32,0.6c0.81,1.6,1.38,3.35,1.7,5.22l0,0
					c0.21,1.26,0.35,2.41,0.45,3.5c0.1,1.2,0.14,2.38,0.13,3.51c-0.04,2.67-0.39,5.24-1.06,7.66L1354.03,574.25z"/>
				<path class="st0" d="M1357.47,558.03v-0.04c-0.38-1.74-0.9-3.45-1.56-5.07c-0.66-1.6-1.47-3.19-2.43-4.7
					c-0.9-1.43-1.96-2.85-3.14-4.22c-1.05-1.22-2.22-2.45-3.59-3.76c-2.03-1.94-4.22-3.81-6.16-5.46c-2-1.71-4.08-3.47-6.06-5.33
					h-0.01c-1.5-1.42-2.95-3.1-4.56-5.3c-0.94-1.29-1.86-2.64-2.75-3.95c-0.45-0.66-0.9-1.32-1.35-1.98
					c-1.34-1.93-2.81-3.97-4.58-5.86c-0.91-0.97-1.85-1.85-2.8-2.6c-1.02-0.81-2.1-1.52-3.21-2.11h-0.03
					c-3.13-1.66-6.38-2.84-9.66-3.51c-1.56-0.33-3.22-0.57-5.08-0.73c-1.47-0.13-3.08-0.2-5.07-0.22c-1.91-0.01-3.84,0.03-5.71,0.06
					h-0.33c-1.9,0.05-3.93,0.08-5.93,0.06h-2.04h-2.01c-1.6,0.02-3.05,0.05-4.49,0.13l-2.24,0.14c-0.2,0.01-0.4,0.03-0.6,0.05
					l-0.78,0.08c-0.3,0.03-0.6,0.06-0.92,0.1c-1.24,0.15-2.48,0.34-3.72,0.58c-0.61,0.03-1.67,0.26-3.06,0.68
					c-0.24,0.06-0.48,0.12-0.71,0.18c-2.15,0.57-4.43,1.31-7.15,2.31l-0.08,0.03c-2.03,0.76-4.11,1.73-6.38,2.96
					c-1.96,1.07-3.91,2.27-5.95,3.66c-1.91,1.3-3.79,2.7-5.59,4.16c-1.93,1.57-3.62,3.08-5.17,4.62l-0.05,0.05
					c-5.76,5.76-10.51,12.37-14.11,19.63c-0.89,1.81-1.72,3.67-2.47,5.55l-0.35,0.9c-0.07,0.18-0.14,0.36-0.2,0.52l-0.51,1.4
					l-0.49,1.45l-0.46,1.46c-0.59,1.93-1.11,3.9-1.54,5.87c-0.42,1.96-0.78,3.97-1.05,5.97c-0.21,1.47-0.37,3.06-0.51,5.01
					l-0.07,1.24c-0.02,0.28-0.02,0.55-0.03,0.83c0,0.14,0,0.28-0.02,0.43l-0.02,0.62c0,0.14,0,0.28,0,0.43l-0.02,1.47
					c0,4.88,0.48,9.78,1.43,14.56c0.24,1.23,0.52,2.46,0.83,3.69c1.58,6.47,4.03,12.62,7.35,18.4c0.93,1.65,1.92,3.26,2.97,4.82
					c2.7,4.03,5.83,7.84,9.29,11.31l0.04,0.04c0.83,0.82,1.72,1.61,2.66,2.34c1.7,1.32,3.66,2.55,5.82,3.65
					c1.78,0.9,3.75,1.75,6.2,2.69c1.6,0.61,3.23,1.19,4.8,1.75c0.48,0.17,0.96,0.34,1.45,0.51c1.83,0.65,3.98,1.44,6.12,2.32h0.02
					c1.71,0.72,3.44,1.5,5.11,2.26c1.82,0.83,3.7,1.68,5.6,2.46c2.08,0.85,3.92,1.51,5.65,2.01c2.1,0.61,4.04,1,5.95,1.19l1.75,0.14
					l1.75,0.06h0.03c0.19,0,0.39,0,0.58,0c2.38,0,4.82-0.18,7.28-0.54c2.62-0.39,5.2-0.97,7.69-1.74l1.3-0.41h0.03
					c0.28-0.11,0.56-0.21,0.84-0.32c0.15-0.05,0.3-0.11,0.46-0.17l0.22-0.08c0.15-0.05,0.29-0.11,0.44-0.16l1.65-0.69
					c0,0,0.09-0.04,0.14-0.06l1.71-0.81l1.56-0.83l1.81-1.07l0.54-0.36c0.12-0.08,0.27-0.18,0.44-0.31l1.07-0.82
					c0.12-0.09,0.22-0.18,0.32-0.27c0.04-0.04,0.09-0.08,0.13-0.11c0.27-0.23,0.53-0.47,0.81-0.74l0.21-0.19
					c0.76-0.74,1.53-1.58,2.3-2.49c1.5-1.78,3.25-4.23,5.48-7.71c0.29-0.45,0.59-0.92,0.9-1.39c0.75-1.17,1.54-2.39,2.38-3.66
					c1.11-1.65,2.45-3.6,4.03-5.52c2.91-3.55,5.54-6.56,7.74-9.04c0.62-0.7,1.22-1.37,1.78-2.01c1.5-1.69,2.8-3.15,3.88-4.4
					c1.46-1.67,2.55-2.96,3.28-3.82l1.17-1.4h0.01c1.86-2.27,3.4-4.45,4.71-6.67l0.26-0.43l0.27-0.47c0.06-0.1,0.11-0.2,0.17-0.3
					c0.11-0.19,0.22-0.39,0.33-0.6l0.46-0.88l0.67-1.37c0.05-0.11,0.1-0.22,0.15-0.34c0.02-0.05,0.04-0.1,0.07-0.16l0.14-0.31
					c0.09-0.2,0.18-0.41,0.27-0.61l0.39-0.94l0.37-0.97c0.51-1.38,0.93-2.66,1.26-3.91l0.04-0.16c0.03-0.12,0.06-0.23,0.09-0.35
					l0.12-0.49c0.02-0.1,0.05-0.2,0.07-0.29c0.06-0.23,0.11-0.47,0.16-0.71l0.2-0.97l0.19-1.03c0.24-1.43,0.4-2.76,0.51-4.07
					c0.1-1.34,0.15-2.71,0.14-4.09c-0.03-3.46-0.44-7.07-1.21-10.73L1357.47,558.03z M1354.62,574.37c-0.28,1.28-0.65,2.56-1.09,3.8
					c-0.45,1.28-0.97,2.5-1.54,3.64c-0.58,1.16-1.24,2.32-1.97,3.45c-0.68,1.05-1.44,2.1-2.33,3.22l-0.64,0.78l-0.67,0.78
					c-0.17,0.2-0.35,0.4-0.54,0.6l-0.46,0.5l-1.04,1.08c-0.15,0.15-0.3,0.3-0.45,0.44c-0.09,0.09-0.18,0.17-0.26,0.26l-0.36,0.35
					c-0.07,0.07-0.15,0.14-0.22,0.21l-0.89,0.82l-1.23,1.1l-4.22,3.72c-1.57,1.38-3.52,3.11-5.7,5.24
					c-1.26,1.24-2.52,2.59-3.76,4.01c-1.3,1.5-2.63,3.16-3.95,4.93c-0.72,0.97-1.42,2.03-2.13,3.25c-0.55,0.95-1.1,1.99-1.69,3.16
					c-0.52,1.05-0.98,2.06-1.4,3c-0.42,0.93-0.81,1.83-1.19,2.7l-0.2,0.47c-0.69,1.6-1.35,3.12-1.97,4.46
					c-0.69,1.5-1.32,2.75-1.91,3.82c-1.35,2.45-2.55,3.86-3.15,4.49l-0.03,0.03c-0.14,0.16-0.29,0.3-0.43,0.44l-0.2,0.19
					c0,0-0.07,0.07-0.1,0.09l-0.55,0.47c-1.16,0.91-2.41,1.74-3.71,2.45c-1.33,0.73-2.71,1.36-4.1,1.9
					c-2.11,0.82-4.36,1.46-6.68,1.92c-2.33,0.46-4.66,0.72-6.9,0.77c-0.86,0.01-1.61,0-2.29-0.03c-0.81-0.04-1.55-0.1-2.27-0.2
					c-1.74-0.23-3.53-0.69-5.48-1.42c-1.58-0.59-3.26-1.35-5.29-2.4c-1.24-0.64-2.5-1.32-3.71-1.99c-0.5-0.27-1.01-0.55-1.51-0.82
					c-1.95-1.06-3.61-1.92-5.36-2.68l-0.05-0.02l0,0h-0.03c-1.82-0.8-3.79-1.51-6.03-2.18c-1.52-0.46-3.08-0.88-4.58-1.29
					c-0.51-0.14-1.02-0.28-1.53-0.42c-1.91-0.52-3.94-1.1-5.93-1.84c-2.09-0.77-3.86-1.64-5.4-2.66c-1.08-0.71-2.07-1.51-2.94-2.39
					l0,0c-1.06-1.07-2.09-2.17-3.09-3.3c-2.54-4.39,3.73-9.11,0.22-15.26c-5.45-9.54-8.21-20.32-8.21-32.05s2.76-22.52,8.21-32.05
					c5.43-9.51,12.85-17.16,22.05-22.73c4.62-2.8,8.24-12.4,13.38-13.81c0,0,0,0-0.01,0c0.88-0.14,1.76-0.26,2.61-0.34
					c1.3-0.12,2.66-0.18,4.16-0.19c1.76,0,3.51,0.06,5.29,0.13l5.34,0.23l1.04,0.03h1.06c2.35,0.02,4.64-0.12,6.57-0.25l0.76-0.05
					c1.86-0.12,3.78-0.25,5.65-0.27c1.34,0,2.55,0.04,3.7,0.16c1.24,0.12,2.46,0.33,3.61,0.61c1.17,0.29,2.33,0.67,3.47,1.14
					c1.09,0.44,2.2,0.99,3.31,1.61c0.99,0.56,1.93,1.27,2.8,2.11c0.81,0.78,1.56,1.68,2.31,2.74c1.42,2.03,2.52,4.23,3.62,6.49
					c0.19,0.39,0.38,0.79,0.57,1.18c0.91,1.89,1.84,3.84,2.92,5.7c0.72,1.25,1.43,2.33,2.17,3.31c0.84,1.11,1.73,2.1,2.67,2.96
					l0.04,0.04c0.82,0.74,1.71,1.49,2.67,2.23c0.85,0.65,1.76,1.31,2.78,2.03c1.12,0.78,2.28,1.55,3.39,2.29
					c0.74,0.49,1.49,0.99,2.23,1.49c1.35,0.92,2.93,2.02,4.44,3.25c0.1,0.08,0.2,0.17,0.3,0.25c0.26,0.21,0.5,0.41,0.73,0.63
					l0.19,0.17c0.11,0.09,0.21,0.19,0.32,0.28l0.5,0.47l0.95,0.94l0.68,0.75c0,0,0.08,0.09,0.12,0.14l0.52,0.63
					c0.08,0.11,0.17,0.21,0.25,0.32c0.05,0.07,0.1,0.14,0.16,0.21v0.02c0.2,0.23,0.37,0.49,0.56,0.77c0.07,0.11,0.14,0.21,0.23,0.33
					c0.04,0.06,0.09,0.14,0.14,0.22l0.37,0.61c0.05,0.08,0.09,0.15,0.13,0.22l0.34,0.64c0,0,0.04,0.08,0.07,0.13
					c0.02,0.04,0.04,0.08,0.07,0.13l0.15,0.33c0.74,1.56,1.28,3.25,1.6,5.02v0.08c0.24,1.27,0.41,2.43,0.53,3.56
					c0.12,1.24,0.2,2.46,0.22,3.64c0.03,2.76-0.23,5.41-0.77,7.89L1354.62,574.37z"/>
			</g>
		</g>
	</g>
</g>
</svg>
