<svg viewBox="0 0 61 54" fill="none" xmlns="http://www.w3.org/2000/svg" class="sc-05-Culture__Circles-sc-1ics28o-8 bCObHO"><path d="M60.5 7C60.5 7.32566 60.3584 7.68403 60.0071 8.078C59.6532 8.47502 59.108 8.88193 58.3647 9.28524C56.8787 10.0916 54.6954 10.8334 51.9549 11.4624C46.4819 12.7185 38.8962 13.5 30.5 13.5C22.1038 13.5 14.5181 12.7185 9.04509 11.4624C6.30458 10.8334 4.12129 10.0916 2.63531 9.28524C1.89202 8.88193 1.34684 8.47502 0.992853 8.078C0.641594 7.68403 0.5 7.32566 0.5 7C0.5 6.67434 0.641594 6.31597 0.992853 5.922C1.34684 5.52498 1.89202 5.11807 2.63531 4.71475C4.12129 3.90843 6.30458 3.16655 9.04509 2.53758C14.5181 1.28149 22.1038 0.5 30.5 0.5C38.8962 0.5 46.4819 1.28149 51.9549 2.53758C54.6954 3.16655 56.8787 3.90843 58.3647 4.71475C59.108 5.11807 59.6532 5.52498 60.0071 5.922C60.3584 6.31597 60.5 6.67434 60.5 7Z" stroke="#FEF8DC"></path><path d="M60.5 17C60.5 17.3257 60.3584 17.684 60.0071 18.078C59.6532 18.475 59.108 18.8819 58.3647 19.2852C56.8787 20.0916 54.6954 20.8334 51.9549 21.4624C46.4819 22.7185 38.8962 23.5 30.5 23.5C22.1038 23.5 14.5181 22.7185 9.04509 21.4624C6.30458 20.8334 4.12129 20.0916 2.63531 19.2852C1.89202 18.8819 1.34684 18.475 0.992853 18.078C0.641594 17.684 0.5 17.3257 0.5 17C0.5 16.6743 0.641594 16.316 0.992853 15.922C1.34684 15.525 1.89202 15.1181 2.63531 14.7148C4.12129 13.9084 6.30458 13.1666 9.04509 12.5376C14.5181 11.2815 22.1038 10.5 30.5 10.5C38.8962 10.5 46.4819 11.2815 51.9549 12.5376C54.6954 13.1666 56.8787 13.9084 58.3647 14.7148C59.108 15.1181 59.6532 15.525 60.0071 15.922C60.3584 16.316 60.5 16.6743 60.5 17Z" stroke="#FEF8DC"></path><path d="M60.5 27C60.5 27.3257 60.3584 27.684 60.0071 28.078C59.6532 28.475 59.108 28.8819 58.3647 29.2852C56.8787 30.0916 54.6954 30.8334 51.9549 31.4624C46.4819 32.7185 38.8962 33.5 30.5 33.5C22.1038 33.5 14.5181 32.7185 9.04509 31.4624C6.30458 30.8334 4.12129 30.0916 2.63531 29.2852C1.89202 28.8819 1.34684 28.475 0.992853 28.078C0.641594 27.684 0.5 27.3257 0.5 27C0.5 26.6743 0.641594 26.316 0.992853 25.922C1.34684 25.525 1.89202 25.1181 2.63531 24.7148C4.12129 23.9084 6.30458 23.1666 9.04509 22.5376C14.5181 21.2815 22.1038 20.5 30.5 20.5C38.8962 20.5 46.4819 21.2815 51.9549 22.5376C54.6954 23.1666 56.8787 23.9084 58.3647 24.7148C59.108 25.1181 59.6532 25.525 60.0071 25.922C60.3584 26.316 60.5 26.6743 60.5 27Z" stroke="#FEF8DC"></path><path d="M60.5 37C60.5 37.3257 60.3584 37.684 60.0071 38.078C59.6532 38.475 59.108 38.8819 58.3647 39.2852C56.8787 40.0916 54.6954 40.8334 51.9549 41.4624C46.4819 42.7185 38.8962 43.5 30.5 43.5C22.1038 43.5 14.5181 42.7185 9.04509 41.4624C6.30458 40.8334 4.12129 40.0916 2.63531 39.2852C1.89202 38.8819 1.34684 38.475 0.992853 38.078C0.641594 37.684 0.5 37.3257 0.5 37C0.5 36.6743 0.641594 36.316 0.992853 35.922C1.34684 35.525 1.89202 35.1181 2.63531 34.7148C4.12129 33.9084 6.30458 33.1666 9.04509 32.5376C14.5181 31.2815 22.1038 30.5 30.5 30.5C38.8962 30.5 46.4819 31.2815 51.9549 32.5376C54.6954 33.1666 56.8787 33.9084 58.3647 34.7148C59.108 35.1181 59.6532 35.525 60.0071 35.922C60.3584 36.316 60.5 36.6743 60.5 37Z" stroke="#FEF8DC"></path><path d="M60.5 47C60.5 47.3257 60.3584 47.684 60.0071 48.078C59.6532 48.475 59.108 48.8819 58.3647 49.2852C56.8787 50.0916 54.6954 50.8334 51.9549 51.4624C46.4819 52.7185 38.8962 53.5 30.5 53.5C22.1038 53.5 14.5181 52.7185 9.04509 51.4624C6.30458 50.8334 4.12129 50.0916 2.63531 49.2852C1.89202 48.8819 1.34684 48.475 0.992853 48.078C0.641594 47.684 0.5 47.3257 0.5 47C0.5 46.6743 0.641594 46.316 0.992853 45.922C1.34684 45.525 1.89202 45.1181 2.63531 44.7148C4.12129 43.9084 6.30458 43.1666 9.04509 42.5376C14.5181 41.2815 22.1038 40.5 30.5 40.5C38.8962 40.5 46.4819 41.2815 51.9549 42.5376C54.6954 43.1666 56.8787 43.9084 58.3647 44.7148C59.108 45.1181 59.6532 45.525 60.0071 45.922C60.3584 46.316 60.5 46.6743 60.5 47Z" stroke="#FEF8DC"></path></svg>