<svg xmlns="http://www.w3.org/2000/svg" width="171" height="173" viewBox="0 0 171 173" fill="none">
<circle cx="85.6767" cy="107.825" r="20.8251" stroke="#F9EBBB" stroke-linecap="round" stroke-width="2"/>
<circle cx="85.6767" cy="65.1752" r="20.8251" stroke="#F9EBBB" stroke-linecap="round" stroke-width="2"/>
<circle cx="85.5" cy="86.5" r="85" stroke="#F9EBBB" stroke-linecap="round" stroke-width="2"/>
<path d="M85.5523 129.101C97.3436 129.101 106.902 138.659 106.902 150.451C106.902 162.242 97.3436 171.801 85.5523 171.801" stroke="#F9EBBB" stroke-linecap="round" stroke-width="2"/>
<path d="M85.5992 1.1993C97.3905 1.1993 106.949 10.758 106.949 22.5494C106.949 34.3407 97.3905 43.8994 85.5992 43.8994" stroke="#F9EBBB" stroke-linecap="round" stroke-width="2"/>
<path d="M85.5748 25.343C120.949 25.343 149.625 54.0192 149.625 89.3932C149.625 124.767 120.949 153.443 85.5748 153.443" stroke="#F9EBBB" stroke-linecap="round" stroke-width="2"/>
<path d="M85.7004 129.101C50.3816 129.101 21.75 100.469 21.75 65.1501C21.75 29.8313 50.3816 1.19971 85.7004 1.19971" stroke="#F9EBBB" stroke-linecap="round" stroke-width="2"/>
<path d="M85.4778 171.801C50.1589 171.801 21.5273 143.169 21.5273 107.85C21.5273 72.5315 50.1589 43.8999 85.4778 43.8999" stroke="#F9EBBB" stroke-linecap="round" stroke-width="2"/>
<path d="M85.5478 67.993C73.7702 67.993 64.2227 58.4454 64.2227 46.6679C64.2227 34.8904 73.7702 25.3428 85.5478 25.3428" stroke="#F9EBBB" stroke-linecap="round" stroke-width="2"/>
<path d="M85.5772 68.0431C97.3548 68.0431 106.902 77.5907 106.902 89.3682C106.902 101.146 97.3548 110.693 85.5772 110.693" stroke="#F9EBBB" stroke-linecap="round" stroke-width="2"/>
<path d="M85.6001 153.443C73.8087 153.443 64.25 143.885 64.25 132.093C64.25 120.302 73.8087 110.743 85.6001 110.743" stroke="#F9EBBB" stroke-linecap="round" stroke-width="2"/>
</svg>